<?xml version="1.0" encoding="utf-8"?>
<!-- Generator: Adobe Illustrator 27.9.0, SVG Export Plug-In . SVG Version: 6.00 Build 0)  -->
<svg version="1.1" xmlns="http://www.w3.org/2000/svg" xmlns:xlink="http://www.w3.org/1999/xlink" x="0px" y="0px"
	 viewBox="0 0 1920 1080" style="enable-background:new 0 0 1920 1080;" xml:space="preserve">
<style type="text/css">
	.st0{fill:none;stroke:#FFFFFF;stroke-linecap:square;stroke-miterlimit:3.239;}
	.st1{fill:#FFFFFF;stroke:#000000;stroke-linecap:square;stroke-miterlimit:3.239;}
	.st2{fill:none;stroke:#00FFFF;stroke-linecap:square;stroke-miterlimit:3.239;}
	.st3{fill:none;stroke:#FF0000;stroke-linecap:square;stroke-miterlimit:3.239;}
	.st4{fill:none;stroke:#FF0000;stroke-miterlimit:3.239;}
	.st5{fill:none;stroke:#00FFFF;stroke-width:3;stroke-miterlimit:10;}
	.st6{fill:none;stroke:#AD9A00;stroke-miterlimit:10;}
	.st7{opacity:0.6;}
	.st8{fill:#FBE53B;stroke:#AD9A00;stroke-miterlimit:10;}
	.st9{display:none;}
	.st10{display:inline;}
	.st11{fill:#FF0000;}
	.st12{display:inline;fill:#FF0000;stroke:#FF0000;stroke-linecap:square;stroke-miterlimit:3.239;}
	.st13{display:inline;opacity:0.5;fill:#FF0000;}
	.st14{display:inline;fill:none;stroke:#FF0000;stroke-width:2;stroke-miterlimit:10;}
	.st15{opacity:0.5;fill:#FF0000;}
	.st16{opacity:0.33;fill:#009245;}
	.st17{opacity:0.33;fill:#1A9253;}
	.st18{display:inline;opacity:0.33;fill:#1A9253;}
	.st19{display:inline;opacity:0.33;fill:#009245;}
	.st20{fill:none;stroke:#8C272D;stroke-width:4;stroke-linecap:round;stroke-miterlimit:10;}
	.st21{fill:none;stroke:#FF0000;stroke-width:4;stroke-linecap:round;stroke-miterlimit:10;}
	.st22{display:inline;opacity:0.5;}
	.st23{fill:#00FFFF;}
	.st24{opacity:0.65;fill:#00FFFF;}
	.st25{opacity:0.25;fill:#00FFFF;}
	.st26{fill:none;stroke:#00FFFF;stroke-miterlimit:10;}
	.st27{display:inline;opacity:0.25;fill:#00FFFF;}
	.st28{display:inline;fill:none;stroke:#00FFFF;stroke-miterlimit:10;}
</style>
<g id="bg">
	<g>
		<rect width="1920" height="1080"/>
	</g>
</g>
<g id="baseline_x5F_white">
	<polygon class="st0" points="600.5,648.6 600.5,602.7 640.2,625.7 	"/>
	<polygon class="st0" points="640.2,797 600.4,774.1 577.5,734.3 577.5,688.4 600.4,648.6 640.2,625.7 686.1,625.7 725.9,648.6 
		748.8,688.4 748.8,734.3 725.9,774.1 686.1,797 	"/>
	<polygon class="st0" points="600.5,820 600.5,774.1 640.2,797 	"/>
	<polygon class="st0" points="748.8,734.3 748.8,688.4 788.6,711.3 	"/>
	<polygon class="st0" points="577.5,734.3 537.7,711.3 577.5,688.4 	"/>
	<polygon class="st0" points="788.6,882.7 748.8,859.7 725.9,820 725.9,774.1 748.8,734.3 788.6,711.3 834.5,711.3 874.3,734.3 
		897.2,774.1 897.2,820 874.3,859.7 834.5,882.7 	"/>
	<polygon class="st0" points="748.8,905.7 748.8,859.7 788.6,882.7 	"/>
	<polygon class="st0" points="897.2,820 897.2,774.1 937,797 	"/>
	<polygon class="st0" points="725.9,820 686.1,797 725.9,774.1 	"/>
	<polygon class="st0" points="937,968.4 897.2,945.4 874.3,905.7 874.3,859.7 897.2,820 937,797 982.9,797 1022.7,820 1045.6,859.7 
		1045.6,905.7 1022.7,945.4 982.9,968.4 	"/>
	<polygon class="st0" points="897.2,991.3 897.2,945.4 937,968.4 	"/>
	<polygon class="st0" points="1045.6,905.7 1045.6,859.7 1085.4,882.7 	"/>
	<polygon class="st0" points="874.3,905.7 834.5,882.7 874.3,859.7 	"/>
	<polygon class="st0" points="1022.7,991.3 982.9,968.4 1022.7,945.4 	"/>
	<polygon class="st0" points="600.5,305.9 600.5,260 640.2,283 	"/>
	<polygon class="st0" points="640.2,454.3 600.4,431.4 577.5,391.6 577.5,345.7 600.4,305.9 640.2,283 686.1,283 725.9,305.9 
		748.9,345.7 748.9,391.6 725.9,431.4 686.1,454.3 	"/>
	<polygon class="st0" points="600.5,477.3 600.5,431.4 640.2,454.3 	"/>
	<polygon class="st0" points="748.9,391.6 748.9,345.7 788.6,368.6 	"/>
	<polygon class="st0" points="577.5,391.6 537.7,368.6 577.5,345.7 	"/>
	<polygon class="st0" points="577.5,563 537.7,540 577.5,517 	"/>
	<polygon class="st0" points="640.2,625.7 600.4,602.7 577.5,563 577.5,517 600.4,477.3 640.2,454.3 686.1,454.3 725.9,477.3 
		748.9,517 748.9,563 725.9,602.7 686.1,625.7 	"/>
	<polygon class="st0" points="788.6,540 748.8,517 725.9,477.3 725.9,431.4 748.8,391.6 788.6,368.6 834.5,368.6 874.3,391.6 
		897.2,431.4 897.2,477.3 874.3,517 834.5,540 	"/>
	<polygon class="st0" points="748.9,563 748.9,517 788.6,540 	"/>
	<polygon class="st0" points="897.2,477.3 897.2,431.4 937,454.3 	"/>
	<polygon class="st0" points="725.9,477.3 686.1,454.3 725.9,431.4 	"/>
	<polygon class="st0" points="725.9,648.6 686.1,625.7 725.9,602.7 	"/>
	<polygon class="st0" points="788.6,711.3 748.8,688.4 725.9,648.6 725.9,602.7 748.8,563 788.6,540 834.5,540 874.3,563 
		897.2,602.7 897.2,648.6 874.3,688.4 834.5,711.3 	"/>
	<polygon class="st0" points="937,625.7 897.2,602.7 874.3,563 874.3,517 897.2,477.3 937,454.3 982.9,454.3 1022.7,477.3 
		1045.6,517 1045.6,563 1022.7,602.7 982.9,625.7 	"/>
	<polygon class="st0" points="897.2,648.6 897.2,602.7 937,625.7 	"/>
	<polygon class="st0" points="1045.6,563 1045.6,517 1085.4,540 	"/>
	<polygon class="st0" points="874.3,563 834.5,540 874.3,517 	"/>
	<polygon class="st0" points="874.3,734.3 834.5,711.3 874.3,688.4 	"/>
	<polygon class="st0" points="937,797 897.2,774.1 874.3,734.3 874.3,688.4 897.2,648.6 937,625.7 982.9,625.7 1022.7,648.6 
		1045.6,688.4 1045.6,734.3 1022.7,774.1 982.9,797 	"/>
	<polygon class="st0" points="1085.4,711.3 1045.6,688.4 1022.7,648.6 1022.7,602.7 1045.6,563 1085.4,540 1131.3,540 1171.1,563 
		1194,602.7 1194,648.6 1171.1,688.4 1131.3,711.3 	"/>
	<polygon class="st0" points="1045.6,734.3 1045.6,688.4 1085.4,711.3 	"/>
	<polygon class="st0" points="1194,648.6 1194,602.7 1233.8,625.7 	"/>
	<polygon class="st0" points="1022.7,648.6 982.9,625.7 1022.7,602.7 	"/>
	<polygon class="st0" points="1022.7,820 982.9,797 1022.7,774.1 	"/>
	<polygon class="st0" points="1085.4,882.7 1045.6,859.7 1022.7,820 1022.7,774.1 1045.6,734.3 1085.4,711.3 1131.3,711.3 
		1171.1,734.3 1194,774.1 1194,820 1171.1,859.7 1131.3,882.7 	"/>
	<polygon class="st0" points="1233.8,797 1194,774.1 1171.1,734.3 1171.1,688.4 1194,648.6 1233.8,625.7 1279.7,625.7 1319.5,648.6 
		1342.4,688.4 1342.4,734.3 1319.5,774.1 1279.7,797 	"/>
	<polygon class="st0" points="1194,820 1194,774.1 1233.8,797 	"/>
	<polygon class="st0" points="1342.4,734.3 1342.4,688.4 1382.2,711.3 	"/>
	<polygon class="st0" points="1171.1,734.3 1131.3,711.3 1171.1,688.4 	"/>
	<polygon class="st0" points="1171.1,905.7 1131.3,882.7 1171.1,859.7 	"/>
	<polygon class="st0" points="1319.5,820 1279.7,797 1319.5,774.1 	"/>
	<polygon class="st0" points="748.9,220.3 748.9,174.3 788.6,197.3 	"/>
	<polygon class="st0" points="897.2,134.6 897.2,88.7 937,111.6 	"/>
	<polygon class="st0" points="725.9,305.9 686.1,283 725.9,260 	"/>
	<polygon class="st0" points="788.6,368.6 748.8,345.7 725.9,305.9 725.9,260 748.8,220.3 788.6,197.3 834.5,197.3 874.3,220.3 
		897.2,260 897.2,305.9 874.3,345.7 834.5,368.6 	"/>
	<polygon class="st0" points="937,283 897.2,260 874.3,220.3 874.3,174.3 897.2,134.6 937,111.6 982.9,111.6 1022.7,134.6 
		1045.6,174.3 1045.6,220.3 1022.7,260 982.9,283 	"/>
	<polygon class="st0" points="897.2,305.9 897.2,260 937,283 	"/>
	<polygon class="st0" points="1045.6,220.3 1045.6,174.3 1085.4,197.3 	"/>
	<polygon class="st0" points="874.3,220.3 834.5,197.3 874.3,174.3 	"/>
	<polygon class="st0" points="874.3,391.6 834.5,368.6 874.3,345.7 	"/>
	<polygon class="st0" points="937,454.3 897.2,431.4 874.3,391.6 874.3,345.7 897.2,305.9 937,283 982.9,283 1022.7,305.9 
		1045.6,345.7 1045.6,391.6 1022.7,431.4 982.9,454.3 	"/>
	<polygon class="st0" points="1085.4,368.6 1045.6,345.7 1022.7,305.9 1022.7,260 1045.6,220.3 1085.4,197.3 1131.3,197.3 
		1171.1,220.3 1194,260 1194,305.9 1171.1,345.7 1131.3,368.6 	"/>
	<polygon class="st0" points="1045.6,391.6 1045.6,345.7 1085.4,368.6 	"/>
	<polygon class="st0" points="1194,305.9 1194,260 1233.8,283 	"/>
	<polygon class="st0" points="1022.7,305.9 982.9,283 1022.7,260 	"/>
	<polygon class="st0" points="1022.7,477.3 982.9,454.3 1022.7,431.4 	"/>
	<polygon class="st0" points="1085.4,540 1045.6,517 1022.7,477.3 1022.7,431.4 1045.6,391.6 1085.4,368.6 1131.3,368.6 
		1171.1,391.6 1194,431.4 1194,477.3 1171.1,517 1131.3,540 	"/>
	<polygon class="st0" points="1233.8,454.3 1194,431.4 1171.1,391.6 1171.1,345.7 1194,305.9 1233.8,283 1279.7,283 1319.5,305.9 
		1342.4,345.7 1342.4,391.6 1319.5,431.4 1279.7,454.3 	"/>
	<polygon class="st0" points="1194,477.3 1194,431.4 1233.8,454.3 	"/>
	<polygon class="st0" points="1342.4,391.6 1342.4,345.7 1382.2,368.6 	"/>
	<polygon class="st0" points="1171.1,391.6 1131.3,368.6 1171.1,345.7 	"/>
	<polygon class="st0" points="1171.1,563 1131.3,540 1171.1,517 	"/>
	<polygon class="st0" points="1233.8,625.7 1194,602.7 1171.1,563 1171.1,517 1194,477.3 1233.8,454.3 1279.7,454.3 1319.5,477.3 
		1342.4,517 1342.4,563 1319.5,602.7 1279.7,625.7 	"/>
	<polygon class="st0" points="1342.4,563 1342.4,517 1382.2,540 	"/>
	<polygon class="st0" points="1319.5,477.3 1279.7,454.3 1319.5,431.4 	"/>
	<polygon class="st0" points="1319.5,648.6 1279.7,625.7 1319.5,602.7 	"/>
	<polygon class="st0" points="1022.7,134.6 982.9,111.6 1022.7,88.7 	"/>
	<polygon class="st0" points="1171.1,220.3 1131.3,197.3 1171.1,174.3 	"/>
	<polygon class="st0" points="1319.5,305.9 1279.7,283 1319.5,260 	"/>
	<path class="st0" d="M514.8,283v171.3 M663.2,197.3L514.8,283 M514.8,283h98.9 M613.7,283l49.5-85.7 M564.3,368.7L514.8,283
		 M564.3,368.7l-49.5,85.7 M564.3,368.7h98.9 M663.2,368.7L613.7,283 M514.8,283l148.4,85.7 M663.2,368.7V197.3"/>
	<path class="st0" d="M514.8,454.3v171.3 M663.2,368.6l-148.4,85.7 M514.8,454.3h98.9 M613.7,454.3l49.5-85.7 M564.3,540l-49.5-85.7
		 M564.3,540l-49.5,85.7 M564.3,540h98.9 M663.2,540l-49.5-85.7 M514.8,454.3L663.2,540 M663.2,540V368.6"/>
	<path class="st0" d="M514.8,625.7V797 M663.2,540l-148.4,85.7 M514.8,625.7h98.9 M613.7,625.7l49.5-85.7 M564.3,711.4l-49.5-85.7
		 M564.3,711.4L514.8,797 M564.3,711.4h98.9 M663.2,711.4l-49.5-85.7 M514.8,625.7l148.4,85.7 M663.2,711.4V540"/>
	<path class="st0" d="M663.2,711.3L514.8,797 M514.8,797h98.9 M613.7,797l49.5-85.7 M663.2,882.7L613.7,797 M514.8,797l148.4,85.7
		 M663.2,882.7V711.3"/>
	<path class="st0" d="M811.6,111.6l-49.5,85.7 M811.6,111.6l-148.4,85.7 M663.2,197.3l98.9,0 M811.6,111.6V283 M762.1,197.3
		l49.5,85.7 M960,25.9l-148.4,85.7 M811.6,111.6h98.9 M910.5,111.6L960,25.9 M861.1,197.3l-49.5-85.7 M861.1,197.3L811.6,283
		 M861.1,197.3H960 M960,197.3l-49.5-85.7 M811.6,111.6L960,197.3 M960,197.3V25.9"/>
	<path class="st0" d="M811.6,283h-98.9 M811.6,283l-49.5,85.7 M811.6,283l-148.4,85.7 M663.2,368.6l98.9,0 M663.2,368.6l49.5-85.7
		 M811.6,283v171.3 M762.1,368.6l49.5,85.7 M712.7,283l-49.5-85.7 M811.6,283l-148.4-85.7 M960,197.3L811.6,283 M811.6,283h98.9
		 M910.5,283l49.5-85.7 M861.1,368.7L811.6,283 M861.1,368.7l-49.5,85.7 M861.1,368.7H960 M960,368.7L910.5,283 M811.6,283
		L960,368.7 M960,368.7V197.3"/>
	<path class="st0" d="M811.6,454.3l-98.9,0 M811.6,454.3L762.1,540 M811.6,454.3L663.2,540 M663.2,540l98.9,0 M663.2,540l49.5-85.7
		 M811.6,454.3v171.3 M762.1,540l49.5,85.7 M712.7,454.3l-49.5-85.7 M811.6,454.3l-148.4-85.7 M960,368.6l-148.4,85.7 M811.6,454.3
		h98.9 M910.5,454.3l49.5-85.7 M861.1,540l-49.5-85.7 M861.1,540l-49.5,85.7 M861.1,540H960 M960,540l-49.5-85.7 M811.6,454.3
		L960,540 M960,540V368.6"/>
	<path class="st0" d="M811.6,625.7l-98.9,0 M811.6,625.7l-49.5,85.7 M811.6,625.7l-148.4,85.7 M663.2,711.3l98.9,0 M663.2,711.3
		l49.5-85.7 M811.6,625.7V797 M762.1,711.3l49.5,85.7 M712.7,625.7L663.2,540 M811.6,625.7L663.2,540 M960,540l-148.4,85.7
		 M811.6,625.7h98.9 M910.5,625.7L960,540 M861.1,711.4l-49.5-85.7 M861.1,711.4L811.6,797 M861.1,711.4H960 M960,711.4l-49.5-85.7
		 M811.6,625.7L960,711.4 M960,711.4V540"/>
	<path class="st0" d="M811.6,797l-98.9,0 M811.6,797l-49.5,85.7 M811.6,797l-148.4,85.7 M663.2,882.7l98.9,0 M663.2,882.7l49.5-85.7
		 M811.6,797v171.3 M762.1,882.7l49.5,85.7 M712.7,797l-49.5-85.7 M811.6,797l-148.4-85.7 M960,711.3L811.6,797 M811.6,797h98.9
		 M910.5,797l49.5-85.7 M861.1,882.7L811.6,797 M861.1,882.7l-49.5,85.7 M861.1,882.7H960 M960,882.7L910.5,797 M811.6,797
		L960,882.7 M960,882.7V711.3"/>
	<path class="st0" d="M811.6,968.4l-148.4-85.7 M960,882.7l-148.4,85.7 M811.6,968.4h98.9 M910.5,968.4l49.5-85.7 M960,1054.1
		l-49.5-85.7 M811.6,968.4l148.4,85.7 M960,1054.1V882.7"/>
	<path class="st0" d="M1108.4,111.6l-98.9,0 M1108.4,111.6l-49.5,85.7 M1108.4,111.6L960,197.3 M960,197.3l98.9,0 M960,197.3
		l49.5-85.7 M1108.4,111.6V283 M1058.9,197.3l49.5,85.7 M1009.5,111.6L960,25.9 M1108.4,111.6L960,25.9 M1157.9,197.3l-49.5-85.7
		 M1157.9,197.3l-49.5,85.7 M1157.9,197.3h98.9 M1108.4,111.6l148.4,85.7"/>
	<path class="st0" d="M1108.4,283h-98.9 M1108.4,283l-49.5,85.7 M1108.4,283L960,368.6 M960,368.6l98.9,0 M960,368.6l49.5-85.7
		 M1108.4,283v171.3 M1058.9,368.6l49.5,85.7 M1009.5,283L960,197.3 M1108.4,283L960,197.3 M1256.8,197.3L1108.4,283 M1108.4,283
		h98.9 M1207.3,283l49.5-85.7 M1157.9,368.7l-49.5-85.7 M1157.9,368.7l-49.5,85.7 M1157.9,368.7h98.9 M1256.8,368.7l-49.5-85.7
		 M1108.4,283l148.4,85.7 M1256.8,368.7l0-171.4"/>
	<path class="st0" d="M1108.4,454.3l-98.9,0 M1108.4,454.3l-49.5,85.7 M1108.4,454.3L960,540 M960,540l98.9,0 M960,540l49.5-85.7
		 M1108.4,454.3v171.3 M1058.9,540l49.5,85.7 M1009.5,454.3L960,368.6 M1108.4,454.3L960,368.6 M1256.8,368.6l-148.4,85.7
		 M1108.4,454.3h98.9 M1207.3,454.3l49.5-85.7 M1157.9,540l-49.5-85.7 M1157.9,540l-49.5,85.7 M1157.9,540h98.9 M1256.8,540
		l-49.5-85.7 M1108.4,454.3l148.4,85.7 M1256.8,540l0-171.4"/>
	<path class="st0" d="M1108.4,625.7l-98.9,0 M1108.4,625.7l-49.5,85.7 M1108.4,625.7L960,711.3 M960,711.3l98.9,0 M960,711.3
		l49.5-85.7 M1108.4,625.7V797 M1058.9,711.3l49.5,85.7 M1009.5,625.7L960,540 M1108.4,625.7L960,540 M1256.8,540l-148.4,85.7
		 M1108.4,625.7h98.9 M1207.3,625.7l49.5-85.7 M1157.9,711.4l-49.5-85.7 M1157.9,711.4l-49.5,85.7 M1157.9,711.4h98.9 M1256.8,711.4
		l-49.5-85.7 M1108.4,625.7l148.4,85.7 M1256.8,711.4l0-171.4"/>
	<path class="st0" d="M1108.4,797l-98.9,0 M1108.4,797l-49.5,85.7 M1108.4,797L960,882.7 M960,882.7l98.9,0 M960,882.7l49.5-85.7
		 M1108.4,797v171.3 M1058.9,882.7l49.5,85.7 M1009.5,797L960,711.3 M1108.4,797L960,711.3 M1256.8,711.3L1108.4,797 M1108.4,797
		h98.9 M1207.3,797l49.5-85.7 M1157.9,882.7l-49.5-85.7 M1157.9,882.7l-49.5,85.7 M1157.9,882.7h98.9 M1256.8,882.7l-49.5-85.7
		 M1108.4,797l148.4,85.7 M1256.8,882.7l0-171.4"/>
	<path class="st0" d="M1108.4,968.4l-98.9,0 M1108.4,968.4L960,1054 M960,1054l49.5-85.7 M1009.5,968.4L960,882.7 M1108.4,968.4
		L960,882.7 M1256.8,882.7l-148.4,85.7"/>
	<path class="st0" d="M1405.2,283h-98.9 M1405.2,283l-49.5,85.7 M1405.2,283l-148.4,85.7 M1256.8,368.6l98.9,0 M1256.8,368.6
		l49.5-85.7 M1405.2,283v171.3 M1355.7,368.6l49.5,85.7 M1306.3,283l-49.5-85.7 M1405.2,283l-148.4-85.7"/>
	<path class="st0" d="M1405.2,454.3l-98.9,0 M1405.2,454.3l-49.5,85.7 M1405.2,454.3L1256.8,540 M1256.8,540l98.9,0 M1256.8,540
		l49.5-85.7 M1405.2,454.3v171.3 M1355.7,540l49.5,85.7 M1306.3,454.3l-49.5-85.7 M1405.2,454.3l-148.4-85.7"/>
	<path class="st0" d="M1405.2,625.7l-98.9,0 M1405.2,625.7l-49.5,85.7 M1405.2,625.7l-148.4,85.7 M1256.8,711.3l98.9,0
		 M1256.8,711.3l49.5-85.7 M1405.2,625.7V797 M1355.7,711.3l49.5,85.7 M1306.3,625.7l-49.5-85.7 M1405.2,625.7L1256.8,540"/>
	<path class="st0" d="M1405.2,797l-98.9,0 M1405.2,797l-148.4,85.7 M1256.8,882.7l49.5-85.7 M1306.3,797l-49.5-85.7 M1405.2,797
		l-148.4-85.7"/>
</g>
<g id="_x31_9p">
	<polygon class="st1" points="937,968.4 897.2,945.4 874.3,905.7 874.3,859.7 897.2,820 937,797 982.9,797 1022.7,820 1045.6,859.7 
		1045.6,905.7 1022.7,945.4 982.9,968.4 	"/>
</g>
<g id="_x31_8p">
	<polygon class="st1" points="1085.4,882.7 1045.6,859.7 1022.7,820 1022.7,774.1 1045.6,734.3 1085.4,711.3 1131.3,711.3 
		1171.1,734.3 1194,774.1 1194,820 1171.1,859.7 1131.3,882.7 	"/>
</g>
<g id="_x31_7p">
	<polygon class="st1" points="788.6,882.7 748.8,859.7 725.9,820 725.9,774.1 748.8,734.3 788.6,711.3 834.5,711.3 874.3,734.3 
		897.2,774.1 897.2,820 874.3,859.7 834.5,882.7 	"/>
</g>
<g id="_x31_6p">
	<polygon class="st1" points="1233.8,797 1194,774.1 1171.1,734.3 1171.1,688.4 1194,648.6 1233.8,625.7 1279.7,625.7 1319.5,648.6 
		1342.4,688.4 1342.4,734.3 1319.5,774.1 1279.7,797 	"/>
</g>
<g id="_x31_5p">
	<polygon class="st1" points="937,797 897.2,774.1 874.3,734.3 874.3,688.4 897.2,648.6 937,625.7 982.9,625.7 1022.7,648.6 
		1045.6,688.4 1045.6,734.3 1022.7,774.1 982.9,797 	"/>
</g>
<g id="_x31_4p">
	<polygon class="st1" points="640.2,797 600.4,774.1 577.5,734.3 577.5,688.4 600.4,648.6 640.2,625.7 686.1,625.7 725.9,648.6 
		748.8,688.4 748.8,734.3 725.9,774.1 686.1,797 	"/>
</g>
<g id="_x31_3p">
	<polygon class="st1" points="1085.4,711.3 1045.6,688.4 1022.7,648.6 1022.7,602.7 1045.6,563 1085.4,540 1131.3,540 1171.1,563 
		1194,602.7 1194,648.6 1171.1,688.4 1131.3,711.3 	"/>
</g>
<g id="_x31_2p">
	<polygon class="st1" points="788.6,711.3 748.8,688.4 725.9,648.6 725.9,602.7 748.8,563 788.6,540 834.5,540 874.3,563 
		897.2,602.7 897.2,648.6 874.3,688.4 834.5,711.3 	"/>
</g>
<g id="_x31_1p">
	<polygon class="st1" points="1233.8,625.7 1194,602.7 1171.1,563 1171.1,517 1194,477.3 1233.8,454.3 1279.7,454.3 1319.5,477.3 
		1342.4,517 1342.4,563 1319.5,602.7 1279.7,625.7 	"/>
</g>
<g id="_x31_0p">
	<polygon class="st1" points="937,625.7 897.2,602.7 874.3,563 874.3,517 897.2,477.3 937,454.3 982.9,454.3 1022.7,477.3 
		1045.6,517 1045.6,563 1022.7,602.7 982.9,625.7 	"/>
</g>
<g id="_x39_p">
	<polygon class="st1" points="640.2,625.7 600.4,602.7 577.5,563 577.5,517 600.4,477.3 640.2,454.3 686.1,454.3 725.9,477.3 
		748.9,517 748.9,563 725.9,602.7 686.1,625.7 	"/>
</g>
<g id="_x38_p">
	<polygon class="st1" points="1085.4,540 1045.6,517 1022.7,477.3 1022.7,431.4 1045.6,391.6 1085.4,368.6 1131.3,368.6 
		1171.1,391.6 1194,431.4 1194,477.3 1171.1,517 1131.3,540 	"/>
</g>
<g id="_x37_p">
	<polygon class="st1" points="788.6,540 748.8,517 725.9,477.3 725.9,431.4 748.8,391.6 788.6,368.6 834.5,368.6 874.3,391.6 
		897.2,431.4 897.2,477.3 874.3,517 834.5,540 	"/>
</g>
<g id="_x36_p">
	<polygon class="st1" points="1233.8,454.3 1194,431.4 1171.1,391.6 1171.1,345.7 1194,305.9 1233.8,283 1279.7,283 1319.5,305.9 
		1342.4,345.7 1342.4,391.6 1319.5,431.4 1279.7,454.3 	"/>
</g>
<g id="_x35_p">
	<polygon class="st1" points="937,454.3 897.2,431.4 874.3,391.6 874.3,345.7 897.2,305.9 937,283 982.9,283 1022.7,305.9 
		1045.6,345.7 1045.6,391.6 1022.7,431.4 982.9,454.3 	"/>
</g>
<g id="_x34_p">
	<polygon class="st1" points="640.2,454.3 600.4,431.4 577.5,391.6 577.5,345.7 600.4,305.9 640.2,283 686.1,283 725.9,305.9 
		748.9,345.7 748.9,391.6 725.9,431.4 686.1,454.3 	"/>
</g>
<g id="_x33_p">
	<polygon class="st1" points="1085.4,368.6 1045.6,345.7 1022.7,305.9 1022.7,260 1045.6,220.3 1085.4,197.3 1131.3,197.3 
		1171.1,220.3 1194,260 1194,305.9 1171.1,345.7 1131.3,368.6 	"/>
</g>
<g id="_x32_p">
	<polygon class="st1" points="788.6,368.6 748.8,345.7 725.9,305.9 725.9,260 748.8,220.3 788.6,197.3 834.5,197.3 874.3,220.3 
		897.2,260 897.2,305.9 874.3,345.7 834.5,368.6 	"/>
</g>
<g id="_x31_p">
	<polygon class="st1" points="937,283 897.2,260 874.3,220.3 874.3,174.3 897.2,134.6 937,111.6 982.9,111.6 1022.7,134.6 
		1045.6,174.3 1045.6,220.3 1022.7,260 982.9,283 	"/>
</g>
<g id="blue_x5F_grid">
	<polygon class="st2" points="640.2,797 600.4,774.1 577.5,734.3 577.5,688.4 600.4,648.6 640.2,625.7 686.1,625.7 725.9,648.6 
		748.8,688.4 748.8,734.3 725.9,774.1 686.1,797 	"/>
	<polygon class="st2" points="748.8,734.3 748.8,688.4 788.6,711.3 	"/>
	<polygon class="st2" points="788.6,882.7 748.8,859.7 725.9,820 725.9,774.1 748.8,734.3 788.6,711.3 834.5,711.3 874.3,734.3 
		897.2,774.1 897.2,820 874.3,859.7 834.5,882.7 	"/>
	<polygon class="st2" points="897.2,820 897.2,774.1 937,797 	"/>
	<polygon class="st2" points="937,968.4 897.2,945.4 874.3,905.7 874.3,859.7 897.2,820 937,797 982.9,797 1022.7,820 1045.6,859.7 
		1045.6,905.7 1022.7,945.4 982.9,968.4 	"/>
	<polyline class="st2" points="1045.6,905.7 1045.6,859.7 1085.4,882.7 	"/>
	<polyline class="st2" points="834.5,882.7 874.3,859.7 874.3,905.7 	"/>
	<line class="st2" x1="982.9" y1="968.4" x2="1022.7" y2="945.4"/>
	<polygon class="st2" points="640.2,454.3 600.4,431.4 577.5,391.6 577.5,345.7 600.4,305.9 640.2,283 686.1,283 725.9,305.9 
		748.9,345.7 748.9,391.6 725.9,431.4 686.1,454.3 	"/>
	<polygon class="st2" points="748.9,391.6 748.9,345.7 788.6,368.6 	"/>
	<polygon class="st2" points="640.2,625.7 600.4,602.7 577.5,563 577.5,517 600.4,477.3 640.2,454.3 686.1,454.3 725.9,477.3 
		748.9,517 748.9,563 725.9,602.7 686.1,625.7 	"/>
	<polygon class="st2" points="788.6,540 748.8,517 725.9,477.3 725.9,431.4 748.8,391.6 788.6,368.6 834.5,368.6 874.3,391.6 
		897.2,431.4 897.2,477.3 874.3,517 834.5,540 	"/>
	<polygon class="st2" points="748.9,563 748.9,517 788.6,540 	"/>
	<polygon class="st2" points="897.2,477.3 897.2,431.4 937,454.3 	"/>
	<polygon class="st2" points="725.9,477.3 686.1,454.3 725.9,431.4 	"/>
	<polygon class="st2" points="725.9,648.6 686.1,625.7 725.9,602.7 	"/>
	<polygon class="st2" points="788.6,711.3 748.8,688.4 725.9,648.6 725.9,602.7 748.8,563 788.6,540 834.5,540 874.3,563 
		897.2,602.7 897.2,648.6 874.3,688.4 834.5,711.3 	"/>
	<polygon class="st2" points="937,625.7 897.2,602.7 874.3,563 874.3,517 897.2,477.3 937,454.3 982.9,454.3 1022.7,477.3 
		1045.6,517 1045.6,563 1022.7,602.7 982.9,625.7 	"/>
	<polygon class="st2" points="897.2,648.6 897.2,602.7 937,625.7 	"/>
	<polygon class="st2" points="1045.6,563 1045.6,517 1085.4,540 	"/>
	<polygon class="st2" points="874.3,563 834.5,540 874.3,517 	"/>
	<polygon class="st2" points="874.3,734.3 834.5,711.3 874.3,688.4 	"/>
	<polygon class="st2" points="937,797 897.2,774.1 874.3,734.3 874.3,688.4 897.2,648.6 937,625.7 982.9,625.7 1022.7,648.6 
		1045.6,688.4 1045.6,734.3 1022.7,774.1 982.9,797 	"/>
	<polygon class="st2" points="1085.4,711.3 1045.6,688.4 1022.7,648.6 1022.7,602.7 1045.6,563 1085.4,540 1131.3,540 1171.1,563 
		1194,602.7 1194,648.6 1171.1,688.4 1131.3,711.3 	"/>
	<polygon class="st2" points="1045.6,734.3 1045.6,688.4 1085.4,711.3 	"/>
	<polygon class="st2" points="1194,648.6 1194,602.7 1233.8,625.7 	"/>
	<polygon class="st2" points="1022.7,648.6 982.9,625.7 1022.7,602.7 	"/>
	<polygon class="st2" points="1022.7,820 982.9,797 1022.7,774.1 	"/>
	<polygon class="st2" points="1085.4,882.7 1045.6,859.7 1022.7,820 1022.7,774.1 1045.6,734.3 1085.4,711.3 1131.3,711.3 
		1171.1,734.3 1194,774.1 1194,820 1171.1,859.7 1131.3,882.7 	"/>
	<polygon class="st2" points="1233.8,797 1194,774.1 1171.1,734.3 1171.1,688.4 1194,648.6 1233.8,625.7 1279.7,625.7 1319.5,648.6 
		1342.4,688.4 1342.4,734.3 1319.5,774.1 1279.7,797 	"/>
	<polygon class="st2" points="1171.1,734.3 1131.3,711.3 1171.1,688.4 	"/>
	<line class="st2" x1="937" y1="111.6" x2="897.2" y2="134.6"/>
	<polygon class="st2" points="788.6,368.6 748.8,345.7 725.9,305.9 725.9,260 748.8,220.3 788.6,197.3 834.5,197.3 874.3,220.3 
		897.2,260 897.2,305.9 874.3,345.7 834.5,368.6 	"/>
	<polygon class="st2" points="937,283 897.2,260 874.3,220.3 874.3,174.3 897.2,134.6 937,111.6 982.9,111.6 1022.7,134.6 
		1045.6,174.3 1045.6,220.3 1022.7,260 982.9,283 	"/>
	<polygon class="st2" points="897.2,305.9 897.2,260 937,283 	"/>
	<polyline class="st2" points="1085.4,197.3 1045.6,220.3 1045.6,174.3 	"/>
	<polyline class="st2" points="874.3,174.3 874.3,220.3 834.5,197.3 	"/>
	<polygon class="st2" points="874.3,391.6 834.5,368.6 874.3,345.7 	"/>
	<polygon class="st2" points="937,454.3 897.2,431.4 874.3,391.6 874.3,345.7 897.2,305.9 937,283 982.9,283 1022.7,305.9 
		1045.6,345.7 1045.6,391.6 1022.7,431.4 982.9,454.3 	"/>
	<polygon class="st2" points="1085.4,368.6 1045.6,345.7 1022.7,305.9 1022.7,260 1045.6,220.3 1085.4,197.3 1131.3,197.3 
		1171.1,220.3 1194,260 1194,305.9 1171.1,345.7 1131.3,368.6 	"/>
	<polygon class="st2" points="1045.6,391.6 1045.6,345.7 1085.4,368.6 	"/>
	<polygon class="st2" points="1022.7,305.9 982.9,283 1022.7,260 	"/>
	<polygon class="st2" points="1022.7,477.3 982.9,454.3 1022.7,431.4 	"/>
	<polygon class="st2" points="1085.4,540 1045.6,517 1022.7,477.3 1022.7,431.4 1045.6,391.6 1085.4,368.6 1131.3,368.6 
		1171.1,391.6 1194,431.4 1194,477.3 1171.1,517 1131.3,540 	"/>
	<polygon class="st2" points="1233.8,454.3 1194,431.4 1171.1,391.6 1171.1,345.7 1194,305.9 1233.8,283 1279.7,283 1319.5,305.9 
		1342.4,345.7 1342.4,391.6 1319.5,431.4 1279.7,454.3 	"/>
	<polygon class="st2" points="1194,477.3 1194,431.4 1233.8,454.3 	"/>
	<polygon class="st2" points="1171.1,391.6 1131.3,368.6 1171.1,345.7 	"/>
	<polygon class="st2" points="1171.1,563 1131.3,540 1171.1,517 	"/>
	<polygon class="st2" points="1233.8,625.7 1194,602.7 1171.1,563 1171.1,517 1194,477.3 1233.8,454.3 1279.7,454.3 1319.5,477.3 
		1342.4,517 1342.4,563 1319.5,602.7 1279.7,625.7 	"/>
	<line class="st2" x1="1022.7" y1="134.6" x2="982.9" y2="111.6"/>
	<path class="st2" d="M564.3,368.7h98.9 M663.2,368.7L613.7,283 M514.8,283l148.4,85.7 M663.2,368.7V197.3"/>
	<path class="st2" d="M663.2,368.6l-148.4,85.7 M613.7,454.3l49.5-85.7 M564.3,540h98.9 M663.2,540l-49.5-85.7 M514.8,454.3
		L663.2,540 M663.2,540V368.6"/>
	<path class="st2" d="M663.2,540l-148.4,85.7 M613.7,625.7l49.5-85.7 M564.3,711.4h98.9 M663.2,711.4l-49.5-85.7 M514.8,625.7
		l148.4,85.7 M663.2,711.4V540"/>
	<path class="st2" d="M663.2,711.3L514.8,797 M613.7,797l49.5-85.7 M663.2,882.7V711.3"/>
	<path class="st2" d="M811.6,111.6 M762.1,197.3 M811.6,111.6 M811.6,111.6V283 M762.1,197.3l49.5,85.7 M811.6,111.6 M811.6,111.6
		 M960,25.9 M910.5,111.6 M811.6,111.6 M960,25.9 M910.5,111.6 M811.6,111.6 M861.1,197.3 M861.1,197.3L811.6,283 M861.1,197.3H960
		 M960,197.3l-49.5-85.7 M811.6,111.6L960,197.3 M960,197.3V25.9"/>
	<path class="st2" d="M811.6,283h-98.9 M811.6,283l-49.5,85.7 M811.6,283l-148.4,85.7 M663.2,368.6l98.9,0 M663.2,368.6l49.5-85.7
		 M811.6,283v171.3 M762.1,368.6l49.5,85.7 M811.6,283l-148.4-85.7 M960,197.3L811.6,283 M811.6,283h98.9 M910.5,283l49.5-85.7
		 M861.1,368.7L811.6,283 M861.1,368.7l-49.5,85.7 M861.1,368.7H960 M960,368.7L910.5,283 M811.6,283L960,368.7 M960,368.7V197.3"/>
	<path class="st2" d="M811.6,454.3l-98.9,0 M811.6,454.3L762.1,540 M811.6,454.3L663.2,540 M663.2,540l98.9,0 M663.2,540l49.5-85.7
		 M811.6,454.3v171.3 M762.1,540l49.5,85.7 M712.7,454.3l-49.5-85.7 M811.6,454.3l-148.4-85.7 M960,368.6l-148.4,85.7 M811.6,454.3
		h98.9 M910.5,454.3l49.5-85.7 M861.1,540l-49.5-85.7 M861.1,540l-49.5,85.7 M861.1,540H960 M960,540l-49.5-85.7 M811.6,454.3
		L960,540 M960,540V368.6"/>
	<path class="st2" d="M811.6,625.7l-98.9,0 M811.6,625.7l-49.5,85.7 M811.6,625.7l-148.4,85.7 M663.2,711.3l98.9,0 M663.2,711.3
		l49.5-85.7 M811.6,625.7V797 M762.1,711.3l49.5,85.7 M712.7,625.7L663.2,540 M811.6,625.7L663.2,540 M960,540l-148.4,85.7
		 M811.6,625.7h98.9 M910.5,625.7L960,540 M861.1,711.4l-49.5-85.7 M861.1,711.4L811.6,797 M861.1,711.4H960 M960,711.4l-49.5-85.7
		 M811.6,625.7L960,711.4 M960,711.4V540"/>
	<path class="st2" d="M811.6,797l-98.9,0 M811.6,797l-49.5,85.7 M811.6,797l-148.4,85.7 M811.6,797v171.3 M811.6,968.4 M762.1,882.7
		 M712.7,797l-49.5-85.7 M811.6,797l-148.4-85.7 M960,711.3L811.6,797 M811.6,797h98.9 M910.5,797l49.5-85.7 M861.1,882.7L811.6,797
		 M811.6,968.4 M861.1,882.7 M861.1,882.7H960 M960,882.7L910.5,797 M811.6,797L960,882.7 M960,882.7V711.3"/>
	<path class="st2" d="M811.6,968.4 M811.6,968.4 M960,882.7l-148.4,85.7 M910.5,968.4 M811.6,968.4 M910.5,968.4l49.5-85.7
		 M910.5,968.4 M960,1054.1 M960,1054.1 M811.6,968.4 M960,1054.1V882.7"/>
	<path class="st2" d="M1009.5,111.6 M1108.4,111.6 M1058.9,197.3 M1108.4,111.6 M1108.4,111.6L960,197.3 M960,197.3l98.9,0
		 M960,197.3l49.5-85.7 M1108.4,111.6V283 M1058.9,197.3l49.5,85.7 M960,25.9 M1009.5,111.6 M960,25.9 M1108.4,111.6 M1108.4,111.6
		 M1108.4,111.6 M1108.4,111.6 M1157.9,197.3 M1157.9,197.3l-49.5,85.7"/>
	<path class="st2" d="M1108.4,283h-98.9 M1108.4,283l-49.5,85.7 M1108.4,283L960,368.6 M960,368.6l98.9,0 M960,368.6l49.5-85.7
		 M1108.4,283v171.3 M1058.9,368.6l49.5,85.7 M1009.5,283L960,197.3 M1108.4,283L960,197.3 M1256.8,197.3L1108.4,283 M1108.4,283
		h98.9 M1157.9,368.7l-49.5-85.7 M1157.9,368.7l-49.5,85.7 M1157.9,368.7h98.9 M1256.8,368.7l-49.5-85.7 M1108.4,283l148.4,85.7
		 M1256.8,368.7l0-171.4"/>
	<path class="st2" d="M1108.4,454.3l-98.9,0 M1108.4,454.3l-49.5,85.7 M1108.4,454.3L960,540 M960,540l98.9,0 M960,540l49.5-85.7
		 M1108.4,454.3v171.3 M1058.9,540l49.5,85.7 M1009.5,454.3L960,368.6 M1108.4,454.3L960,368.6 M1256.8,368.6l-148.4,85.7
		 M1108.4,454.3h98.9 M1207.3,454.3l49.5-85.7 M1157.9,540l-49.5-85.7 M1157.9,540l-49.5,85.7 M1157.9,540h98.9 M1256.8,540
		l-49.5-85.7 M1108.4,454.3l148.4,85.7 M1256.8,540l0-171.4"/>
	<path class="st2" d="M1108.4,625.7l-98.9,0 M1108.4,625.7l-49.5,85.7 M1108.4,625.7L960,711.3 M960,711.3l98.9,0 M960,711.3
		l49.5-85.7 M1108.4,625.7V797 M1058.9,711.3l49.5,85.7 M1009.5,625.7L960,540 M1108.4,625.7L960,540 M1256.8,540l-148.4,85.7
		 M1108.4,625.7h98.9 M1207.3,625.7l49.5-85.7 M1157.9,711.4l-49.5-85.7 M1157.9,711.4l-49.5,85.7 M1157.9,711.4h98.9 M1256.8,711.4
		l-49.5-85.7 M1108.4,625.7l148.4,85.7 M1256.8,711.4l0-171.4"/>
	<path class="st2" d="M1108.4,797l-98.9,0 M1108.4,797l-49.5,85.7 M1108.4,797L960,882.7 M960,882.7l98.9,0 M960,882.7l49.5-85.7
		 M1108.4,797v171.3 M1108.4,968.4 M1058.9,882.7 M1009.5,797L960,711.3 M1108.4,797L960,711.3 M1256.8,711.3L1108.4,797
		 M1108.4,797h98.9 M1207.3,797l49.5-85.7 M1157.9,882.7l-49.5-85.7 M1108.4,968.4 M1157.9,882.7 M1108.4,797l148.4,85.7
		 M1256.8,882.7l0-171.4"/>
	<path class="st2" d="M1009.5,968.4 M1108.4,968.4 M960,1054 M1108.4,968.4 M1009.5,968.4 M960,1054 M1009.5,968.4L960,882.7
		 M1108.4,968.4L960,882.7 M1108.4,968.4 M1108.4,968.4"/>
	<path class="st2" d="M1405.2,283l-148.4,85.7 M1256.8,368.6l98.9,0 M1256.8,368.6l49.5-85.7"/>
	<path class="st2" d="M1405.2,454.3L1256.8,540 M1256.8,540l98.9,0 M1256.8,540l49.5-85.7 M1405.2,625.7 M1405.2,454.3
		 M1306.3,454.3l-49.5-85.7 M1405.2,454.3l-148.4-85.7"/>
	<path class="st2" d="M1306.3,625.7 M1405.2,625.7 M1405.2,625.7l-148.4,85.7 M1256.8,711.3l98.9,0 M1256.8,711.3l49.5-85.7
		 M1306.3,625.7l-49.5-85.7 M1405.2,625.7L1256.8,540"/>
	<path class="st2" d="M1306.3,797l-49.5-85.7 M1405.2,797l-148.4-85.7"/>
</g>
<g id="white_x5F_grid">
	<line class="st0" x1="1119.3" y1="282.9" x2="1207.3" y2="283"/>
	<line class="st0" x1="1097.5" y1="282.9" x2="1009.5" y2="283"/>
	<line class="st0" x1="1113.8" y1="273.5" x2="1157.9" y2="197.3"/>
	<line class="st0" x1="1102.9" y1="273.4" x2="1058.9" y2="197.3"/>
	<line class="st0" x1="1103" y1="292.4" x2="1058.9" y2="368.6"/>
	<line class="st0" x1="1113.8" y1="292.4" x2="1157.9" y2="368.6"/>
	<line class="st0" x1="674.1" y1="368.6" x2="762.1" y2="368.6"/>
	<line class="st0" x1="652.3" y1="368.6" x2="564.3" y2="368.6"/>
	<line class="st0" x1="668.6" y1="359.2" x2="712.7" y2="283"/>
	<line class="st0" x1="657.7" y1="359.1" x2="613.7" y2="283"/>
	<line class="st0" x1="657.8" y1="378" x2="613.7" y2="454.3"/>
	<line class="st0" x1="668.6" y1="378" x2="712.7" y2="454.3"/>
	<line class="st0" x1="970.9" y1="368.6" x2="1058.9" y2="368.6"/>
	<line class="st0" x1="949.1" y1="368.6" x2="861.1" y2="368.7"/>
	<line class="st0" x1="965.4" y1="359.2" x2="1009.5" y2="283"/>
	<line class="st0" x1="954.5" y1="359.1" x2="910.5" y2="283"/>
	<line class="st0" x1="954.6" y1="378" x2="910.5" y2="454.3"/>
	<line class="st0" x1="965.4" y1="378" x2="1009.5" y2="454.3"/>
	<line class="st0" x1="1267.7" y1="368.6" x2="1355.7" y2="368.6"/>
	<line class="st0" x1="1245.9" y1="368.6" x2="1157.9" y2="368.6"/>
	<line class="st0" x1="1262.2" y1="359.2" x2="1306.3" y2="283"/>
	<line class="st0" x1="1251.3" y1="359.1" x2="1207.3" y2="283"/>
	<line class="st0" x1="1251.4" y1="378" x2="1207.3" y2="454.3"/>
	<line class="st0" x1="1262.2" y1="378" x2="1306.3" y2="454.3"/>
	<line class="st0" x1="822.5" y1="282.9" x2="910.5" y2="283"/>
	<line class="st0" x1="800.7" y1="282.9" x2="712.7" y2="283"/>
	<line class="st0" x1="817" y1="273.5" x2="861.1" y2="197.3"/>
	<line class="st0" x1="806.1" y1="273.4" x2="762.1" y2="197.3"/>
	<line class="st0" x1="806.2" y1="292.4" x2="762.1" y2="368.6"/>
	<line class="st0" x1="817" y1="292.4" x2="861.1" y2="368.6"/>
	<line class="st0" x1="822.5" y1="454.3" x2="910.5" y2="454.3"/>
	<line class="st0" x1="800.7" y1="454.3" x2="712.7" y2="454.3"/>
	<line class="st0" x1="817" y1="444.9" x2="861.1" y2="368.6"/>
	<line class="st0" x1="806.1" y1="444.7" x2="762.1" y2="368.6"/>
	<line class="st0" x1="806.2" y1="463.7" x2="762.1" y2="540"/>
	<line class="st0" x1="817" y1="463.7" x2="861.1" y2="540"/>
	<line class="st0" x1="1119.3" y1="454.3" x2="1207.3" y2="454.3"/>
	<line class="st0" x1="1097.5" y1="454.3" x2="1009.5" y2="454.3"/>
	<line class="st0" x1="1113.8" y1="444.9" x2="1157.9" y2="368.6"/>
	<line class="st0" x1="1102.9" y1="444.7" x2="1058.9" y2="368.6"/>
	<line class="st0" x1="1103" y1="463.7" x2="1058.9" y2="540"/>
	<line class="st0" x1="1113.8" y1="463.7" x2="1157.9" y2="540"/>
	<line class="st0" x1="674.1" y1="540" x2="762.1" y2="540"/>
	<line class="st0" x1="652.3" y1="540" x2="564.3" y2="540"/>
	<line class="st0" x1="668.6" y1="530.6" x2="712.7" y2="454.3"/>
	<line class="st0" x1="657.7" y1="530.4" x2="613.7" y2="454.3"/>
	<line class="st0" x1="657.8" y1="549.4" x2="613.7" y2="625.7"/>
	<line class="st0" x1="668.6" y1="549.4" x2="712.7" y2="625.7"/>
	<line class="st0" x1="970.9" y1="540" x2="1058.9" y2="540"/>
	<line class="st0" x1="949.1" y1="540" x2="861.1" y2="540"/>
	<line class="st0" x1="965.4" y1="530.6" x2="1009.5" y2="454.3"/>
	<line class="st0" x1="954.5" y1="530.4" x2="910.5" y2="454.3"/>
	<line class="st0" x1="954.6" y1="549.4" x2="910.5" y2="625.7"/>
	<line class="st0" x1="965.4" y1="549.4" x2="1009.5" y2="625.7"/>
	<line class="st0" x1="1267.7" y1="540" x2="1355.7" y2="540"/>
	<line class="st0" x1="1245.9" y1="540" x2="1157.9" y2="540"/>
	<line class="st0" x1="1262.2" y1="530.6" x2="1306.3" y2="454.3"/>
	<line class="st0" x1="1251.3" y1="530.4" x2="1207.3" y2="454.3"/>
	<line class="st0" x1="1251.4" y1="549.4" x2="1207.3" y2="625.7"/>
	<line class="st0" x1="1262.2" y1="549.4" x2="1306.3" y2="625.7"/>
	<line class="st0" x1="822.5" y1="625.6" x2="910.5" y2="625.7"/>
	<line class="st0" x1="800.7" y1="625.6" x2="712.7" y2="625.7"/>
	<line class="st0" x1="817" y1="616.2" x2="861.1" y2="540"/>
	<line class="st0" x1="806.1" y1="616.1" x2="762.1" y2="540"/>
	<line class="st0" x1="806.2" y1="635" x2="762.1" y2="711.3"/>
	<line class="st0" x1="817" y1="635" x2="861.1" y2="711.3"/>
	<line class="st0" x1="1119.3" y1="625.6" x2="1207.3" y2="625.7"/>
	<line class="st0" x1="1097.5" y1="625.6" x2="1009.5" y2="625.7"/>
	<line class="st0" x1="1113.8" y1="616.2" x2="1157.9" y2="540"/>
	<line class="st0" x1="1102.9" y1="616.1" x2="1058.9" y2="540"/>
	<line class="st0" x1="1103" y1="635" x2="1058.9" y2="711.3"/>
	<line class="st0" x1="1113.8" y1="635" x2="1157.9" y2="711.3"/>
	<line class="st0" x1="674.1" y1="711.3" x2="762.1" y2="711.3"/>
	<line class="st0" x1="652.3" y1="711.3" x2="564.3" y2="711.3"/>
	<line class="st0" x1="668.6" y1="701.9" x2="712.7" y2="625.7"/>
	<line class="st0" x1="657.7" y1="701.8" x2="613.7" y2="625.7"/>
	<line class="st0" x1="657.8" y1="720.7" x2="613.7" y2="797"/>
	<line class="st0" x1="668.6" y1="720.7" x2="712.7" y2="797"/>
	<line class="st0" x1="970.9" y1="711.3" x2="1058.9" y2="711.3"/>
	<line class="st0" x1="949.1" y1="711.3" x2="861.1" y2="711.3"/>
	<line class="st0" x1="965.4" y1="701.9" x2="1009.5" y2="625.7"/>
	<line class="st0" x1="954.5" y1="701.8" x2="910.5" y2="625.7"/>
	<line class="st0" x1="954.6" y1="720.7" x2="910.5" y2="797"/>
	<line class="st0" x1="965.4" y1="720.7" x2="1009.5" y2="797"/>
	<line class="st0" x1="1267.7" y1="711.3" x2="1355.7" y2="711.3"/>
	<line class="st0" x1="1245.9" y1="711.3" x2="1157.9" y2="711.3"/>
	<line class="st0" x1="1262.2" y1="701.9" x2="1306.3" y2="625.7"/>
	<line class="st0" x1="1251.3" y1="701.8" x2="1207.3" y2="625.7"/>
	<line class="st0" x1="1251.4" y1="720.7" x2="1207.3" y2="797"/>
	<line class="st0" x1="1262.2" y1="720.7" x2="1306.3" y2="797"/>
	<line class="st0" x1="822.5" y1="797" x2="910.5" y2="797"/>
	<line class="st0" x1="800.7" y1="797" x2="712.7" y2="797"/>
	<line class="st0" x1="817" y1="787.6" x2="861.1" y2="711.3"/>
	<line class="st0" x1="806.1" y1="787.5" x2="762.1" y2="711.3"/>
	<line class="st0" x1="806.2" y1="806.4" x2="762.1" y2="882.7"/>
	<line class="st0" x1="817" y1="806.4" x2="861.1" y2="882.7"/>
	<line class="st0" x1="1119.3" y1="797" x2="1207.3" y2="797"/>
	<line class="st0" x1="1097.5" y1="797" x2="1009.5" y2="797"/>
	<line class="st0" x1="1113.8" y1="787.6" x2="1157.9" y2="711.3"/>
	<line class="st0" x1="1102.9" y1="787.5" x2="1058.9" y2="711.3"/>
	<line class="st0" x1="1103" y1="806.4" x2="1058.9" y2="882.7"/>
	<line class="st0" x1="1113.8" y1="806.4" x2="1157.9" y2="882.7"/>
	<line class="st0" x1="970.9" y1="882.7" x2="1058.9" y2="882.7"/>
	<line class="st0" x1="949.1" y1="882.7" x2="861.1" y2="882.7"/>
	<line class="st0" x1="965.4" y1="873.3" x2="1009.5" y2="797"/>
	<line class="st0" x1="954.5" y1="873.1" x2="910.5" y2="797"/>
	<line class="st0" x1="954.6" y1="892.1" x2="910.5" y2="968.4"/>
	<line class="st0" x1="965.4" y1="892.1" x2="1009.5" y2="968.4"/>
	<line class="st0" x1="970.9" y1="197.3" x2="1058.9" y2="197.3"/>
	<line class="st0" x1="949.1" y1="197.3" x2="861.1" y2="197.3"/>
	<line class="st0" x1="965.4" y1="187.9" x2="1009.5" y2="111.6"/>
	<line class="st0" x1="954.5" y1="187.7" x2="910.5" y2="111.6"/>
	<line class="st0" x1="954.6" y1="206.7" x2="910.5" y2="283"/>
	<line class="st0" x1="965.4" y1="206.7" x2="1009.5" y2="283"/>
	<line class="st0" x1="970.9" y1="197.3" x2="1058.9" y2="197.3"/>
	<line class="st0" x1="949.1" y1="197.3" x2="861.1" y2="197.3"/>
	<line class="st0" x1="965.4" y1="187.9" x2="1009.5" y2="111.6"/>
	<line class="st0" x1="954.5" y1="187.7" x2="910.5" y2="111.6"/>
	<line class="st0" x1="954.6" y1="206.7" x2="910.5" y2="283"/>
	<line class="st0" x1="965.4" y1="206.7" x2="1009.5" y2="283"/>
</g>
<g id="red_x5F_grid">
	<line class="st3" x1="960" y1="111.6" x2="960" y2="197.3"/>
	<line class="st3" x1="960" y1="283" x2="960" y2="197.3"/>
	<line class="st3" x1="874.3" y1="197.3" x2="960" y2="197.3"/>
	<line class="st3" x1="1045.6" y1="197.3" x2="960" y2="197.3"/>
	<line class="st3" x1="885.8" y1="240.1" x2="960" y2="197.3"/>
	<line class="st3" x1="1034.2" y1="154.5" x2="960" y2="197.3"/>
	<line class="st3" x1="1034.2" y1="240.1" x2="960" y2="197.3"/>
	<line class="st3" x1="885.8" y1="154.5" x2="960" y2="197.3"/>
	<line class="st3" x1="1002.8" y1="271.5" x2="960" y2="197.3"/>
	<line class="st3" x1="917.1" y1="123.1" x2="960" y2="197.3"/>
	<line class="st3" x1="917.1" y1="271.5" x2="960" y2="197.3"/>
	<line class="st3" x1="1002.8" y1="123.1" x2="960" y2="197.3"/>
	<line class="st3" x1="960" y1="283" x2="960" y2="368.6"/>
	<line class="st3" x1="960" y1="454.3" x2="960" y2="368.6"/>
	<line class="st3" x1="874.3" y1="368.7" x2="960" y2="368.7"/>
	<line class="st3" x1="1045.6" y1="368.7" x2="960" y2="368.7"/>
	<line class="st3" x1="885.8" y1="411.5" x2="960" y2="368.7"/>
	<line class="st3" x1="1034.2" y1="325.8" x2="960" y2="368.7"/>
	<line class="st3" x1="1034.2" y1="411.5" x2="960" y2="368.7"/>
	<line class="st3" x1="885.8" y1="325.8" x2="960" y2="368.7"/>
	<line class="st3" x1="1002.8" y1="442.8" x2="960" y2="368.7"/>
	<line class="st3" x1="917.1" y1="294.5" x2="960" y2="368.7"/>
	<line class="st3" x1="917.1" y1="442.9" x2="960" y2="368.7"/>
	<line class="st3" x1="1002.8" y1="294.5" x2="960" y2="368.7"/>
	<line class="st3" x1="811.6" y1="197.2" x2="811.6" y2="282.9"/>
	<line class="st3" x1="811.6" y1="368.6" x2="811.6" y2="282.9"/>
	<line class="st3" x1="725.9" y1="282.9" x2="811.6" y2="282.9"/>
	<line class="st3" x1="897.2" y1="282.9" x2="811.6" y2="282.9"/>
	<line class="st3" x1="737.4" y1="325.7" x2="811.6" y2="282.9"/>
	<line class="st3" x1="885.8" y1="240.1" x2="811.6" y2="282.9"/>
	<line class="st3" x1="885.8" y1="325.7" x2="811.6" y2="282.9"/>
	<line class="st3" x1="737.4" y1="240.1" x2="811.6" y2="282.9"/>
	<line class="st3" x1="854.4" y1="357.1" x2="811.6" y2="282.9"/>
	<line class="st3" x1="768.7" y1="208.7" x2="811.6" y2="282.9"/>
	<line class="st3" x1="768.7" y1="357.1" x2="811.6" y2="282.9"/>
	<line class="st3" x1="854.4" y1="208.7" x2="811.6" y2="282.9"/>
	<line class="st3" x1="1108.4" y1="197.2" x2="1108.4" y2="282.9"/>
	<line class="st3" x1="1108.4" y1="368.6" x2="1108.4" y2="282.9"/>
	<line class="st3" x1="1022.7" y1="282.9" x2="1108.4" y2="282.9"/>
	<line class="st3" x1="1194.1" y1="282.9" x2="1108.4" y2="282.9"/>
	<line class="st3" x1="1034.2" y1="325.7" x2="1108.4" y2="282.9"/>
	<line class="st3" x1="1182.6" y1="240.1" x2="1108.4" y2="282.9"/>
	<line class="st3" x1="1182.6" y1="325.7" x2="1108.4" y2="282.9"/>
	<line class="st3" x1="1034.2" y1="240.1" x2="1108.4" y2="282.9"/>
	<line class="st3" x1="1151.2" y1="357.1" x2="1108.4" y2="282.9"/>
	<line class="st3" x1="1065.6" y1="208.7" x2="1108.4" y2="282.9"/>
	<line class="st3" x1="1065.6" y1="357.1" x2="1108.4" y2="282.9"/>
	<line class="st3" x1="1151.2" y1="208.7" x2="1108.4" y2="282.9"/>
	<line class="st3" x1="663.2" y1="283" x2="663.2" y2="368.6"/>
	<line class="st3" x1="663.2" y1="454.3" x2="663.2" y2="368.6"/>
	<line class="st3" x1="577.5" y1="368.7" x2="663.2" y2="368.7"/>
	<line class="st3" x1="748.9" y1="368.7" x2="663.2" y2="368.7"/>
	<line class="st3" x1="589" y1="411.5" x2="663.2" y2="368.7"/>
	<line class="st3" x1="737.4" y1="325.8" x2="663.2" y2="368.7"/>
	<line class="st3" x1="737.4" y1="411.5" x2="663.2" y2="368.7"/>
	<line class="st3" x1="589" y1="325.8" x2="663.2" y2="368.7"/>
	<line class="st3" x1="706" y1="442.8" x2="663.2" y2="368.7"/>
	<line class="st3" x1="620.3" y1="294.5" x2="663.2" y2="368.7"/>
	<line class="st3" x1="620.3" y1="442.8" x2="663.2" y2="368.7"/>
	<line class="st3" x1="706" y1="294.5" x2="663.2" y2="368.7"/>
	<line class="st3" x1="663.2" y1="454.3" x2="663.2" y2="540"/>
	<line class="st3" x1="663.2" y1="625.7" x2="663.2" y2="540"/>
	<line class="st3" x1="577.5" y1="540" x2="663.2" y2="540"/>
	<line class="st3" x1="748.9" y1="540" x2="663.2" y2="540"/>
	<line class="st3" x1="589" y1="582.8" x2="663.2" y2="540"/>
	<line class="st3" x1="737.4" y1="497.2" x2="663.2" y2="540"/>
	<line class="st3" x1="737.4" y1="582.8" x2="663.2" y2="540"/>
	<line class="st3" x1="589" y1="497.2" x2="663.2" y2="540"/>
	<line class="st3" x1="706" y1="614.2" x2="663.2" y2="540"/>
	<line class="st3" x1="620.3" y1="465.8" x2="663.2" y2="540"/>
	<line class="st3" x1="620.3" y1="614.2" x2="663.2" y2="540"/>
	<line class="st3" x1="706" y1="465.8" x2="663.2" y2="540"/>
	<line class="st3" x1="811.6" y1="368.6" x2="811.6" y2="454.3"/>
	<line class="st3" x1="811.6" y1="539.9" x2="811.6" y2="454.3"/>
	<line class="st3" x1="725.9" y1="454.3" x2="811.6" y2="454.3"/>
	<line class="st3" x1="897.3" y1="454.3" x2="811.6" y2="454.3"/>
	<line class="st3" x1="737.4" y1="497.1" x2="811.6" y2="454.3"/>
	<line class="st3" x1="885.8" y1="411.4" x2="811.6" y2="454.3"/>
	<line class="st3" x1="885.8" y1="497.1" x2="811.6" y2="454.3"/>
	<line class="st3" x1="737.4" y1="411.4" x2="811.6" y2="454.3"/>
	<line class="st3" x1="854.5" y1="528.5" x2="811.6" y2="454.3"/>
	<line class="st3" x1="768.8" y1="380.1" x2="811.6" y2="454.3"/>
	<line class="st3" x1="768.8" y1="528.5" x2="811.6" y2="454.3"/>
	<line class="st3" x1="854.5" y1="380.1" x2="811.6" y2="454.3"/>
	<line class="st3" x1="960" y1="797" x2="960" y2="711.3"/>
	<line class="st3" x1="960" y1="625.6" x2="960" y2="711.3"/>
	<line class="st3" x1="1045.7" y1="711.3" x2="960" y2="711.3"/>
	<line class="st3" x1="874.4" y1="711.3" x2="960" y2="711.3"/>
	<line class="st3" x1="1034.2" y1="668.5" x2="960" y2="711.3"/>
	<line class="st3" x1="885.8" y1="754.1" x2="960" y2="711.3"/>
	<line class="st3" x1="885.8" y1="668.5" x2="960" y2="711.3"/>
	<line class="st3" x1="1034.2" y1="754.1" x2="960" y2="711.3"/>
	<line class="st3" x1="917.2" y1="637.1" x2="960" y2="711.3"/>
	<line class="st3" x1="1002.9" y1="785.5" x2="960" y2="711.3"/>
	<line class="st3" x1="1002.9" y1="637.1" x2="960" y2="711.3"/>
	<line class="st3" x1="917.2" y1="785.5" x2="960" y2="711.3"/>
	<line class="st3" x1="960" y1="625.6" x2="960" y2="539.9"/>
	<line class="st3" x1="960" y1="454.3" x2="960" y2="539.9"/>
	<line class="st3" x1="1045.7" y1="539.9" x2="960" y2="539.9"/>
	<line class="st3" x1="874.4" y1="539.9" x2="960" y2="539.9"/>
	<line class="st3" x1="1034.2" y1="497.1" x2="960" y2="539.9"/>
	<line class="st3" x1="885.8" y1="582.8" x2="960" y2="539.9"/>
	<line class="st3" x1="885.8" y1="497.1" x2="960" y2="539.9"/>
	<line class="st3" x1="1034.2" y1="582.8" x2="960" y2="539.9"/>
	<line class="st3" x1="917.2" y1="465.7" x2="960" y2="539.9"/>
	<line class="st3" x1="1002.9" y1="614.1" x2="960" y2="539.9"/>
	<line class="st3" x1="1002.9" y1="465.7" x2="960" y2="539.9"/>
	<line class="st3" x1="917.2" y1="614.1" x2="960" y2="539.9"/>
	<line class="st3" x1="1108.4" y1="711.4" x2="1108.4" y2="625.7"/>
	<line class="st3" x1="1108.4" y1="540" x2="1108.4" y2="625.7"/>
	<line class="st3" x1="1194.1" y1="625.7" x2="1108.4" y2="625.7"/>
	<line class="st3" x1="1022.8" y1="625.7" x2="1108.4" y2="625.7"/>
	<line class="st3" x1="1182.6" y1="582.8" x2="1108.4" y2="625.7"/>
	<line class="st3" x1="1034.2" y1="668.5" x2="1108.4" y2="625.7"/>
	<line class="st3" x1="1034.2" y1="582.8" x2="1108.4" y2="625.7"/>
	<line class="st3" x1="1182.6" y1="668.5" x2="1108.4" y2="625.7"/>
	<line class="st3" x1="1065.6" y1="551.5" x2="1108.4" y2="625.7"/>
	<line class="st3" x1="1151.3" y1="699.9" x2="1108.4" y2="625.7"/>
	<line class="st3" x1="1151.3" y1="551.5" x2="1108.4" y2="625.7"/>
	<line class="st3" x1="1065.6" y1="699.9" x2="1108.4" y2="625.7"/>
	<line class="st3" x1="811.6" y1="711.4" x2="811.6" y2="625.7"/>
	<line class="st3" x1="811.6" y1="540" x2="811.6" y2="625.7"/>
	<line class="st3" x1="897.3" y1="625.7" x2="811.6" y2="625.7"/>
	<line class="st3" x1="725.9" y1="625.7" x2="811.6" y2="625.7"/>
	<line class="st3" x1="885.8" y1="582.8" x2="811.6" y2="625.7"/>
	<line class="st3" x1="737.4" y1="668.5" x2="811.6" y2="625.7"/>
	<line class="st3" x1="737.4" y1="582.8" x2="811.6" y2="625.7"/>
	<line class="st3" x1="885.8" y1="668.5" x2="811.6" y2="625.7"/>
	<line class="st3" x1="768.8" y1="551.5" x2="811.6" y2="625.7"/>
	<line class="st3" x1="854.4" y1="699.9" x2="811.6" y2="625.7"/>
	<line class="st3" x1="854.4" y1="551.5" x2="811.6" y2="625.7"/>
	<line class="st3" x1="768.8" y1="699.9" x2="811.6" y2="625.7"/>
	<line class="st3" x1="663.2" y1="625.8" x2="663.2" y2="711.5"/>
	<line class="st3" x1="663.2" y1="797.1" x2="663.2" y2="711.5"/>
	<line class="st3" x1="577.5" y1="711.5" x2="663.2" y2="711.5"/>
	<line class="st3" x1="748.9" y1="711.5" x2="663.2" y2="711.5"/>
	<line class="st3" x1="589" y1="754.3" x2="663.2" y2="711.5"/>
	<line class="st3" x1="737.4" y1="668.6" x2="663.2" y2="711.5"/>
	<line class="st3" x1="737.4" y1="754.3" x2="663.2" y2="711.5"/>
	<line class="st3" x1="589" y1="668.6" x2="663.2" y2="711.5"/>
	<line class="st3" x1="706" y1="785.7" x2="663.2" y2="711.5"/>
	<line class="st3" x1="620.3" y1="637.3" x2="663.2" y2="711.5"/>
	<line class="st3" x1="620.3" y1="785.7" x2="663.2" y2="711.5"/>
	<line class="st3" x1="706" y1="637.3" x2="663.2" y2="711.5"/>
	<line class="st3" x1="960" y1="968.4" x2="960" y2="882.8"/>
	<line class="st3" x1="960" y1="797.1" x2="960" y2="882.8"/>
	<line class="st3" x1="1045.7" y1="882.8" x2="960" y2="882.8"/>
	<line class="st3" x1="874.4" y1="882.8" x2="960" y2="882.8"/>
	<line class="st3" x1="1034.2" y1="839.9" x2="960" y2="882.8"/>
	<line class="st3" x1="885.8" y1="925.6" x2="960" y2="882.8"/>
	<line class="st3" x1="885.8" y1="839.9" x2="960" y2="882.8"/>
	<line class="st3" x1="1034.2" y1="925.6" x2="960" y2="882.8"/>
	<line class="st3" x1="917.2" y1="808.6" x2="960" y2="882.8"/>
	<line class="st3" x1="1002.9" y1="957" x2="960" y2="882.8"/>
	<line class="st3" x1="1002.9" y1="808.6" x2="960" y2="882.8"/>
	<line class="st3" x1="917.2" y1="957" x2="960" y2="882.8"/>
	<line class="st3" x1="811.6" y1="882.8" x2="811.6" y2="797.1"/>
	<line class="st3" x1="811.6" y1="711.5" x2="811.6" y2="797.1"/>
	<line class="st3" x1="897.3" y1="797.1" x2="811.6" y2="797.1"/>
	<line class="st3" x1="725.9" y1="797.1" x2="811.6" y2="797.1"/>
	<line class="st3" x1="885.8" y1="754.3" x2="811.6" y2="797.1"/>
	<line class="st3" x1="737.4" y1="840" x2="811.6" y2="797.1"/>
	<line class="st3" x1="737.4" y1="754.3" x2="811.6" y2="797.1"/>
	<line class="st3" x1="885.8" y1="840" x2="811.6" y2="797.1"/>
	<line class="st3" x1="768.8" y1="722.9" x2="811.6" y2="797.1"/>
	<line class="st3" x1="854.4" y1="871.3" x2="811.6" y2="797.1"/>
	<line class="st3" x1="854.4" y1="722.9" x2="811.6" y2="797.1"/>
	<line class="st3" x1="768.8" y1="871.3" x2="811.6" y2="797.1"/>
	<line class="st3" x1="1256.8" y1="625.6" x2="1256.8" y2="539.9"/>
	<line class="st3" x1="1256.8" y1="454.3" x2="1256.8" y2="539.9"/>
	<line class="st3" x1="1342.5" y1="539.9" x2="1256.8" y2="539.9"/>
	<line class="st3" x1="1171.1" y1="539.9" x2="1256.8" y2="539.9"/>
	<line class="st3" x1="1331" y1="497.1" x2="1256.8" y2="539.9"/>
	<line class="st3" x1="1182.6" y1="582.8" x2="1256.8" y2="539.9"/>
	<line class="st3" x1="1182.6" y1="497.1" x2="1256.8" y2="539.9"/>
	<line class="st3" x1="1331" y1="582.8" x2="1256.8" y2="539.9"/>
	<line class="st3" x1="1214" y1="465.7" x2="1256.8" y2="539.9"/>
	<line class="st3" x1="1299.6" y1="614.1" x2="1256.8" y2="539.9"/>
	<line class="st3" x1="1299.6" y1="465.7" x2="1256.8" y2="539.9"/>
	<line class="st3" x1="1214" y1="614.1" x2="1256.8" y2="539.9"/>
	<line class="st3" x1="1108.4" y1="882.9" x2="1108.4" y2="797.2"/>
	<line class="st3" x1="1108.4" y1="711.5" x2="1108.4" y2="797.2"/>
	<line class="st3" x1="1194.1" y1="797.2" x2="1108.4" y2="797.2"/>
	<line class="st3" x1="1022.8" y1="797.2" x2="1108.4" y2="797.2"/>
	<line class="st3" x1="1182.6" y1="754.3" x2="1108.4" y2="797.2"/>
	<line class="st3" x1="1034.2" y1="840" x2="1108.4" y2="797.2"/>
	<line class="st3" x1="1034.2" y1="754.3" x2="1108.4" y2="797.2"/>
	<line class="st3" x1="1182.6" y1="840" x2="1108.4" y2="797.2"/>
	<line class="st3" x1="1065.6" y1="723" x2="1108.4" y2="797.2"/>
	<line class="st3" x1="1151.3" y1="871.4" x2="1108.4" y2="797.2"/>
	<line class="st3" x1="1151.3" y1="723" x2="1108.4" y2="797.2"/>
	<line class="st3" x1="1065.6" y1="871.4" x2="1108.4" y2="797.2"/>
	<line class="st3" x1="1256.8" y1="797.1" x2="1256.8" y2="711.4"/>
	<line class="st3" x1="1256.8" y1="625.8" x2="1256.8" y2="711.4"/>
	<line class="st3" x1="1342.5" y1="711.4" x2="1256.8" y2="711.4"/>
	<line class="st3" x1="1171.1" y1="711.4" x2="1256.8" y2="711.4"/>
	<line class="st3" x1="1331" y1="668.6" x2="1256.8" y2="711.4"/>
	<line class="st3" x1="1182.6" y1="754.3" x2="1256.8" y2="711.4"/>
	<line class="st3" x1="1182.6" y1="668.6" x2="1256.8" y2="711.4"/>
	<line class="st3" x1="1331" y1="754.3" x2="1256.8" y2="711.4"/>
	<line class="st3" x1="1214" y1="637.2" x2="1256.8" y2="711.4"/>
	<line class="st3" x1="1299.6" y1="785.6" x2="1256.8" y2="711.4"/>
	<line class="st3" x1="1299.6" y1="637.2" x2="1256.8" y2="711.4"/>
	<line class="st3" x1="1214" y1="785.6" x2="1256.8" y2="711.4"/>
	<line class="st3" x1="1256.8" y1="454.3" x2="1256.8" y2="368.6"/>
	<line class="st3" x1="1256.8" y1="282.9" x2="1256.8" y2="368.6"/>
	<line class="st3" x1="1342.5" y1="368.6" x2="1256.8" y2="368.6"/>
	<line class="st3" x1="1171.1" y1="368.6" x2="1256.8" y2="368.6"/>
	<line class="st3" x1="1331" y1="325.8" x2="1256.8" y2="368.6"/>
	<line class="st3" x1="1182.6" y1="411.4" x2="1256.8" y2="368.6"/>
	<line class="st3" x1="1182.6" y1="325.8" x2="1256.8" y2="368.6"/>
	<line class="st3" x1="1331" y1="411.4" x2="1256.8" y2="368.6"/>
	<line class="st3" x1="1214" y1="294.4" x2="1256.8" y2="368.6"/>
	<line class="st3" x1="1299.6" y1="442.8" x2="1256.8" y2="368.6"/>
	<line class="st3" x1="1299.6" y1="294.4" x2="1256.8" y2="368.6"/>
	<line class="st3" x1="1214" y1="442.8" x2="1256.8" y2="368.6"/>
	<line class="st3" x1="1108.4" y1="540" x2="1108.4" y2="454.3"/>
	<line class="st3" x1="1108.4" y1="368.7" x2="1108.4" y2="454.3"/>
	<line class="st3" x1="1194" y1="454.3" x2="1108.4" y2="454.3"/>
	<line class="st3" x1="1022.7" y1="454.3" x2="1108.4" y2="454.3"/>
	<line class="st3" x1="1182.6" y1="411.5" x2="1108.4" y2="454.3"/>
	<line class="st3" x1="1034.2" y1="497.2" x2="1108.4" y2="454.3"/>
	<line class="st3" x1="1034.2" y1="411.5" x2="1108.4" y2="454.3"/>
	<line class="st3" x1="1182.6" y1="497.2" x2="1108.4" y2="454.3"/>
	<line class="st3" x1="1065.5" y1="380.1" x2="1108.4" y2="454.3"/>
	<line class="st3" x1="1151.2" y1="528.5" x2="1108.4" y2="454.3"/>
	<line class="st3" x1="1151.2" y1="380.1" x2="1108.4" y2="454.3"/>
	<line class="st3" x1="1065.5" y1="528.5" x2="1108.4" y2="454.3"/>
	<polygon class="st3" points="937,968.4 897.2,945.4 874.3,905.7 874.3,859.7 897.2,820 937,797 982.9,797 1022.7,820 1045.6,859.7 
		1045.6,905.7 1022.7,945.4 982.9,968.4 	"/>
	<polygon class="st3" points="1085.4,882.7 1045.6,859.7 1022.7,820 1022.7,774.1 1045.6,734.3 1085.4,711.3 1131.3,711.3 
		1171.1,734.3 1194,774.1 1194,820 1171.1,859.7 1131.3,882.7 	"/>
	<polygon class="st3" points="788.6,882.7 748.8,859.7 725.9,820 725.9,774.1 748.8,734.3 788.6,711.3 834.5,711.3 874.3,734.3 
		897.2,774.1 897.2,820 874.3,859.7 834.5,882.7 	"/>
	<polygon class="st3" points="1233.8,797 1194,774.1 1171.1,734.3 1171.1,688.4 1194,648.6 1233.8,625.7 1279.7,625.7 1319.5,648.6 
		1342.4,688.4 1342.4,734.3 1319.5,774.1 1279.7,797 	"/>
	<polygon class="st3" points="937,797 897.2,774.1 874.3,734.3 874.3,688.4 897.2,648.6 937,625.7 982.9,625.7 1022.7,648.6 
		1045.6,688.4 1045.6,734.3 1022.7,774.1 982.9,797 	"/>
	<polygon class="st3" points="640.2,797 600.4,774.1 577.5,734.3 577.5,688.4 600.4,648.6 640.2,625.7 686.1,625.7 725.9,648.6 
		748.8,688.4 748.8,734.3 725.9,774.1 686.1,797 	"/>
	<polygon class="st3" points="1085.4,711.3 1045.6,688.4 1022.7,648.6 1022.7,602.7 1045.6,563 1085.4,540 1131.3,540 1171.1,563 
		1194,602.7 1194,648.6 1171.1,688.4 1131.3,711.3 	"/>
	<polygon class="st3" points="788.6,711.3 748.8,688.4 725.9,648.6 725.9,602.7 748.8,563 788.6,540 834.5,540 874.3,563 
		897.2,602.7 897.2,648.6 874.3,688.4 834.5,711.3 	"/>
	<polygon class="st3" points="1233.8,625.7 1194,602.7 1171.1,563 1171.1,517 1194,477.3 1233.8,454.3 1279.7,454.3 1319.5,477.3 
		1342.4,517 1342.4,563 1319.5,602.7 1279.7,625.7 	"/>
	<polygon class="st3" points="937,625.7 897.2,602.7 874.3,563 874.3,517 897.2,477.3 937,454.3 982.9,454.3 1022.7,477.3 
		1045.6,517 1045.6,563 1022.7,602.7 982.9,625.7 	"/>
	<polygon class="st3" points="640.2,625.7 600.4,602.7 577.5,563 577.5,517 600.4,477.3 640.2,454.3 686.1,454.3 725.9,477.3 
		748.9,517 748.9,563 725.9,602.7 686.1,625.7 	"/>
	<polygon class="st3" points="1085.4,540 1045.6,517 1022.7,477.3 1022.7,431.4 1045.6,391.6 1085.4,368.6 1131.3,368.6 
		1171.1,391.6 1194,431.4 1194,477.3 1171.1,517 1131.3,540 	"/>
	<polygon class="st3" points="788.6,540 748.8,517 725.9,477.3 725.9,431.4 748.8,391.6 788.6,368.6 834.5,368.6 874.3,391.6 
		897.2,431.4 897.2,477.3 874.3,517 834.5,540 	"/>
	<polygon class="st3" points="1233.8,454.3 1194,431.4 1171.1,391.6 1171.1,345.7 1194,305.9 1233.8,283 1279.7,283 1319.5,305.9 
		1342.4,345.7 1342.4,391.6 1319.5,431.4 1279.7,454.3 	"/>
	<polygon class="st3" points="937,454.3 897.2,431.4 874.3,391.6 874.3,345.7 897.2,305.9 937,283 982.9,283 1022.7,305.9 
		1045.6,345.7 1045.6,391.6 1022.7,431.4 982.9,454.3 	"/>
	<polygon class="st3" points="640.2,454.3 600.4,431.4 577.5,391.6 577.5,345.7 600.4,305.9 640.2,283 686.1,283 725.9,305.9 
		748.9,345.7 748.9,391.6 725.9,431.4 686.1,454.3 	"/>
	<polygon class="st3" points="1085.4,368.6 1045.6,345.7 1022.7,305.9 1022.7,260 1045.6,220.3 1085.4,197.3 1131.3,197.3 
		1171.1,220.3 1194,260 1194,305.9 1171.1,345.7 1131.3,368.6 	"/>
	<polygon class="st3" points="788.6,368.6 748.8,345.7 725.9,305.9 725.9,260 748.8,220.3 788.6,197.3 834.5,197.3 874.3,220.3 
		897.2,260 897.2,305.9 874.3,345.7 834.5,368.6 	"/>
	<polygon class="st3" points="937,283 897.2,260 874.3,220.3 874.3,174.3 897.2,134.6 937,111.6 982.9,111.6 1022.7,134.6 
		1045.6,174.3 1045.6,220.3 1022.7,260 982.9,283 	"/>
</g>
<g id="line12">
	<line class="st4" x1="917.2" y1="123.1" x2="960" y2="197.3"/>
</g>
<g id="line11">
	<line class="st4" x1="885.8" y1="154.4" x2="960" y2="197.3"/>
</g>
<g id="line10">
	<line class="st4" x1="874.3" y1="197.3" x2="960" y2="197.3"/>
</g>
<g id="line9">
	<line class="st4" x1="885.8" y1="240.2" x2="960" y2="197.3"/>
</g>
<g id="line8">
	<line class="st4" x1="917.2" y1="271.5" x2="960" y2="197.3"/>
</g>
<g id="line7">
	<line class="st4" x1="960" y1="283" x2="960" y2="197.3"/>
</g>
<g id="line6">
	<line class="st4" x1="1002.8" y1="271.5" x2="960" y2="197.3"/>
</g>
<g id="line5">
	<line class="st4" x1="1034.2" y1="240.1" x2="960" y2="197.3"/>
</g>
<g id="line4">
	<line class="st4" x1="1045.6" y1="197.3" x2="960" y2="197.3"/>
</g>
<g id="line3">
	<line class="st4" x1="1034.2" y1="154.5" x2="960" y2="197.3"/>
</g>
<g id="line2">
	<line class="st4" x1="1002.8" y1="123.1" x2="960" y2="197.3"/>
</g>
<g id="line1">
	<line class="st4" x1="960" y1="111.6" x2="960" y2="197.3"/>
</g>
<g id="Layer_116">
	<g>
		<path class="st3" d="M1045.6,197.3l13.3,0 M1058.9,197.3l6.6,11.5"/>
		<polygon class="st3" points="1045.6,220.3 1045.6,174.3 1085.4,197.3 		"/>
		<line class="st3" x1="1058.9" y1="197.3" x2="1065.5" y2="185.8"/>
	</g>
	<g>
		<path class="st3" d="M874.3,197.3l-13.3,0 M861,197.3l-6.6,11.5"/>
		<polygon class="st3" points="874.3,220.3 874.3,174.3 834.5,197.3 		"/>
		<line class="st3" x1="861" y1="197.3" x2="854.4" y2="185.8"/>
	</g>
	<g>
		<path class="st3" d="M725.9,282.9l-13.3,0 M712.6,282.9l-6.6,11.5"/>
		<polygon class="st3" points="725.9,305.9 725.9,260 686.2,282.9 		"/>
		<line class="st3" x1="712.7" y1="282.9" x2="706" y2="271.4"/>
	</g>
	<g>
		<path class="st3" d="M1319.5,454.3l-13.3,0 M1306.3,454.3l-6.6,11.5"/>
		<polygon class="st3" points="1319.5,477.3 1319.5,431.4 1279.8,454.3 		"/>
		<line class="st3" x1="1306.3" y1="454.3" x2="1299.7" y2="442.9"/>
	</g>
	<g>
		<path class="st3" d="M1319.5,625.7l-13.3,0 M1306.2,625.7l-6.6,11.5"/>
		<polygon class="st3" points="1319.5,648.6 1319.5,602.7 1279.8,625.7 		"/>
		<line class="st3" x1="1306.3" y1="625.7" x2="1299.6" y2="614.2"/>
	</g>
	<g>
		<path class="st3" d="M874.3,882.7l-13.3,0 M861.1,882.7l-6.6,11.5"/>
		<polygon class="st3" points="874.3,905.7 874.3,859.7 834.6,882.7 		"/>
		<line class="st3" x1="861.1" y1="882.7" x2="854.4" y2="871.2"/>
	</g>
	<g>
		<path class="st3" d="M725.9,797l-13.3,0 M712.7,797l-6.6,11.5"/>
		<polygon class="st3" points="725.9,820 725.9,774.1 686.2,797 		"/>
		<line class="st3" x1="712.7" y1="797" x2="706" y2="785.6"/>
	</g>
	<g>
		<path class="st3" d="M1194,283l13.3,0 M1207.3,283l6.6,11.5"/>
		<polygon class="st3" points="1194,305.9 1194,260 1233.8,283 		"/>
		<line class="st3" x1="1207.3" y1="283" x2="1213.9" y2="271.5"/>
	</g>
	<g>
		<path class="st3" d="M600.5,454.3l13.3,0 M613.8,454.3l6.6,11.5"/>
		<polygon class="st3" points="600.5,477.3 600.5,431.4 640.2,454.3 		"/>
		<line class="st3" x1="613.7" y1="454.3" x2="620.4" y2="442.9"/>
	</g>
	<g>
		<path class="st3" d="M600.5,625.7l13.3,0 M613.8,625.7l6.6,11.5"/>
		<polygon class="st3" points="600.5,648.6 600.5,602.7 640.2,625.7 		"/>
		<line class="st3" x1="613.7" y1="625.7" x2="620.4" y2="614.2"/>
	</g>
	<g>
		<path class="st3" d="M1194.1,797l13.3,0 M1207.3,797l6.6,11.5"/>
		<polygon class="st3" points="1194.1,820 1194.1,774.1 1233.8,797 		"/>
		<line class="st3" x1="1207.3" y1="797" x2="1214" y2="785.6"/>
	</g>
	<g>
		<path class="st3" d="M1045.7,882.7l13.3,0 M1059,882.7l6.6,11.5"/>
		<polygon class="st3" points="1045.7,905.6 1045.7,859.7 1085.4,882.7 		"/>
		<line class="st3" x1="1058.9" y1="882.7" x2="1065.6" y2="871.2"/>
	</g>
</g>
<g id="position_x5F_hollow" class="st9">
	<g class="st10">
		<path class="st11" d="M960,190.4c3.8,0,6.9,3.1,6.9,6.9c0,3.8-3.1,6.9-6.9,6.9s-6.9-3.1-6.9-6.9
			C953.1,193.5,956.2,190.4,960,190.4 M960,186.4c-6,0-10.9,4.9-10.9,10.9c0,6,4.9,10.9,10.9,10.9s10.9-4.9,10.9-10.9
			C970.9,191.3,966,186.4,960,186.4L960,186.4z"/>
	</g>
	<g class="st10">
		<path class="st11" d="M960,361.8c3.8,0,6.9,3.1,6.9,6.9s-3.1,6.9-6.9,6.9s-6.9-3.1-6.9-6.9S956.2,361.8,960,361.8 M960,357.8
			c-6,0-10.9,4.9-10.9,10.9s4.9,10.9,10.9,10.9s10.9-4.9,10.9-10.9S966,357.8,960,357.8L960,357.8z"/>
	</g>
	<g class="st10">
		<path class="st11" d="M960,533.1c3.8,0,6.9,3.1,6.9,6.9c0,3.8-3.1,6.9-6.9,6.9s-6.9-3.1-6.9-6.9
			C953.1,536.2,956.2,533.1,960,533.1 M960,529.1c-6,0-10.9,4.9-10.9,10.9c0,6,4.9,10.9,10.9,10.9s10.9-4.9,10.9-10.9
			C970.9,534,966,529.1,960,529.1L960,529.1z"/>
	</g>
	<g class="st10">
		<path class="st11" d="M960,704.5c3.8,0,6.9,3.1,6.9,6.9c0,3.8-3.1,6.9-6.9,6.9s-6.9-3.1-6.9-6.9
			C953.1,707.6,956.2,704.5,960,704.5 M960,700.5c-6,0-10.9,4.9-10.9,10.9c0,6,4.9,10.9,10.9,10.9s10.9-4.9,10.9-10.9
			C970.9,705.3,966,700.5,960,700.5L960,700.5z"/>
	</g>
	<g class="st10">
		<path class="st11" d="M960,875.8c3.8,0,6.9,3.1,6.9,6.9s-3.1,6.9-6.9,6.9s-6.9-3.1-6.9-6.9S956.2,875.8,960,875.8 M960,871.8
			c-6,0-10.9,4.9-10.9,10.9c0,6,4.9,10.9,10.9,10.9s10.9-4.9,10.9-10.9C970.9,876.7,966,871.8,960,871.8L960,871.8z"/>
	</g>
	<g class="st10">
		<path class="st11" d="M811.6,276.1c3.8,0,6.9,3.1,6.9,6.9s-3.1,6.9-6.9,6.9c-3.8,0-6.9-3.1-6.9-6.9S807.8,276.1,811.6,276.1
			 M811.6,272.1c-6,0-10.9,4.9-10.9,10.9c0,6,4.9,10.9,10.9,10.9c6,0,10.9-4.9,10.9-10.9C822.5,277,817.6,272.1,811.6,272.1
			L811.6,272.1z"/>
	</g>
	<g class="st10">
		<path class="st11" d="M811.6,447.4c3.8,0,6.9,3.1,6.9,6.9s-3.1,6.9-6.9,6.9c-3.8,0-6.9-3.1-6.9-6.9S807.8,447.4,811.6,447.4
			 M811.6,443.4c-6,0-10.9,4.9-10.9,10.9c0,6,4.9,10.9,10.9,10.9c6,0,10.9-4.9,10.9-10.9C822.5,448.3,817.6,443.4,811.6,443.4
			L811.6,443.4z"/>
	</g>
	<g class="st10">
		<path class="st11" d="M811.6,618.8c3.8,0,6.9,3.1,6.9,6.9s-3.1,6.9-6.9,6.9c-3.8,0-6.9-3.1-6.9-6.9S807.8,618.8,811.6,618.8
			 M811.6,614.8c-6,0-10.9,4.9-10.9,10.9c0,6,4.9,10.9,10.9,10.9c6,0,10.9-4.9,10.9-10.9C822.5,619.7,817.6,614.8,811.6,614.8
			L811.6,614.8z"/>
	</g>
	<g class="st10">
		<path class="st11" d="M663.2,361.8c3.8,0,6.9,3.1,6.9,6.9s-3.1,6.9-6.9,6.9s-6.9-3.1-6.9-6.9S659.4,361.8,663.2,361.8
			 M663.2,357.8c-6,0-10.9,4.9-10.9,10.9c0,6,4.9,10.9,10.9,10.9c6,0,10.9-4.9,10.9-10.9C674.1,362.6,669.2,357.8,663.2,357.8
			L663.2,357.8z"/>
	</g>
	<g class="st10">
		<path class="st11" d="M663.2,533.1c3.8,0,6.9,3.1,6.9,6.9c0,3.8-3.1,6.9-6.9,6.9s-6.9-3.1-6.9-6.9
			C656.3,536.2,659.4,533.1,663.2,533.1 M663.2,529.1c-6,0-10.9,4.9-10.9,10.9c0,6,4.9,10.9,10.9,10.9c6,0,10.9-4.9,10.9-10.9
			C674.1,534,669.2,529.1,663.2,529.1L663.2,529.1z"/>
	</g>
	<g class="st10">
		<path class="st11" d="M663.2,704.5c3.8,0,6.9,3.1,6.9,6.9c0,3.8-3.1,6.9-6.9,6.9s-6.9-3.1-6.9-6.9
			C656.3,707.5,659.4,704.5,663.2,704.5 M663.2,700.5c-6,0-10.9,4.9-10.9,10.9c0,6,4.9,10.9,10.9,10.9c6,0,10.9-4.9,10.9-10.9
			C674.1,705.3,669.2,700.5,663.2,700.5L663.2,700.5z"/>
	</g>
	<g class="st10">
		<path class="st11" d="M1256.8,361.8c3.8,0,6.9,3.1,6.9,6.9s-3.1,6.9-6.9,6.9s-6.9-3.1-6.9-6.9S1253,361.8,1256.8,361.8
			 M1256.8,357.8c-6,0-10.9,4.9-10.9,10.9c0,6,4.9,10.9,10.9,10.9s10.9-4.9,10.9-10.9C1267.7,362.6,1262.8,357.8,1256.8,357.8
			L1256.8,357.8z"/>
	</g>
	<g class="st10">
		<path class="st11" d="M1256.8,533.1c3.8,0,6.9,3.1,6.9,6.9c0,3.8-3.1,6.9-6.9,6.9s-6.9-3.1-6.9-6.9
			C1249.9,536.2,1253,533.1,1256.8,533.1 M1256.8,529.1c-6,0-10.9,4.9-10.9,10.9c0,6,4.9,10.9,10.9,10.9s10.9-4.9,10.9-10.9
			C1267.7,534,1262.8,529.1,1256.8,529.1L1256.8,529.1z"/>
	</g>
	<g class="st10">
		<path class="st11" d="M1256.8,704.5c3.8,0,6.9,3.1,6.9,6.9c0,3.8-3.1,6.9-6.9,6.9s-6.9-3.1-6.9-6.9
			C1249.9,707.5,1253,704.5,1256.8,704.5 M1256.8,700.5c-6,0-10.9,4.9-10.9,10.9c0,6,4.9,10.9,10.9,10.9s10.9-4.9,10.9-10.9
			C1267.7,705.3,1262.8,700.5,1256.8,700.5L1256.8,700.5z"/>
	</g>
	<g class="st10">
		<path class="st11" d="M811.6,790.1c3.8,0,6.9,3.1,6.9,6.9s-3.1,6.9-6.9,6.9c-3.8,0-6.9-3.1-6.9-6.9S807.8,790.1,811.6,790.1
			 M811.6,786.1c-6,0-10.9,4.9-10.9,10.9s4.9,10.9,10.9,10.9c6,0,10.9-4.9,10.9-10.9S817.6,786.1,811.6,786.1L811.6,786.1z"/>
	</g>
	<g class="st10">
		<path class="st11" d="M1108.4,276.1c3.8,0,6.9,3.1,6.9,6.9s-3.1,6.9-6.9,6.9s-6.9-3.1-6.9-6.9S1104.6,276.1,1108.4,276.1
			 M1108.4,272.1c-6,0-10.9,4.9-10.9,10.9c0,6,4.9,10.9,10.9,10.9s10.9-4.9,10.9-10.9C1119.3,277,1114.4,272.1,1108.4,272.1
			L1108.4,272.1z"/>
	</g>
	<g class="st10">
		<path class="st11" d="M1108.4,447.4c3.8,0,6.9,3.1,6.9,6.9s-3.1,6.9-6.9,6.9s-6.9-3.1-6.9-6.9S1104.6,447.4,1108.4,447.4
			 M1108.4,443.4c-6,0-10.9,4.9-10.9,10.9c0,6,4.9,10.9,10.9,10.9s10.9-4.9,10.9-10.9C1119.3,448.3,1114.4,443.4,1108.4,443.4
			L1108.4,443.4z"/>
	</g>
	<g class="st10">
		<path class="st11" d="M1108.4,618.8c3.8,0,6.9,3.1,6.9,6.9s-3.1,6.9-6.9,6.9s-6.9-3.1-6.9-6.9S1104.6,618.8,1108.4,618.8
			 M1108.4,614.8c-6,0-10.9,4.9-10.9,10.9c0,6,4.9,10.9,10.9,10.9s10.9-4.9,10.9-10.9C1119.3,619.7,1114.4,614.8,1108.4,614.8
			L1108.4,614.8z"/>
	</g>
	<g class="st10">
		<path class="st11" d="M1108.4,790.1c3.8,0,6.9,3.1,6.9,6.9s-3.1,6.9-6.9,6.9s-6.9-3.1-6.9-6.9S1104.6,790.1,1108.4,790.1
			 M1108.4,786.1c-6,0-10.9,4.9-10.9,10.9s4.9,10.9,10.9,10.9s10.9-4.9,10.9-10.9S1114.4,786.1,1108.4,786.1L1108.4,786.1z"/>
	</g>
</g>
<g id="position" class="st9">
	<circle class="st12" cx="960" cy="197.3" r="10.9"/>
	<circle class="st12" cx="960" cy="368.7" r="10.9"/>
	<circle class="st12" cx="960" cy="540" r="10.9"/>
	<circle class="st12" cx="960" cy="711.3" r="10.9"/>
	<circle class="st12" cx="960" cy="882.7" r="10.9"/>
	<circle class="st12" cx="811.6" cy="283" r="10.9"/>
	<circle class="st12" cx="811.6" cy="454.3" r="10.9"/>
	<circle class="st12" cx="811.6" cy="625.7" r="10.9"/>
	<circle class="st12" cx="663.2" cy="368.6" r="10.9"/>
	<circle class="st12" cx="663.2" cy="540" r="10.9"/>
	<circle class="st12" cx="663.2" cy="711.3" r="10.9"/>
	<circle class="st12" cx="1256.8" cy="368.6" r="10.9"/>
	<circle class="st12" cx="1256.8" cy="540" r="10.9"/>
	<circle class="st12" cx="1256.8" cy="711.3" r="10.9"/>
	<circle class="st12" cx="811.6" cy="797" r="10.9"/>
	<circle class="st12" cx="1108.4" cy="283" r="10.9"/>
	<circle class="st12" cx="1108.4" cy="454.3" r="10.9"/>
	<circle class="st12" cx="1108.4" cy="625.7" r="10.9"/>
	<circle class="st12" cx="1108.4" cy="797" r="10.9"/>
</g>
<g id="_x31_9_00000125578705150275448210000014280571466292691881_">
	<g>
		<path d="M942.4,912.1v-47.3h-0.6l-8.2,4.7v-8l10.7-5.7h6.5v56.3H942.4z"/>
		<path d="M961.6,912.1l12.6-22.6h-0.5c-1.4,1.9-3.8,2.8-7.1,2.8c-4,0-7.2-1.7-9.6-5s-3.7-7.7-3.7-13c0-5.9,1.5-10.7,4.6-14.2
			s7.1-5.3,12.1-5.3s9,1.8,12,5.3s4.5,8.1,4.5,13.6c0,5-1.5,10.5-4.5,16.4l-11,21.9H961.6z M964,881.7c1.5,2,3.4,3,5.9,3
			s4.4-1,5.8-3s2.2-4.7,2.2-8.1c0-3.4-0.7-6-2.2-8.1s-3.4-3-5.8-3c-2.5,0-4.4,1-5.9,3s-2.2,4.7-2.2,8.1
			C961.8,877,962.6,879.7,964,881.7z"/>
	</g>
</g>
<g id="_x31_8_00000051380563457866553840000001443995986344355764_">
	<g>
		<path d="M1090.5,826.4v-47.3h-0.6l-8.2,4.7v-8l10.7-5.7h6.5v56.3H1090.5z"/>
		<path d="M1118.3,827.5c-5,0-9.1-1.5-12.1-4.5c-3-3-4.6-6.8-4.6-11.6c0-3.3,0.7-6.2,2.2-8.7c1.4-2.5,3.5-4.2,6.1-5.2v-0.5
			c-2.2-1-3.9-2.6-5.2-4.9s-1.9-4.9-1.9-7.9c0-4.4,1.4-8,4.3-10.8c2.9-2.8,6.6-4.2,11.3-4.2c4.6,0,8.3,1.4,11.2,4.2
			c2.9,2.8,4.3,6.4,4.3,10.8c0,2.9-0.6,5.5-1.9,7.8c-1.3,2.3-3,4-5.2,4.9v0.5c2.5,1,4.5,2.7,6,5.2c1.5,2.5,2.2,5.4,2.2,8.7
			c0,4.8-1.5,8.6-4.6,11.6C1127.3,826,1123.3,827.5,1118.3,827.5z M1112.3,817.2c1.5,1.7,3.5,2.6,6,2.6c2.5,0,4.5-0.9,6-2.6
			c1.5-1.7,2.2-4,2.2-6.9s-0.7-5.2-2.2-6.9c-1.5-1.7-3.5-2.6-6-2.6c-2.5,0-4.5,0.9-6,2.6c-1.5,1.7-2.3,4-2.3,6.9
			S1110.8,815.5,1112.3,817.2z M1112.9,791.7c1.3,1.6,3.1,2.4,5.4,2.4c2.2,0,4-0.8,5.4-2.4s2-3.7,2-6.4c0-2.6-0.7-4.7-2-6.3
			s-3.2-2.3-5.4-2.3c-2.2,0-4,0.8-5.4,2.3c-1.3,1.6-2,3.7-2,6.3C1110.9,788,1111.6,790.1,1112.9,791.7z"/>
	</g>
</g>
<g id="_x31_7_00000180359976559971938910000008609767728048157825_">
	<g>
		<path d="M795.6,826.4v-47.3H795l-8.2,4.7v-8l10.7-5.7h6.5v56.3H795.6z"/>
		<path d="M810.4,826.4l16.9-48v-0.6h-20.5v-7.6h30.1v6.4l-17.3,49.9H810.4z"/>
	</g>
</g>
<g id="_x31_6_00000107560525178246190980000003699024234805986745_">
	<g>
		<path d="M1239.3,740.8v-47.3h-0.6l-8.2,4.7v-8l10.7-5.7h6.5v56.3H1239.3z"/>
		<path d="M1266.7,741.8c-4.9,0-8.9-1.8-11.9-5.3s-4.5-8.1-4.5-13.6s1.5-11.2,4.4-16.8l11.3-21.6h9.4l-13,23.1h0.5
			c1.4-2,3.8-3,7.2-3c3.9,0,7.1,1.7,9.6,5s3.8,7.6,3.8,12.8c0,5.8-1.5,10.5-4.6,14S1271.8,741.8,1266.7,741.8z M1261,731.1
			c1.4,2,3.3,3,5.8,3s4.4-1,5.9-3c1.5-2,2.2-4.7,2.2-8.1c0-3.4-0.7-6-2.2-8c-1.5-2-3.4-3-5.9-3s-4.4,1-5.8,3s-2.1,4.7-2.1,8.1
			S1259.6,729.2,1261,731.1z"/>
	</g>
</g>
<g id="_x31_5_00000147934260798541279380000014363113606613805447_">
	<g>
		<path d="M943,740.8v-47.3h-0.6l-8.2,4.7v-8l10.7-5.7h6.5v56.3H943z"/>
		<path d="M972.9,704.7c4.1,0,7.4,1.7,9.9,5s3.8,7.7,3.8,13c0,5.8-1.5,10.4-4.5,13.8s-7.1,5.2-12.2,5.2c-4.6,0-8.3-1.4-11.2-4.3
			c-2.9-2.9-4.3-6.6-4.3-11.3V725h8.4v0.9c0,2.5,0.7,4.4,2,5.9s3.1,2.2,5.3,2.2c2.5,0,4.5-1,6-3s2.2-4.6,2.2-7.9c0-3.4-0.7-6-2.2-8
			s-3.4-2.9-5.7-2.9c-3.3,0-5.7,1.4-7.1,4.2H955l3.5-32H983v7.1h-17.2l-2.1,17.2h0.5c0.8-1.2,2-2.2,3.5-3S971,704.7,972.9,704.7z"/>
	</g>
</g>
<g id="_x31_4_00000128480907574617092430000005498627773357901485_">
	<g>
		<path d="M645,740.8v-47.3h-0.6l-8.2,4.7v-8l10.7-5.7h6.5v56.3H645z"/>
		<path d="M690.7,720.9v7.3h-5.1v12.6h-8.3v-12.6h-21.4v-6.2l18.7-37.4h11v36.4H690.7z M664.6,720.9h12.7v-23.1l0.4-3.7H677
			l-12.3,26.3V720.9z"/>
	</g>
</g>
<g id="_x31_3_00000164490095431372694150000000954447594911694255_">
	<g>
		<path d="M1091.1,655.2v-47.3h-0.6l-8.2,4.7v-8l10.7-5.7h6.5v56.3H1091.1z"/>
		<path d="M1129.9,652c-3,2.8-6.9,4.2-11.7,4.2s-8.7-1.4-11.7-4.1c-3-2.7-4.5-6.3-4.5-10.7v-3h8.4v2.4c0,2.4,0.7,4.3,2.1,5.7
			s3.2,2.1,5.5,2.1c2.4,0,4.2-0.8,5.7-2.4s2.1-3.8,2.1-6.5c0-3-0.7-5.3-2-7.1s-3.2-2.6-5.5-2.6h-7.5v-6.8h6.6c2.4,0,4.2-0.9,5.6-2.6
			c1.4-1.7,2.1-4.1,2.1-7.1c0-2.5-0.6-4.5-1.9-5.9s-2.9-2.1-5-2.1c-2.1,0-3.8,0.7-5.1,2s-1.9,3.1-1.9,5.2v2.4h-8.3v-3.1
			c0-4.3,1.4-7.7,4.2-10.3c2.8-2.6,6.5-3.9,11.1-3.9c4.5,0,8.2,1.3,11.1,4s4.2,6.2,4.2,10.5c0,3.2-0.7,6-2,8.5
			c-1.3,2.4-3.1,4.1-5.3,5v0.5c2.5,0.9,4.4,2.7,5.9,5.2c1.4,2.6,2.2,5.7,2.2,9.2C1134.4,645.4,1132.9,649.1,1129.9,652z"/>
	</g>
</g>
<g id="_x31_2_00000081607575333304792670000004077045042403600802_">
	<g>
		<path d="M794.8,655.1v-47.3h-0.6l-8.2,4.7v-8l10.7-5.7h6.5v56.3H794.8z"/>
		<path d="M806.2,655.1v-6.2l16.2-22.4c4-5.6,6-10.1,6.1-13.6c0-2.3-0.6-4.1-1.8-5.4s-2.9-2-5-2c-2.2,0-3.9,0.6-5.2,1.9
			c-1.3,1.3-1.9,2.9-1.9,5v4.1h-8.4v-4.6c0-4.3,1.4-7.7,4.3-10.3c2.9-2.6,6.6-3.9,11.3-3.9c4.5,0,8.2,1.3,11,4
			c2.8,2.7,4.2,6.2,4.2,10.6c0,5.4-2.2,11-6.5,16.8l-13,17.9v0.5h19.4v7.5H806.2z"/>
	</g>
</g>
<g id="_x31_1_00000147912291446138753140000003991895211837706669_">
	<g>
		<path d="M1245.6,569.3V522h-0.6l-8.2,4.7v-8l10.7-5.7h6.5v56.3H1245.6z"/>
		<path d="M1265.5,569.3V522h-0.6l-8.2,4.7v-8l10.7-5.7h6.5v56.3H1265.5z"/>
	</g>
</g>
<g id="_x31_0_00000179629113648069694140000010150379849568973727_">
	<g>
		<path d="M941.1,569.4v-47.3h-0.6l-8.2,4.7v-8l10.7-5.7h6.5v56.3H941.1z"/>
		<path d="M969.7,570.4c-4.9,0-8.9-1.4-11.9-4.1c-3-2.7-4.5-6.4-4.5-10.8v-28.4c0-4.5,1.5-8.1,4.5-10.8c3-2.7,7-4.1,11.9-4.1
			c5,0,9,1.4,12,4.1c3,2.7,4.5,6.4,4.5,10.9v28.4c0,4.5-1.5,8.2-4.5,10.9S974.7,570.4,969.7,570.4z M969.7,562.8
			c2.4,0,4.4-0.7,5.9-2.1s2.3-3.2,2.3-5.4v-28.1c0-2.2-0.8-4-2.3-5.4c-1.5-1.4-3.5-2.1-5.9-2.1c-2.5,0-4.4,0.7-5.9,2.1
			c-1.5,1.4-2.2,3.2-2.2,5.4v28.1c0,2.2,0.7,4,2.2,5.4S967.2,562.8,969.7,562.8z"/>
	</g>
</g>
<g id="_x39__00000120539583249215047360000013920127170073649029_">
	<g>
		<path d="M654.8,569.3l12.6-22.6H667c-1.4,1.9-3.8,2.8-7.1,2.8c-4,0-7.2-1.7-9.6-5s-3.7-7.7-3.7-13c0-5.9,1.5-10.7,4.6-14.2
			s7.1-5.3,12.1-5.3c5,0,9,1.8,12,5.3c3,3.5,4.5,8.1,4.5,13.6c0,5-1.5,10.5-4.5,16.4l-11,21.9H654.8z M657.2,538.9
			c1.5,2,3.4,3,5.9,3s4.4-1,5.8-3c1.4-2,2.2-4.7,2.2-8.1c0-3.4-0.7-6-2.2-8.1s-3.4-3-5.8-3c-2.5,0-4.4,1-5.9,3
			c-1.5,2-2.2,4.7-2.2,8.1C655,534.2,655.8,536.9,657.2,538.9z"/>
	</g>
</g>
<g id="_x38__00000183971319746579366780000003830963816422325123_">
	<g>
		<path d="M1108.4,484.8c-5,0-9.1-1.5-12.1-4.5c-3-3-4.6-6.8-4.6-11.6c0-3.3,0.7-6.2,2.2-8.7c1.4-2.5,3.5-4.2,6.1-5.2v-0.5
			c-2.2-1-3.9-2.6-5.2-4.9s-1.9-4.9-1.9-7.9c0-4.4,1.4-8,4.3-10.8c2.9-2.8,6.6-4.2,11.3-4.2c4.6,0,8.3,1.4,11.2,4.2
			c2.9,2.8,4.3,6.4,4.3,10.8c0,2.9-0.6,5.5-1.9,7.8c-1.3,2.3-3,4-5.2,4.9v0.5c2.5,1,4.5,2.7,6,5.2c1.5,2.5,2.2,5.4,2.2,8.7
			c0,4.8-1.5,8.6-4.6,11.6C1117.4,483.3,1113.4,484.8,1108.4,484.8z M1102.4,474.5c1.5,1.7,3.5,2.6,6,2.6c2.5,0,4.5-0.9,6-2.6
			c1.5-1.7,2.2-4,2.2-6.9s-0.7-5.2-2.2-6.9c-1.5-1.7-3.5-2.6-6-2.6c-2.5,0-4.5,0.9-6,2.6c-1.5,1.7-2.3,4-2.3,6.9
			S1100.9,472.8,1102.4,474.5z M1103,449c1.3,1.6,3.1,2.4,5.4,2.4c2.2,0,4-0.8,5.4-2.4s2-3.7,2-6.4c0-2.6-0.7-4.7-2-6.3
			s-3.2-2.3-5.4-2.3c-2.2,0-4,0.8-5.4,2.3c-1.3,1.6-2,3.7-2,6.3C1101,445.3,1101.7,447.4,1103,449z"/>
	</g>
</g>
<g id="_x37__00000036253204409838953110000006938170442784102532_">
	<g>
		<path d="M800.5,483.7l16.9-48v-0.6h-20.5v-7.6h30.1v6.4l-17.3,49.9H800.5z"/>
	</g>
</g>
<g id="_x36__00000078746516308981815910000000777481455395003314_">
	<g>
		<path d="M1256.7,399.1c-4.9,0-8.9-1.8-11.9-5.3s-4.5-8.1-4.5-13.6c0-5.6,1.5-11.2,4.4-16.8l11.3-21.6h9.4l-13,23.1h0.5
			c1.4-2,3.8-3,7.2-3c3.9,0,7.1,1.7,9.6,5c2.5,3.3,3.8,7.6,3.8,12.8c0,5.8-1.5,10.5-4.6,14C1265.8,397.3,1261.7,399.1,1256.7,399.1z
			 M1251,388.4c1.4,2,3.3,3,5.8,3s4.4-1,5.9-3c1.5-2,2.2-4.7,2.2-8.1c0-3.4-0.7-6-2.2-8c-1.5-2-3.4-3-5.9-3s-4.4,1-5.8,3
			c-1.4,2-2.1,4.7-2.1,8.1C1248.9,383.7,1249.6,386.4,1251,388.4z"/>
	</g>
</g>
<g id="_x35__00000013874954009998318860000005089962757873403828_">
	<g>
		<path d="M963,362c4.1,0,7.4,1.7,9.9,5s3.8,7.7,3.8,13c0,5.8-1.5,10.4-4.5,13.8c-3,3.4-7.1,5.2-12.2,5.2c-4.6,0-8.3-1.4-11.2-4.3
			c-2.9-2.9-4.3-6.6-4.3-11.3v-1.2h8.4v0.9c0,2.5,0.7,4.4,2,5.9c1.3,1.5,3.1,2.2,5.3,2.2c2.5,0,4.5-1,6-3c1.5-2,2.2-4.6,2.2-7.9
			c0-3.4-0.7-6-2.2-8c-1.5-2-3.4-2.9-5.7-2.9c-3.3,0-5.7,1.4-7.1,4.2h-8.3l3.5-32h24.5v7.1H956l-2.1,17.2h0.5c0.8-1.2,2-2.2,3.5-3
			S961.2,362,963,362z"/>
	</g>
</g>
<g id="_x34__00000032611347709969564890000002224044325962688659_">
	<g>
		<path d="M680.6,378.2v7.3h-5.1V398h-8.3v-12.6h-21.4v-6.2l18.7-37.4h11v36.4H680.6z M654.5,378.2h12.7V355l0.4-3.7h-0.7
			l-12.3,26.3V378.2z"/>
	</g>
</g>
<g id="_x33__00000130638534460712960720000013923390470698840725_">
	<g>
		<path d="M1120,309.2c-3,2.8-6.9,4.2-11.7,4.2c-4.8,0-8.7-1.4-11.7-4.1c-3-2.7-4.5-6.3-4.5-10.7v-3h8.4v2.4c0,2.4,0.7,4.3,2.1,5.7
			s3.2,2.1,5.5,2.1c2.4,0,4.2-0.8,5.7-2.4c1.4-1.6,2.1-3.8,2.1-6.5c0-3-0.7-5.3-2-7.1c-1.3-1.7-3.2-2.6-5.5-2.6h-7.5v-6.8h6.6
			c2.4,0,4.2-0.9,5.6-2.6c1.4-1.7,2.1-4.1,2.1-7.1c0-2.5-0.6-4.5-1.9-5.9c-1.3-1.4-2.9-2.1-5-2.1c-2.1,0-3.8,0.7-5.1,2
			c-1.3,1.3-1.9,3.1-1.9,5.2v2.4h-8.3v-3.1c0-4.3,1.4-7.7,4.2-10.3c2.8-2.6,6.5-3.9,11.1-3.9c4.5,0,8.2,1.3,11.1,4s4.2,6.2,4.2,10.5
			c0,3.2-0.7,6-2,8.5c-1.3,2.4-3.1,4.1-5.3,5v0.5c2.5,0.9,4.4,2.7,5.9,5.2c1.4,2.6,2.2,5.7,2.2,9.2
			C1124.5,302.6,1123,306.3,1120,309.2z"/>
	</g>
</g>
<g id="_x32__00000134932836266048200940000005773270067010957451_">
	<g>
		<path d="M796.3,312.4v-6.2l16.2-22.4c4-5.6,6-10.1,6.1-13.6c0-2.3-0.6-4.1-1.8-5.4s-2.9-2-5-2c-2.2,0-3.9,0.6-5.2,1.9
			c-1.3,1.3-1.9,2.9-1.9,5v4.1h-8.4v-4.6c0-4.3,1.4-7.7,4.3-10.3c2.9-2.6,6.6-3.9,11.3-3.9c4.5,0,8.2,1.3,11,4
			c2.8,2.7,4.2,6.2,4.2,10.6c0,5.4-2.2,11-6.5,16.8l-13,17.9v0.5h19.4v7.5H796.3z"/>
	</g>
</g>
<g id="_x31_">
	<g>
		<path d="M958.7,226.7v-47.3h-0.6l-8.2,4.7v-8l10.7-5.7h6.5v56.3H958.7z"/>
	</g>
</g>
<g id="full_x5F_warning" class="st9">
	<polygon class="st13" points="514.8,283 514.8,797 960,1054 1405.2,797 1405.2,283 959.9,25.9 	"/>
	<polygon class="st14" points="514.8,283 514.8,797 960,1054 1405.2,797 1405.2,283 959.9,25.9 	"/>
</g>
<g id="red_x5F_box" class="st9">
	<g id="_x31_9w" class="st10">
		<polygon class="st15" points="811.6,797 811.6,968.4 960,1054.1 1108.4,968.4 1108.4,797 960,711.3 		"/>
	</g>
	<g id="_x31_8w" class="st10">
		<polygon class="st15" points="959.9,711.3 959.9,882.7 1108.3,968.4 1256.7,882.7 1256.7,711.3 1108.3,625.7 		"/>
	</g>
	<g id="_x31_7w" class="st10">
		<polygon class="st15" points="663.2,711.5 663.2,882.8 811.6,968.5 960,882.8 960,711.5 811.6,625.8 		"/>
	</g>
	<g id="_x31_6w" class="st10">
		<polygon class="st15" points="1108.3,625.7 1108.3,797 1256.7,882.7 1405.1,797 1405.1,625.7 1256.7,540 		"/>
	</g>
	<g id="_x31_5w" class="st10">
		<polygon class="st15" points="811.6,625.7 811.6,797 960,882.7 1108.4,797 1108.4,625.7 960,540 		"/>
	</g>
	<g id="_x31_4w" class="st10">
		<polygon class="st15" points="514.8,625.7 514.8,797 663.2,882.7 811.6,797 811.6,625.7 663.2,540 		"/>
	</g>
	<g id="_x31_3w" class="st10">
		<polygon class="st15" points="960,540 960,711.3 1108.4,797 1256.8,711.3 1256.8,540 1108.4,454.3 		"/>
	</g>
	<g id="_x31_2w" class="st10">
		<polygon class="st15" points="663.2,540.1 663.2,711.5 811.6,797.1 960,711.5 960,540.1 811.6,454.4 		"/>
	</g>
	<g id="_x31_1w" class="st10">
		<polygon class="st15" points="1108.4,454.3 1108.4,625.7 1256.8,711.3 1405.2,625.7 1405.2,454.3 1256.8,368.6 		"/>
	</g>
	<g id="_x31_0w" class="st10">
		<polygon class="st15" points="811.6,454.3 811.6,625.7 960,711.4 1108.4,625.7 1108.4,454.3 959.9,368.6 		"/>
	</g>
	<g id="_x39_w" class="st10">
		<polygon class="st15" points="514.8,454.3 514.8,625.7 663.2,711.3 811.6,625.7 811.6,454.3 663.2,368.6 		"/>
	</g>
	<g id="_x38_w" class="st10">
		<polygon class="st15" points="960,368.7 960,540 1108.4,625.7 1256.7,540 1256.7,368.7 1108.3,283 		"/>
	</g>
	<g id="_x37_w" class="st10">
		<polygon class="st15" points="663.2,368.7 663.2,540 811.6,625.7 960,540 960,368.7 811.6,283 		"/>
	</g>
	<g id="_x36_w" class="st10">
		<polygon class="st15" points="1108.4,283 1108.4,454.3 1256.8,540 1405.2,454.3 1405.2,283 1256.8,197.3 		"/>
	</g>
	<g id="_x35_w" class="st10">
		<polygon class="st15" points="811.6,283 811.6,454.3 960,540 1108.4,454.3 1108.4,283 960,197.3 		"/>
	</g>
	<g id="_x34_w" class="st10">
		<polygon class="st15" points="514.8,283 514.8,454.3 663.2,540 811.6,454.3 811.6,283 663.2,197.3 		"/>
	</g>
	<g id="_x33_w" class="st10">
		<polygon class="st15" points="960,197.3 960,368.6 1108.4,454.3 1256.7,368.6 1256.7,197.3 1108.3,111.6 		"/>
	</g>
	<g id="_x32_w" class="st10">
		<polygon class="st15" points="811.6,111.6 811.6,283 960,368.7 1108.4,283 1108.4,111.6 960,25.9 		"/>
	</g>
	<g id="_x31_w" class="st10">
		<polygon class="st15" points="663.2,197.3 663.2,368.7 811.6,454.3 960,368.7 960,197.3 811.5,111.6 		"/>
	</g>
</g>
<g id="green_x5F_box" class="st9">
	<g id="F">
		<g id="Layer_83" class="st10">
			<g id="Layer_72">
				<polygon class="st16" points="960,711.3 960,882.7 514.8,625.7 663.2,540 				"/>
				<polygon class="st16" points="960,711.3 960,882.7 811.6,797.1 811.6,625.7 				"/>
				<polygon class="st16" points="960,711.4 960,882.7 1405.2,625.7 1256.8,540 				"/>
				<polygon class="st16" points="960,711.4 960,882.7 1109,796.4 1109,625.1 				"/>
			</g>
		</g>
	</g>
	<g id="E">
		<g id="Layer_82" class="st10">
			<g id="Layer_81">
				<polygon class="st16" points="960,540 960,711.4 514.8,454.4 663.2,368.7 				"/>
				<polygon class="st16" points="960,540 960,711.4 1405.2,454.4 1256.8,368.7 				"/>
			</g>
		</g>
	</g>
	<g id="D">
		<g id="Layer_91" class="st10">
			<g id="Layer_80">
				<polygon class="st16" points="960,882.7 1108.4,968.4 1108.4,454.3 960,368.6 				"/>
			</g>
		</g>
		<g id="Layer_85" class="st10">
			<g id="Layer_74">
				<polygon class="st16" points="663.2,711.4 811.6,797.1 811.6,283 663.2,197.3 				"/>
			</g>
		</g>
	</g>
	<g id="C">
		<g id="Layer_90" class="st10">
			<g id="Layer_79">
				<polygon class="st16" points="1108.3,797.1 1256.7,882.7 1256.7,368.7 1108.3,283 				"/>
			</g>
		</g>
		<g id="Layer_86" class="st10">
			<g id="Layer_75">
				<polygon class="st17" points="811.6,625.7 960,711.3 960,197.3 811.6,111.6 				"/>
			</g>
		</g>
		<polygon class="st18" points="811.6,454.3 959.9,368.6 960,197.3 811.6,283 		"/>
	</g>
	<g id="B">
		<g id="Layer_89" class="st10">
			<g id="Layer_78">
				<polygon class="st16" points="960,882.7 811.6,968.4 811.6,454.3 959.9,368.6 				"/>
			</g>
		</g>
		<g id="Layer_87" class="st10">
			<g id="Layer_76">
				<polygon class="st16" points="1257.4,710.8 1109,796.4 1109,282.4 1257.4,196.7 				"/>
			</g>
		</g>
	</g>
	<g id="A">
		<g id="Layer_88" class="st10">
			<g id="Layer_77">
				<polygon class="st16" points="1109,625.1 960.6,710.7 960.6,196.7 1109,111 				"/>
			</g>
		</g>
		<polygon class="st19" points="1108.4,454.3 959.9,368.6 960.6,196.7 1109,282.4 		"/>
		<g id="Layer_84" class="st10">
			<g id="Layer_73">
				<polygon class="st16" points="811.6,797.1 663.2,882.7 663.2,368.7 811.6,283 				"/>
			</g>
		</g>
	</g>
	<g id="F1" class="st10">
		<line class="st20" x1="1406.5" y1="625.7" x2="1256.2" y2="540"/>
		<line class="st21" x1="1406.5" y1="625.7" x2="960" y2="882.7"/>
		<line class="st20" x1="515.8" y1="625.3" x2="663.3" y2="539.6"/>
		<line class="st21" x1="514.8" y1="625.6" x2="960" y2="882.7"/>
	</g>
	<g id="E1" class="st10">
		<line class="st20" x1="1406.4" y1="454.3" x2="1256.2" y2="368.1"/>
		<line class="st21" x1="1406.4" y1="454.3" x2="960" y2="711.4"/>
		<line class="st20" x1="514.8" y1="454.3" x2="663.3" y2="368.6"/>
		<line class="st21" x1="514.8" y1="454.3" x2="960" y2="711.4"/>
	</g>
	<g id="D1" class="st10">
		<line class="st20" x1="663.2" y1="368.7" x2="663.2" y2="197.3"/>
		<line class="st20" x1="1108.3" y1="968.4" x2="963.8" y2="885.1"/>
		<line class="st21" x1="1108.4" y1="454.3" x2="663.2" y2="197.2"/>
		<line class="st21" x1="1108.3" y1="968.4" x2="1108.4" y2="454.3"/>
	</g>
	<g id="C1" class="st10">
		<line class="st20" x1="811.6" y1="283" x2="811.6" y2="111.7"/>
		<line class="st20" x1="1256.8" y1="882.7" x2="1112.9" y2="799.3"/>
		<line class="st21" x1="1256.8" y1="882.7" x2="1256.7" y2="368.7"/>
		<line class="st21" x1="1256.7" y1="368.7" x2="811.6" y2="111.7"/>
	</g>
	<g id="B1" class="st10">
		<line class="st20" x1="1256.7" y1="364.1" x2="1257.4" y2="197"/>
		<line class="st21" x1="811.6" y1="454.3" x2="1257.4" y2="197"/>
		<line class="st20" x1="811.5" y1="968.4" x2="955.7" y2="884.8"/>
		<line class="st21" x1="811.5" y1="968.4" x2="811.6" y2="454.3"/>
	</g>
	<g id="A1" class="st10">
		<line class="st20" x1="1109" y1="278" x2="1108.4" y2="111.6"/>
		<line class="st21" x1="663.4" y1="368.6" x2="1108.4" y2="111.6"/>
		<line class="st20" x1="663.2" y1="882.7" x2="807.2" y2="799"/>
		<line class="st21" x1="663.2" y1="882.7" x2="663.3" y2="368.6"/>
	</g>
</g>
<g id="bluebox">
	<g id="bottom" class="st9">
		<g class="st22">
			<polygon class="st23" points="897.2,602.7 897.2,648.6 937,625.7 			"/>
			<polygon class="st23" points="737.9,669.4 737.4,668.5 737.4,668.5 			"/>
			<polygon class="st23" points="1022.7,774.1 982.9,797 982.9,797 1022.7,820 1035.4,841.9 1022.7,820 1022.7,774.1 			"/>
			<polygon class="st23" points="1022.7,602.7 1022.7,602.7 982.9,625.7 1022.7,648.6 1026.6,655.5 1022.7,648.6 			"/>
			<polygon class="st23" points="788.6,711.3 748.8,688.4 748.8,734.3 788.6,711.3 			"/>
			<polygon class="st23" points="885.5,753.8 874.3,734.3 874.3,688.4 874.3,688.4 834.5,711.3 834.5,711.3 874.3,734.3 			"/>
			<polygon class="st23" points="1174.2,739.8 1171.1,734.3 1171.1,688.4 1171.1,688.4 1131.3,711.3 1171.1,734.3 			"/>
			<polygon class="st24" points="1331,754.2 1319.5,774.1 1279.7,797 1233.8,797 1194,774.1 1194,820 1171.1,859.7 1131.3,882.7 
				1085.4,882.7 1045.6,859.7 1045.6,905.7 1022.7,945.4 982.9,968.4 937,968.4 897.2,945.4 874.3,905.7 874.3,859.7 874.3,859.7 
				834.5,882.7 788.6,882.7 748.8,859.7 725.9,820 725.9,774.1 725.9,774.1 686.1,797 640.2,797 600.4,774.1 589,754.2 514.8,797 
				960,1054.1 1405.2,797 			"/>
			<polygon class="st23" points="937,797 897.2,774.1 897.2,820 937,797 			"/>
			<polygon class="st23" points="1045.6,688.4 1045.6,734.3 1085.4,711.3 			"/>
		</g>
	</g>
	<g id="leftt" class="st9">
		<g class="st10">
			<polygon class="st25" points="514.8,797 960,1054.1 960,540 514.8,283 			"/>
			<polygon class="st26" points="514.8,797 960,1054.1 960,540 514.8,283 			"/>
		</g>
	</g>
	<g id="right" class="st9">
		<g class="st10">
			<polygon class="st25" points="1405.6,798 960.4,1055 960.4,540.9 1405.7,283.9 			"/>
			<polygon class="st26" points="1405.6,798 960.4,1055 960.4,540.9 1405.7,283.9 			"/>
		</g>
	</g>
	<g id="top" class="st9">
		<polygon class="st27" points="960,540 514.8,283 960,25.9 1405.2,283 		"/>
		<polygon class="st28" points="960,540 514.8,283 960,25.9 1405.2,283 		"/>
	</g>
	<g id="left_x5F_grid">
		<g>
			<line class="st5" x1="514.8" y1="455.3" x2="959.9" y2="712.3"/>
			<line class="st5" x1="514.9" y1="626.6" x2="960" y2="883.6"/>
			<line class="st5" x1="811.6" y1="969.3" x2="811.6" y2="455.3"/>
			<line class="st5" x1="663.3" y1="883.6" x2="663.3" y2="369.6"/>
		</g>
	</g>
	<g id="right_x5F_grid">
		<g>
			<line class="st5" x1="1405.2" y1="455.3" x2="960.1" y2="712.3"/>
			<line class="st5" x1="1405.1" y1="626.6" x2="960" y2="883.6"/>
			<line class="st5" x1="1108.4" y1="969.3" x2="1108.4" y2="455.3"/>
			<line class="st5" x1="1256.8" y1="883.6" x2="1256.8" y2="369.6"/>
		</g>
	</g>
	<g id="top_x5F_grid">
		<line class="st5" x1="663.2" y1="197.2" x2="1108.4" y2="454.2"/>
		<line class="st5" x1="811.6" y1="111.7" x2="1256.8" y2="368.7"/>
		<line class="st5" x1="1256.8" y1="197.2" x2="811.6" y2="454.2"/>
		<line class="st5" x1="1108.4" y1="111.7" x2="663.2" y2="368.7"/>
	</g>
</g>
<g id="Layer_111">
	<g>
		<polygon class="st6" points="1249,535.4 1116.2,612.2 1116.2,458.8 1249,382.2 		"/>
		<polygon class="st6" points="1397.4,449.7 1264.6,526.5 1264.6,373.2 1397.4,296.5 		"/>
		<polygon class="st6" points="1100.6,621.1 967.8,697.8 967.8,544.5 1100.5,467.8 		"/>
		<polygon class="st6" points="1249,707.2 1116.2,784 1116.2,630.6 1249,554 		"/>
		<polygon class="st6" points="1397.4,621.6 1264.6,698.3 1264.6,545 1397.4,468.3 		"/>
		<polygon class="st6" points="1100.6,792.9 967.8,869.6 967.8,716.3 1100.5,639.7 		"/>
		<polygon class="st6" points="1249,878.1 1116.2,954.8 1116.2,801.5 1249,724.8 		"/>
		<polygon class="st6" points="1397.4,792.4 1264.6,869.2 1264.6,715.8 1397.4,639.2 		"/>
		<polygon class="st6" points="1100.6,963.8 967.8,1040.5 967.8,887.2 1100.5,810.5 		"/>
	</g>
	<g>
		<polygon class="st6" points="670.8,535.4 803.6,612.1 803.6,458.8 670.9,382.2 		"/>
		<polygon class="st6" points="522.4,449.7 655.2,526.5 655.2,373.1 522.5,296.5 		"/>
		<polygon class="st6" points="819.3,621.1 952.1,697.8 952.1,544.5 819.3,467.8 		"/>
		<polygon class="st6" points="670.8,707.2 803.6,784 803.6,630.6 670.9,554 		"/>
		<polygon class="st6" points="522.4,621.6 655.2,698.3 655.2,545 522.5,468.3 		"/>
		<polygon class="st6" points="819.3,792.9 952.1,869.6 952.1,716.3 819.3,639.7 		"/>
		<polygon class="st6" points="670.8,878.1 803.6,954.8 803.6,801.5 670.9,724.8 		"/>
		<polygon class="st6" points="522.4,792.4 655.2,869.2 655.2,715.8 522.5,639.2 		"/>
		<polygon class="st6" points="819.3,963.8 952.1,1040.5 952.1,887.2 819.3,810.5 		"/>
	</g>
	<g>
		<polygon class="st6" points="812,274 944.8,197.3 812,120.7 679.3,197.3 		"/>
		<polygon class="st6" points="663.6,359.7 796.4,283 663.6,206.4 530.9,283 		"/>
		<polygon class="st6" points="960.4,188.3 1093.2,111.6 960.5,34.9 827.7,111.6 		"/>
		<polygon class="st6" points="960.8,359.9 1093.6,283.2 960.8,206.6 828.1,283.3 		"/>
		<polygon class="st6" points="812.4,445.6 945.2,368.9 812.4,292.3 679.7,368.9 		"/>
		<polygon class="st6" points="1109.2,274.2 1242,197.5 1109.3,120.9 976.5,197.5 		"/>
		<polygon class="st6" points="1108.7,445.3 1241.6,368.7 1108.8,292 976,368.7 		"/>
		<polygon class="st6" points="960.3,531 1093.2,454.4 960.4,377.7 827.6,454.4 		"/>
		<polygon class="st6" points="1257.2,359.6 1390,282.9 1257.2,206.3 1124.4,283 		"/>
	</g>
</g>
<g id="Layer_110">
	<g class="st7">
		<path class="st8" d="M971.2,141.9h-22.3l-3.5,19.9h-21.9l22.3-100.5H975l22.3,100.5h-22.6L971.2,141.9z M967.9,123.5l-7.3-41.5
			h-1.2l-7.2,41.5H967.9z"/>
	</g>
	<g class="st7">
		<path class="st8" d="M1076.4,219.2v-43.8c0-18.1,13-30.1,32.5-30.1c19.6,0,32.5,12,32.5,30.1v8.5h-20.5v-8.1c0-7-4.8-11.7-12-11.7
			c-7,0-11.8,4.6-11.8,11.7v42.9c0,7,4.8,11.7,11.8,11.7c7.2,0,12-4.6,12-11.7v-8.1h20.5v8.5c0,18.1-12.9,30.1-32.5,30.1
			C1089.4,249.3,1076.4,237.3,1076.4,219.2z"/>
	</g>
	<g class="st7">
		<path class="st8" d="M1251.5,251.6v24.4h25.3V295h-25.3v38.2h-20.5V232.7h51.7v18.9H1251.5z"/>
	</g>
	<g class="st7">
		<path class="st8" d="M843.3,221.3c0,15.4-10.3,26.2-26.1,26.2H780V147.1h34.8c15.7,0,26.1,10.5,26.1,26.1
			c0,12.3-5.7,20.8-13.6,22.6v1.2C837,199.1,843.3,208.2,843.3,221.3z M800.5,164.9v23.7h8.4c6.9,0,11.4-4.8,11.4-11.7
			c0-7-4.5-12-11.4-12H800.5z M822.7,217.2c0-7.3-4.5-12.3-11.4-12.3h-10.8v24.7h10.8C818.2,229.7,822.7,224.4,822.7,217.2z"/>
	</g>
	<g class="st7">
		<path class="st8" d="M695,263.5v39c0,18.6-12.9,30.7-32.4,30.7h-31.3V232.7h31.3C682.1,232.7,695,244.9,695,263.5z M674.5,264.1
			c0-7.5-4.6-12.4-12.4-12.4h-10.2v62.7H662c7.8,0,12.4-4.9,12.4-12.4V264.1z"/>
	</g>
	<g class="st7">
		<path class="st8" d="M823.6,350.8v-3.6c0-7-4.6-11.7-12-11.7c-7,0-11.8,4.6-11.8,11.7V391c0,7,4.6,11.8,11.8,11.8s12-4.6,12-11.8
			v-9.7h-10.8v-17.4h31.3v26.7c0,18.3-12.9,30.1-32.5,30.1c-19.5,0-32.5-12-32.5-30.1v-43.8c0-18.1,13-30.1,32.5-30.1
			c19.6,0,32.5,11.8,32.5,30.1v4H823.6z"/>
	</g>
	<g class="st7">
		<path class="st8" d="M950.2,403.6h20.5v100.5h-20.5V403.6z"/>
	</g>
	<g class="st7">
		<path class="st8" d="M560.2,436.3v-11.4h20.5v10.9c0,4.8,3.3,7.9,8.2,7.9c4.9,0,8.2-3.1,8.2-7.9v-75.4h20.5v75.9
			c0,16-11.5,26.4-28.8,26.4C571.8,462.7,560.2,452.2,560.2,436.3z"/>
	</g>
	<g class="st7">
		<path class="st8" d="M620.7,567.3c0,21.9-12.3,34.6-33.7,34.6h-9v31.2h-20.5V532.6h29.5C608.4,532.6,620.7,545.2,620.7,567.3z
			 M600.1,567.3c0-10-5.4-15.7-14.8-15.7h-7.3V583h7.3C594.7,583,600.1,577.3,600.1,567.3z"/>
	</g>
	<g class="st7">
		<path class="st8" d="M553.3,703.9h22.6l12.8,77.5h1.2l12.7-77.5h22l-22.5,100.5h-26.5L553.3,703.9z"/>
	</g>
	<g class="st7">
		<path class="st8" d="M684.9,789.6h22.6l8.2,72.4h1.3l10.8-72.4h19.6l10.9,72.4h1.4l8.1-72.4h22l-17.8,100.5h-24.7l-9.3-65.1h-1.4
			l-9.4,65.1h-24.7L684.9,789.6z"/>
	</g>
	<g class="st7">
		<path class="st8" d="M872.8,926.3l-23.7-51h25l11.5,32.1h1.4l11.4-32.1h22.9l-22.5,49.3l23.7,51.1h-25.2L886,943.5h-1.4
			l-11.4,32.2h-23.1L872.8,926.3z"/>
	</g>
	<g class="st7">
		<path class="st8" d="M1024.1,936L998,875.3h23.8l12.3,38.2h1.2l12.1-38.2h22.9l-25.8,60.7v39.7h-20.5V936z"/>
	</g>
	<g class="st7">
		<path class="st8" d="M1154,874.7l31-64.9v-1.2h-30.4v-18.9h57v15.5l-30.9,64.9v1.2h31.5v18.9H1154V874.7z"/>
	</g>
	<g class="st7">
		<path class="st8" d="M759.5,708.2l7.4,17.8h-19l-4.8-11.2c-1.8,0.1-3.8,0.3-5.7,0.3c-19.9,0-33.1-12.3-33.1-30.9v-42.3
			c0-18.6,13.2-30.9,33.1-30.9c20.1,0,33.1,12.3,33.1,30.9v42.3C770.4,694.4,766.4,702.8,759.5,708.2z M749.9,684.8v-1v-41.4
			c0-7.5-4.9-12.4-12.6-12.4c-7.5,0-12.4,4.9-12.4,12.4v41.4c0,7.5,4.9,12.4,12.4,12.4h1.5l-5.5-13.5H749L749.9,684.8z"/>
	</g>
	<g class="st7">
		<path class="st8" d="M882.1,769.6h-9v34.8h-20.5V703.9h32.1c20.5,0,32.4,12,32.4,32.8c0,14.1-5.4,24.1-15.3,29.2l17.2,38.4h-24
			L882.1,769.6z M873.1,751.3h9.3c9,0,14.1-5.2,14.1-14.2c0-9-5.1-14.2-14.1-14.2h-9.3V751.3z"/>
	</g>
	<g class="st7">
		<path class="st8" d="M1002.9,776.8v-3.8h20.4v4c0,6.1,4.3,10.2,10.9,10.2c6.5,0,10.6-4,10.6-10.2c0-18.3-41.5-10.6-41.5-45.7
			c0-18.6,12.1-29.2,30.3-29.2c18.4,0,30.3,11.1,30.3,27.4v3.8h-20.1v-3.4c0-5.4-3.9-8.8-10-8.8c-5.8,0-9.7,3.3-9.7,9
			c0,18,41.4,9.5,41.4,45.7c0,19.3-12.3,30.4-30.9,30.4C1015.5,806.2,1002.9,794.7,1002.9,776.8z"/>
	</g>
	<g class="st7">
		<path class="st8" d="M1213.1,637.2h-20.2v81.6h-20.7v-81.6H1152v-18.9h61.2V637.2z"/>
	</g>
	<g class="st7">
		<path class="st8" d="M1298.9,604.5v-72.9h20.5V604c0,6.6,4.5,10.9,11.4,10.9c6.8,0,11.2-4.3,11.2-10.9v-72.4h20.7v72.9
			c0,17.7-12.7,29.4-31.9,29.4S1298.9,622.2,1298.9,604.5z"/>
	</g>
	<g class="st7">
		<path class="st8" d="M731,509l-6.3,6.7v31.6h-20.5V446.9h20.5v42h1.2l20.5-42H770l-25.2,43.9l25.6,56.5h-24.3L731,509z"/>
	</g>
	<g class="st7">
		<path class="st8" d="M910.8,614.2v18.9h-50.5V532.6h20.5v81.6H910.8z"/>
	</g>
	<g class="st7">
		<path class="st8" d="M992.6,532.6h28.5l12.9,52h1.3l12.8-52h27.7v100.5h-20.5v-61l0.9-7h-1.5l-12.9,48h-15.1l-12.9-48h-1.5l0.9,7
			v61h-20.5V532.6z"/>
	</g>
	<g class="st7">
		<path class="st8" d="M1149.7,446.9h23.8l20.7,61.6h1.5l-0.9-7v-54.6h20.5v100.5h-24l-20.5-61.6h-1.5l0.9,7v54.6h-20.5V446.9z"/>
	</g>
	<g class="st7">
		<path class="st8" d="M1297.8,432.6v-42.3c0-18.6,13.2-30.9,33.1-30.9c20.1,0,33.1,12.3,33.1,30.9v42.3c0,18.6-13,30.9-33.1,30.9
			C1311,463.5,1297.8,451.2,1297.8,432.6z M1343.5,432.2v-41.4c0-7.5-4.9-12.4-12.6-12.4c-7.5,0-12.5,4.9-12.5,12.4v41.4
			c0,7.5,5,12.4,12.5,12.4C1338.6,444.6,1343.5,439.7,1343.5,432.2z"/>
	</g>
	<g class="st7">
		<g>
			<path class="st8" d="M954.5,251.6v21.6h27.6v18.6h-27.6v22.5h32.4v18.9H934V232.7h52.9v18.9H954.5z"/>
		</g>
	</g>
	<g class="st7">
		<path class="st8" d="M1139.3,318.4v100.5h-20.5v-41.2h-20.7v41.2h-20.5V318.4h20.5v40.3h20.7v-40.3H1139.3z"/>
	</g>
	<g class="st7">
		<path class="st8" d="M1367.3,798v6.4h-15.7l-5.2-7.2c-5.1,5.8-12,9-20.8,9c-18,0-31.2-12.7-31.2-30.4c0-11.7,5.4-21.9,15.1-27.7
			v-1.2c-4-6.9-7-14.5-7-22c0-12.3,9-22.6,23.4-22.6c13.9,0,23.4,9.8,23.4,23.1c0,10.3-5.9,20.1-16,27l14.5,19.3
			c0.1-0.9,0.1-2.1,0.1-3.1v-11.8h15.8v11.7c0,6.9-1.7,13.3-5,18L1367.3,798z M1339.2,787.6l-19.8-26.5c-3.3,3.7-5.2,8.7-5.2,13.8
			c0,9,5.7,15.9,14.7,15.9C1332.7,790.8,1336.3,789.7,1339.2,787.6z M1318.9,724.9c0,5.1,1.8,9.4,4.6,14.1c5.2-4.3,8.5-9.6,8.5-14.7
			c0-4.5-2.4-7.5-6.3-7.5C1321.5,716.8,1318.9,720.1,1318.9,724.9z"/>
	</g>
</g>
</svg>
