<?xml version="1.0" encoding="utf-8"?>
<!-- Generator: Adobe Illustrator 27.9.0, SVG Export Plug-In . SVG Version: 6.00 Build 0)  -->
<svg version="1.1" xmlns="http://www.w3.org/2000/svg" xmlns:xlink="http://www.w3.org/1999/xlink" x="0px" y="0px"
	 viewBox="0 0 1080 1080" style="enable-background:new 0 0 1080 1080;" xml:space="preserve">
<style type="text/css">
	.st0{fill:none;stroke:#FFFFFF;stroke-linecap:square;stroke-miterlimit:3.239;}
	.st1{fill:#FFFFFF;stroke:#000000;stroke-linecap:square;stroke-miterlimit:3.239;}
	.st2{fill:none;stroke:#00FFFF;stroke-linecap:square;stroke-miterlimit:3.239;}
	.st3{fill:none;stroke:#FF0000;stroke-linecap:square;stroke-miterlimit:3.239;}
	.st4{fill:none;stroke:#FF0000;stroke-miterlimit:3.239;}
	.st5{fill:none;}
	.st6{font-family:'config-condensed-medium';}
	.st7{font-size:84px;}
	.st8{letter-spacing:-4;}
	.st9{fill:none;stroke:#00FFFF;stroke-width:3;stroke-miterlimit:10;}
	.st10{fill:none;stroke:#AD9A00;stroke-miterlimit:10;}
	.st11{opacity:0.6;}
	.st12{fill:#FBE53B;stroke:#AD9A00;stroke-miterlimit:10;}
	.st13{display:none;}
	.st14{display:inline;fill:none;stroke:#FF0000;stroke-miterlimit:3.239;}
	.st15{display:inline;}
	.st16{fill:#FF0000;}
	.st17{display:inline;fill:#FF0000;stroke:#FF0000;stroke-linecap:square;stroke-miterlimit:3.239;}
	.st18{display:inline;opacity:0.5;fill:#FF0000;}
	.st19{display:inline;fill:none;stroke:#FF0000;stroke-width:2;stroke-miterlimit:10;}
	.st20{opacity:0.5;fill:#FF0000;}
	.st21{opacity:0.33;fill:#009245;}
	.st22{opacity:0.33;fill:#1A9253;}
	.st23{fill:none;stroke:#8C272D;stroke-width:4;stroke-linecap:round;stroke-miterlimit:10;}
	.st24{fill:none;stroke:#FF0000;stroke-width:4;stroke-linecap:round;stroke-miterlimit:10;}
	.st25{display:inline;opacity:0.5;}
	.st26{fill:#00FFFF;}
	.st27{opacity:0.65;fill:#00FFFF;}
	.st28{opacity:0.25;fill:#00FFFF;}
	.st29{fill:none;stroke:#00FFFF;stroke-miterlimit:10;}
	.st30{display:inline;opacity:0.25;fill:#00FFFF;}
	.st31{display:inline;fill:none;stroke:#00FFFF;stroke-miterlimit:10;}
</style>
<g id="bg">
	<g>
		<rect width="1080" height="1080"/>
	</g>
	<polygon class="st0" points="180.5,648.6 180.5,602.7 220.2,625.7 	"/>
	<polygon class="st0" points="220.2,797 180.4,774.1 157.5,734.3 157.5,688.4 180.4,648.6 220.2,625.7 266.1,625.7 305.9,648.6 
		328.8,688.4 328.8,734.3 305.9,774.1 266.1,797 	"/>
	<polygon class="st0" points="180.5,820 180.5,774.1 220.2,797 	"/>
	<polygon class="st0" points="328.8,734.3 328.8,688.4 368.6,711.3 	"/>
	<polygon class="st0" points="157.5,734.3 117.7,711.3 157.5,688.4 	"/>
	<polygon class="st0" points="368.6,882.7 328.8,859.7 305.9,820 305.9,774.1 328.8,734.3 368.6,711.3 414.5,711.3 454.3,734.3 
		477.2,774.1 477.2,820 454.3,859.7 414.5,882.7 	"/>
	<polygon class="st0" points="328.8,905.7 328.8,859.7 368.6,882.7 	"/>
	<polygon class="st0" points="477.2,820 477.2,774.1 517,797 	"/>
	<polygon class="st0" points="305.9,820 266.1,797 305.9,774.1 	"/>
	<polygon class="st0" points="517,968.4 477.2,945.4 454.3,905.7 454.3,859.7 477.2,820 517,797 562.9,797 602.7,820 625.6,859.7 
		625.6,905.7 602.7,945.4 562.9,968.4 	"/>
	<polygon class="st0" points="477.2,991.3 477.2,945.4 517,968.4 	"/>
	<polygon class="st0" points="625.6,905.7 625.6,859.7 665.4,882.7 	"/>
	<polygon class="st0" points="454.3,905.7 414.5,882.7 454.3,859.7 	"/>
	<polygon class="st0" points="602.7,991.3 562.9,968.4 602.7,945.4 	"/>
	<polygon class="st0" points="180.5,305.9 180.5,260 220.2,283 	"/>
	<polygon class="st0" points="220.2,454.3 180.4,431.4 157.5,391.6 157.5,345.7 180.4,305.9 220.2,283 266.1,283 305.9,305.9 
		328.9,345.7 328.9,391.6 305.9,431.4 266.1,454.3 	"/>
	<polygon class="st0" points="180.5,477.3 180.5,431.4 220.2,454.3 	"/>
	<polygon class="st0" points="328.9,391.6 328.9,345.7 368.6,368.6 	"/>
	<polygon class="st0" points="157.5,391.6 117.7,368.6 157.5,345.7 	"/>
	<polygon class="st0" points="157.5,563 117.7,540 157.5,517 	"/>
	<polygon class="st0" points="220.2,625.7 180.4,602.7 157.5,563 157.5,517 180.4,477.3 220.2,454.3 266.1,454.3 305.9,477.3 
		328.9,517 328.9,563 305.9,602.7 266.1,625.7 	"/>
	<polygon class="st0" points="368.6,540 328.8,517 305.9,477.3 305.9,431.4 328.8,391.6 368.6,368.6 414.5,368.6 454.3,391.6 
		477.2,431.4 477.2,477.3 454.3,517 414.5,540 	"/>
	<polygon class="st0" points="328.9,563 328.9,517 368.6,540 	"/>
	<polygon class="st0" points="477.2,477.3 477.2,431.4 517,454.3 	"/>
	<polygon class="st0" points="305.9,477.3 266.1,454.3 305.9,431.4 	"/>
	<polygon class="st0" points="305.9,648.6 266.1,625.7 305.9,602.7 	"/>
	<polygon class="st0" points="368.6,711.3 328.8,688.4 305.9,648.6 305.9,602.7 328.8,563 368.6,540 414.5,540 454.3,563 
		477.2,602.7 477.2,648.6 454.3,688.4 414.5,711.3 	"/>
	<polygon class="st0" points="517,625.7 477.2,602.7 454.3,563 454.3,517 477.2,477.3 517,454.3 562.9,454.3 602.7,477.3 625.6,517 
		625.6,563 602.7,602.7 562.9,625.7 	"/>
	<polygon class="st0" points="477.2,648.6 477.2,602.7 517,625.7 	"/>
	<polygon class="st0" points="625.6,563 625.6,517 665.4,540 	"/>
	<polygon class="st0" points="454.3,563 414.5,540 454.3,517 	"/>
	<polygon class="st0" points="454.3,734.3 414.5,711.3 454.3,688.4 	"/>
	<polygon class="st0" points="517,797 477.2,774.1 454.3,734.3 454.3,688.4 477.2,648.6 517,625.7 562.9,625.7 602.7,648.6 
		625.6,688.4 625.6,734.3 602.7,774.1 562.9,797 	"/>
	<polygon class="st0" points="665.4,711.3 625.6,688.4 602.7,648.6 602.7,602.7 625.6,563 665.4,540 711.3,540 751.1,563 774,602.7 
		774,648.6 751.1,688.4 711.3,711.3 	"/>
	<polygon class="st0" points="625.6,734.3 625.6,688.4 665.4,711.3 	"/>
	<polygon class="st0" points="774,648.6 774,602.7 813.8,625.7 	"/>
	<polygon class="st0" points="602.7,648.6 562.9,625.7 602.7,602.7 	"/>
	<polygon class="st0" points="602.7,820 562.9,797 602.7,774.1 	"/>
	<polygon class="st0" points="665.4,882.7 625.6,859.7 602.7,820 602.7,774.1 625.6,734.3 665.4,711.3 711.3,711.3 751.1,734.3 
		774,774.1 774,820 751.1,859.7 711.3,882.7 	"/>
	<polygon class="st0" points="813.8,797 774,774.1 751.1,734.3 751.1,688.4 774,648.6 813.8,625.7 859.7,625.7 899.5,648.6 
		922.4,688.4 922.4,734.3 899.5,774.1 859.7,797 	"/>
	<polygon class="st0" points="774,820 774,774.1 813.8,797 	"/>
	<polygon class="st0" points="922.4,734.3 922.4,688.4 962.2,711.3 	"/>
	<polygon class="st0" points="751.1,734.3 711.3,711.3 751.1,688.4 	"/>
	<polygon class="st0" points="751.1,905.7 711.3,882.7 751.1,859.7 	"/>
	<polygon class="st0" points="899.5,820 859.7,797 899.5,774.1 	"/>
	<polygon class="st0" points="328.9,220.3 328.9,174.3 368.6,197.3 	"/>
	<polygon class="st0" points="477.2,134.6 477.2,88.7 517,111.6 	"/>
	<polygon class="st0" points="305.9,305.9 266.1,283 305.9,260 	"/>
	<polygon class="st0" points="368.6,368.6 328.8,345.7 305.9,305.9 305.9,260 328.8,220.3 368.6,197.3 414.5,197.3 454.3,220.3 
		477.2,260 477.2,305.9 454.3,345.7 414.5,368.6 	"/>
	<polygon class="st0" points="517,283 477.2,260 454.3,220.3 454.3,174.3 477.2,134.6 517,111.6 562.9,111.6 602.7,134.6 
		625.6,174.3 625.6,220.3 602.7,260 562.9,283 	"/>
	<polygon class="st0" points="477.2,305.9 477.2,260 517,283 	"/>
	<polygon class="st0" points="625.6,220.3 625.6,174.3 665.4,197.3 	"/>
	<polygon class="st0" points="454.3,220.3 414.5,197.3 454.3,174.3 	"/>
	<polygon class="st0" points="454.3,391.6 414.5,368.6 454.3,345.7 	"/>
	<polygon class="st0" points="517,454.3 477.2,431.4 454.3,391.6 454.3,345.7 477.2,305.9 517,283 562.9,283 602.7,305.9 
		625.6,345.7 625.6,391.6 602.7,431.4 562.9,454.3 	"/>
	<polygon class="st0" points="665.4,368.6 625.6,345.7 602.7,305.9 602.7,260 625.6,220.3 665.4,197.3 711.3,197.3 751.1,220.3 
		774,260 774,305.9 751.1,345.7 711.3,368.6 	"/>
	<polygon class="st0" points="625.6,391.6 625.6,345.7 665.4,368.6 	"/>
	<polygon class="st0" points="774,305.9 774,260 813.8,283 	"/>
	<polygon class="st0" points="602.7,305.9 562.9,283 602.7,260 	"/>
	<polygon class="st0" points="602.7,477.3 562.9,454.3 602.7,431.4 	"/>
	<polygon class="st0" points="665.4,540 625.6,517 602.7,477.3 602.7,431.4 625.6,391.6 665.4,368.6 711.3,368.6 751.1,391.6 
		774,431.4 774,477.3 751.1,517 711.3,540 	"/>
	<polygon class="st0" points="813.8,454.3 774,431.4 751.1,391.6 751.1,345.7 774,305.9 813.8,283 859.7,283 899.5,305.9 
		922.4,345.7 922.4,391.6 899.5,431.4 859.7,454.3 	"/>
	<polygon class="st0" points="774,477.3 774,431.4 813.8,454.3 	"/>
	<polygon class="st0" points="922.4,391.6 922.4,345.7 962.2,368.6 	"/>
	<polygon class="st0" points="751.1,391.6 711.3,368.6 751.1,345.7 	"/>
	<polygon class="st0" points="751.1,563 711.3,540 751.1,517 	"/>
	<polygon class="st0" points="813.8,625.7 774,602.7 751.1,563 751.1,517 774,477.3 813.8,454.3 859.7,454.3 899.5,477.3 922.4,517 
		922.4,563 899.5,602.7 859.7,625.7 	"/>
	<polygon class="st0" points="922.4,563 922.4,517 962.2,540 	"/>
	<polygon class="st0" points="899.5,477.3 859.7,454.3 899.5,431.4 	"/>
	<polygon class="st0" points="899.5,648.6 859.7,625.7 899.5,602.7 	"/>
	<polygon class="st0" points="602.7,134.6 562.9,111.6 602.7,88.7 	"/>
	<polygon class="st0" points="751.1,220.3 711.3,197.3 751.1,174.3 	"/>
	<polygon class="st0" points="899.5,305.9 859.7,283 899.5,260 	"/>
	<path class="st0" d="M94.8,283v171.3 M243.2,197.3L94.8,283 M94.8,283h98.9 M193.7,283l49.5-85.7 M144.3,368.7L94.8,283
		 M144.3,368.7l-49.5,85.7 M144.3,368.7h98.9 M243.2,368.7L193.7,283 M94.8,283l148.4,85.7 M243.2,368.7V197.3"/>
	<path class="st0" d="M94.8,454.3v171.3 M243.2,368.6L94.8,454.3 M94.8,454.3h98.9 M193.7,454.3l49.5-85.7 M144.3,540l-49.5-85.7
		 M144.3,540l-49.5,85.7 M144.3,540h98.9 M243.2,540l-49.5-85.7 M94.8,454.3L243.2,540 M243.2,540V368.6"/>
	<path class="st0" d="M94.8,625.7V797 M243.2,540L94.8,625.7 M94.8,625.7h98.9 M193.7,625.7l49.5-85.7 M144.3,711.4l-49.5-85.7
		 M144.3,711.4L94.8,797 M144.3,711.4h98.9 M243.2,711.4l-49.5-85.7 M94.8,625.7l148.4,85.7 M243.2,711.4V540"/>
	<path class="st0" d="M243.2,711.3L94.8,797 M94.8,797h98.9 M193.7,797l49.5-85.7 M243.2,882.7L193.7,797 M94.8,797l148.4,85.7
		 M243.2,882.7V711.3"/>
	<path class="st0" d="M391.6,111.6l-49.5,85.7 M391.6,111.6l-148.4,85.7 M243.2,197.3l98.9,0 M391.6,111.6V283 M342.1,197.3
		l49.5,85.7 M540,25.9l-148.4,85.7 M391.6,111.6h98.9 M490.5,111.6L540,25.9 M441.1,197.3l-49.5-85.7 M441.1,197.3L391.6,283
		 M441.1,197.3H540 M540,197.3l-49.5-85.7 M391.6,111.6L540,197.3 M540,197.3V25.9"/>
	<path class="st0" d="M391.6,283h-98.9 M391.6,283l-49.5,85.7 M391.6,283l-148.4,85.7 M243.2,368.6l98.9,0 M243.2,368.6l49.5-85.7
		 M391.6,283v171.3 M342.1,368.6l49.5,85.7 M292.7,283l-49.5-85.7 M391.6,283l-148.4-85.7 M540,197.3L391.6,283 M391.6,283h98.9
		 M490.5,283l49.5-85.7 M441.1,368.7L391.6,283 M441.1,368.7l-49.5,85.7 M441.1,368.7H540 M540,368.7L490.5,283 M391.6,283
		L540,368.7 M540,368.7V197.3"/>
	<path class="st0" d="M391.6,454.3l-98.9,0 M391.6,454.3L342.1,540 M391.6,454.3L243.2,540 M243.2,540l98.9,0 M243.2,540l49.5-85.7
		 M391.6,454.3v171.3 M342.1,540l49.5,85.7 M292.7,454.3l-49.5-85.7 M391.6,454.3l-148.4-85.7 M540,368.6l-148.4,85.7 M391.6,454.3
		h98.9 M490.5,454.3l49.5-85.7 M441.1,540l-49.5-85.7 M441.1,540l-49.5,85.7 M441.1,540H540 M540,540l-49.5-85.7 M391.6,454.3
		L540,540 M540,540V368.6"/>
	<path class="st0" d="M391.6,625.7l-98.9,0 M391.6,625.7l-49.5,85.7 M391.6,625.7l-148.4,85.7 M243.2,711.3l98.9,0 M243.2,711.3
		l49.5-85.7 M391.6,625.7V797 M342.1,711.3l49.5,85.7 M292.7,625.7L243.2,540 M391.6,625.7L243.2,540 M540,540l-148.4,85.7
		 M391.6,625.7h98.9 M490.5,625.7L540,540 M441.1,711.4l-49.5-85.7 M441.1,711.4L391.6,797 M441.1,711.4H540 M540,711.4l-49.5-85.7
		 M391.6,625.7L540,711.4 M540,711.4V540"/>
	<path class="st0" d="M391.6,797l-98.9,0 M391.6,797l-49.5,85.7 M391.6,797l-148.4,85.7 M243.2,882.7l98.9,0 M243.2,882.7l49.5-85.7
		 M391.6,797v171.3 M342.1,882.7l49.5,85.7 M292.7,797l-49.5-85.7 M391.6,797l-148.4-85.7 M540,711.3L391.6,797 M391.6,797h98.9
		 M490.5,797l49.5-85.7 M441.1,882.7L391.6,797 M441.1,882.7l-49.5,85.7 M441.1,882.7H540 M540,882.7L490.5,797 M391.6,797
		L540,882.7 M540,882.7V711.3"/>
	<path class="st0" d="M391.6,968.4l-148.4-85.7 M540,882.7l-148.4,85.7 M391.6,968.4h98.9 M490.5,968.4l49.5-85.7 M540,1054.1
		l-49.5-85.7 M391.6,968.4l148.4,85.7 M540,1054.1V882.7"/>
	<path class="st0" d="M688.4,111.6l-98.9,0 M688.4,111.6l-49.5,85.7 M688.4,111.6L540,197.3 M540,197.3l98.9,0 M540,197.3l49.5-85.7
		 M688.4,111.6V283 M638.9,197.3l49.5,85.7 M589.5,111.6L540,25.9 M688.4,111.6L540,25.9 M737.9,197.3l-49.5-85.7 M737.9,197.3
		L688.4,283 M737.9,197.3h98.9 M688.4,111.6l148.4,85.7"/>
	<path class="st0" d="M688.4,283h-98.9 M688.4,283l-49.5,85.7 M688.4,283L540,368.6 M540,368.6l98.9,0 M540,368.6l49.5-85.7
		 M688.4,283v171.3 M638.9,368.6l49.5,85.7 M589.5,283L540,197.3 M688.4,283L540,197.3 M836.8,197.3L688.4,283 M688.4,283h98.9
		 M787.3,283l49.5-85.7 M737.9,368.7L688.4,283 M737.9,368.7l-49.5,85.7 M737.9,368.7h98.9 M836.8,368.7L787.3,283 M688.4,283
		l148.4,85.7 M836.8,368.7l0-171.4"/>
	<path class="st0" d="M688.4,454.3l-98.9,0 M688.4,454.3L638.9,540 M688.4,454.3L540,540 M540,540l98.9,0 M540,540l49.5-85.7
		 M688.4,454.3v171.3 M638.9,540l49.5,85.7 M589.5,454.3L540,368.6 M688.4,454.3L540,368.6 M836.8,368.6l-148.4,85.7 M688.4,454.3
		h98.9 M787.3,454.3l49.5-85.7 M737.9,540l-49.5-85.7 M737.9,540l-49.5,85.7 M737.9,540h98.9 M836.8,540l-49.5-85.7 M688.4,454.3
		L836.8,540 M836.8,540l0-171.4"/>
	<path class="st0" d="M688.4,625.7l-98.9,0 M688.4,625.7l-49.5,85.7 M688.4,625.7L540,711.3 M540,711.3l98.9,0 M540,711.3l49.5-85.7
		 M688.4,625.7V797 M638.9,711.3l49.5,85.7 M589.5,625.7L540,540 M688.4,625.7L540,540 M836.8,540l-148.4,85.7 M688.4,625.7h98.9
		 M787.3,625.7l49.5-85.7 M737.9,711.4l-49.5-85.7 M737.9,711.4L688.4,797 M737.9,711.4h98.9 M836.8,711.4l-49.5-85.7 M688.4,625.7
		l148.4,85.7 M836.8,711.4l0-171.4"/>
	<path class="st0" d="M688.4,797l-98.9,0 M688.4,797l-49.5,85.7 M688.4,797L540,882.7 M540,882.7l98.9,0 M540,882.7l49.5-85.7
		 M688.4,797v171.3 M638.9,882.7l49.5,85.7 M589.5,797L540,711.3 M688.4,797L540,711.3 M836.8,711.3L688.4,797 M688.4,797h98.9
		 M787.3,797l49.5-85.7 M737.9,882.7L688.4,797 M737.9,882.7l-49.5,85.7 M737.9,882.7h98.9 M836.8,882.7L787.3,797 M688.4,797
		l148.4,85.7 M836.8,882.7l0-171.4"/>
	<path class="st0" d="M688.4,968.4l-98.9,0 M688.4,968.4L540,1054 M540,1054l49.5-85.7 M589.5,968.4L540,882.7 M688.4,968.4
		L540,882.7 M836.8,882.7l-148.4,85.7"/>
	<path class="st0" d="M985.2,283h-98.9 M985.2,283l-49.5,85.7 M985.2,283l-148.4,85.7 M836.8,368.6l98.9,0 M836.8,368.6l49.5-85.7
		 M985.2,283v171.3 M935.7,368.6l49.5,85.7 M886.3,283l-49.5-85.7 M985.2,283l-148.4-85.7"/>
	<path class="st0" d="M985.2,454.3l-98.9,0 M985.2,454.3L935.7,540 M985.2,454.3L836.8,540 M836.8,540l98.9,0 M836.8,540l49.5-85.7
		 M985.2,454.3v171.3 M935.7,540l49.5,85.7 M886.3,454.3l-49.5-85.7 M985.2,454.3l-148.4-85.7"/>
	<path class="st0" d="M985.2,625.7l-98.9,0 M985.2,625.7l-49.5,85.7 M985.2,625.7l-148.4,85.7 M836.8,711.3l98.9,0 M836.8,711.3
		l49.5-85.7 M985.2,625.7V797 M935.7,711.3l49.5,85.7 M886.3,625.7L836.8,540 M985.2,625.7L836.8,540"/>
	<path class="st0" d="M985.2,797l-98.9,0 M985.2,797l-148.4,85.7 M836.8,882.7l49.5-85.7 M886.3,797l-49.5-85.7 M985.2,797
		l-148.4-85.7"/>
	<polygon class="st1" points="517,968.4 477.2,945.4 454.3,905.7 454.3,859.7 477.2,820 517,797 562.9,797 602.7,820 625.6,859.7 
		625.6,905.7 602.7,945.4 562.9,968.4 	"/>
	<polygon class="st1" points="665.4,882.7 625.6,859.7 602.7,820 602.7,774.1 625.6,734.3 665.4,711.3 711.3,711.3 751.1,734.3 
		774,774.1 774,820 751.1,859.7 711.3,882.7 	"/>
	<polygon class="st1" points="368.6,882.7 328.8,859.7 305.9,820 305.9,774.1 328.8,734.3 368.6,711.3 414.5,711.3 454.3,734.3 
		477.2,774.1 477.2,820 454.3,859.7 414.5,882.7 	"/>
	<polygon class="st1" points="813.8,797 774,774.1 751.1,734.3 751.1,688.4 774,648.6 813.8,625.7 859.7,625.7 899.5,648.6 
		922.4,688.4 922.4,734.3 899.5,774.1 859.7,797 	"/>
	<polygon class="st1" points="517,797 477.2,774.1 454.3,734.3 454.3,688.4 477.2,648.6 517,625.7 562.9,625.7 602.7,648.6 
		625.6,688.4 625.6,734.3 602.7,774.1 562.9,797 	"/>
	<polygon class="st1" points="220.2,797 180.4,774.1 157.5,734.3 157.5,688.4 180.4,648.6 220.2,625.7 266.1,625.7 305.9,648.6 
		328.8,688.4 328.8,734.3 305.9,774.1 266.1,797 	"/>
	<polygon class="st1" points="665.4,711.3 625.6,688.4 602.7,648.6 602.7,602.7 625.6,563 665.4,540 711.3,540 751.1,563 774,602.7 
		774,648.6 751.1,688.4 711.3,711.3 	"/>
	<polygon class="st1" points="368.6,711.3 328.8,688.4 305.9,648.6 305.9,602.7 328.8,563 368.6,540 414.5,540 454.3,563 
		477.2,602.7 477.2,648.6 454.3,688.4 414.5,711.3 	"/>
	<polygon class="st1" points="813.8,625.7 774,602.7 751.1,563 751.1,517 774,477.3 813.8,454.3 859.7,454.3 899.5,477.3 922.4,517 
		922.4,563 899.5,602.7 859.7,625.7 	"/>
	<polygon class="st1" points="517,625.7 477.2,602.7 454.3,563 454.3,517 477.2,477.3 517,454.3 562.9,454.3 602.7,477.3 625.6,517 
		625.6,563 602.7,602.7 562.9,625.7 	"/>
	<polygon class="st1" points="220.2,625.7 180.4,602.7 157.5,563 157.5,517 180.4,477.3 220.2,454.3 266.1,454.3 305.9,477.3 
		328.9,517 328.9,563 305.9,602.7 266.1,625.7 	"/>
	<polygon class="st1" points="665.4,540 625.6,517 602.7,477.3 602.7,431.4 625.6,391.6 665.4,368.6 711.3,368.6 751.1,391.6 
		774,431.4 774,477.3 751.1,517 711.3,540 	"/>
	<polygon class="st1" points="368.6,540 328.8,517 305.9,477.3 305.9,431.4 328.8,391.6 368.6,368.6 414.5,368.6 454.3,391.6 
		477.2,431.4 477.2,477.3 454.3,517 414.5,540 	"/>
	<polygon class="st1" points="813.8,454.3 774,431.4 751.1,391.6 751.1,345.7 774,305.9 813.8,283 859.7,283 899.5,305.9 
		922.4,345.7 922.4,391.6 899.5,431.4 859.7,454.3 	"/>
	<polygon class="st1" points="517,454.3 477.2,431.4 454.3,391.6 454.3,345.7 477.2,305.9 517,283 562.9,283 602.7,305.9 
		625.6,345.7 625.6,391.6 602.7,431.4 562.9,454.3 	"/>
	<polygon class="st1" points="220.2,454.3 180.4,431.4 157.5,391.6 157.5,345.7 180.4,305.9 220.2,283 266.1,283 305.9,305.9 
		328.9,345.7 328.9,391.6 305.9,431.4 266.1,454.3 	"/>
	<polygon class="st1" points="665.4,368.6 625.6,345.7 602.7,305.9 602.7,260 625.6,220.3 665.4,197.3 711.3,197.3 751.1,220.3 
		774,260 774,305.9 751.1,345.7 711.3,368.6 	"/>
	<polygon class="st1" points="368.6,368.6 328.8,345.7 305.9,305.9 305.9,260 328.8,220.3 368.6,197.3 414.5,197.3 454.3,220.3 
		477.2,260 477.2,305.9 454.3,345.7 414.5,368.6 	"/>
	<polygon class="st1" points="517,283 477.2,260 454.3,220.3 454.3,174.3 477.2,134.6 517,111.6 562.9,111.6 602.7,134.6 
		625.6,174.3 625.6,220.3 602.7,260 562.9,283 	"/>
	<polygon class="st2" points="220.2,797 180.4,774.1 157.5,734.3 157.5,688.4 180.4,648.6 220.2,625.7 266.1,625.7 305.9,648.6 
		328.8,688.4 328.8,734.3 305.9,774.1 266.1,797 	"/>
	<polygon class="st2" points="328.8,734.3 328.8,688.4 368.6,711.3 	"/>
	<polygon class="st2" points="368.6,882.7 328.8,859.7 305.9,820 305.9,774.1 328.8,734.3 368.6,711.3 414.5,711.3 454.3,734.3 
		477.2,774.1 477.2,820 454.3,859.7 414.5,882.7 	"/>
	<polygon class="st2" points="477.2,820 477.2,774.1 517,797 	"/>
	<polygon class="st2" points="517,968.4 477.2,945.4 454.3,905.7 454.3,859.7 477.2,820 517,797 562.9,797 602.7,820 625.6,859.7 
		625.6,905.7 602.7,945.4 562.9,968.4 	"/>
	<polyline class="st2" points="625.6,905.7 625.6,859.7 665.4,882.7 	"/>
	<polyline class="st2" points="414.5,882.7 454.3,859.7 454.3,905.7 	"/>
	<line class="st2" x1="562.9" y1="968.4" x2="602.7" y2="945.4"/>
	<polygon class="st2" points="220.2,454.3 180.4,431.4 157.5,391.6 157.5,345.7 180.4,305.9 220.2,283 266.1,283 305.9,305.9 
		328.9,345.7 328.9,391.6 305.9,431.4 266.1,454.3 	"/>
	<polygon class="st2" points="328.9,391.6 328.9,345.7 368.6,368.6 	"/>
	<polygon class="st2" points="220.2,625.7 180.4,602.7 157.5,563 157.5,517 180.4,477.3 220.2,454.3 266.1,454.3 305.9,477.3 
		328.9,517 328.9,563 305.9,602.7 266.1,625.7 	"/>
	<polygon class="st2" points="368.6,540 328.8,517 305.9,477.3 305.9,431.4 328.8,391.6 368.6,368.6 414.5,368.6 454.3,391.6 
		477.2,431.4 477.2,477.3 454.3,517 414.5,540 	"/>
	<polygon class="st2" points="328.9,563 328.9,517 368.6,540 	"/>
	<polygon class="st2" points="477.2,477.3 477.2,431.4 517,454.3 	"/>
	<polygon class="st2" points="305.9,477.3 266.1,454.3 305.9,431.4 	"/>
	<polygon class="st2" points="305.9,648.6 266.1,625.7 305.9,602.7 	"/>
	<polygon class="st2" points="368.6,711.3 328.8,688.4 305.9,648.6 305.9,602.7 328.8,563 368.6,540 414.5,540 454.3,563 
		477.2,602.7 477.2,648.6 454.3,688.4 414.5,711.3 	"/>
	<polygon class="st2" points="517,625.7 477.2,602.7 454.3,563 454.3,517 477.2,477.3 517,454.3 562.9,454.3 602.7,477.3 625.6,517 
		625.6,563 602.7,602.7 562.9,625.7 	"/>
	<polygon class="st2" points="477.2,648.6 477.2,602.7 517,625.7 	"/>
	<polygon class="st2" points="625.6,563 625.6,517 665.4,540 	"/>
	<polygon class="st2" points="454.3,563 414.5,540 454.3,517 	"/>
	<polygon class="st2" points="454.3,734.3 414.5,711.3 454.3,688.4 	"/>
	<polygon class="st2" points="517,797 477.2,774.1 454.3,734.3 454.3,688.4 477.2,648.6 517,625.7 562.9,625.7 602.7,648.6 
		625.6,688.4 625.6,734.3 602.7,774.1 562.9,797 	"/>
	<polygon class="st2" points="665.4,711.3 625.6,688.4 602.7,648.6 602.7,602.7 625.6,563 665.4,540 711.3,540 751.1,563 774,602.7 
		774,648.6 751.1,688.4 711.3,711.3 	"/>
	<polygon class="st2" points="625.6,734.3 625.6,688.4 665.4,711.3 	"/>
	<polygon class="st2" points="774,648.6 774,602.7 813.8,625.7 	"/>
	<polygon class="st2" points="602.7,648.6 562.9,625.7 602.7,602.7 	"/>
	<polygon class="st2" points="602.7,820 562.9,797 602.7,774.1 	"/>
	<polygon class="st2" points="665.4,882.7 625.6,859.7 602.7,820 602.7,774.1 625.6,734.3 665.4,711.3 711.3,711.3 751.1,734.3 
		774,774.1 774,820 751.1,859.7 711.3,882.7 	"/>
	<polygon class="st2" points="813.8,797 774,774.1 751.1,734.3 751.1,688.4 774,648.6 813.8,625.7 859.7,625.7 899.5,648.6 
		922.4,688.4 922.4,734.3 899.5,774.1 859.7,797 	"/>
	<polygon class="st2" points="751.1,734.3 711.3,711.3 751.1,688.4 	"/>
	<line class="st2" x1="517" y1="111.6" x2="477.2" y2="134.6"/>
	<polygon class="st2" points="368.6,368.6 328.8,345.7 305.9,305.9 305.9,260 328.8,220.3 368.6,197.3 414.5,197.3 454.3,220.3 
		477.2,260 477.2,305.9 454.3,345.7 414.5,368.6 	"/>
	<polygon class="st2" points="517,283 477.2,260 454.3,220.3 454.3,174.3 477.2,134.6 517,111.6 562.9,111.6 602.7,134.6 
		625.6,174.3 625.6,220.3 602.7,260 562.9,283 	"/>
	<polygon class="st2" points="477.2,305.9 477.2,260 517,283 	"/>
	<polyline class="st2" points="665.4,197.3 625.6,220.3 625.6,174.3 	"/>
	<polyline class="st2" points="454.3,174.3 454.3,220.3 414.5,197.3 	"/>
	<polygon class="st2" points="454.3,391.6 414.5,368.6 454.3,345.7 	"/>
	<polygon class="st2" points="517,454.3 477.2,431.4 454.3,391.6 454.3,345.7 477.2,305.9 517,283 562.9,283 602.7,305.9 
		625.6,345.7 625.6,391.6 602.7,431.4 562.9,454.3 	"/>
	<polygon class="st2" points="665.4,368.6 625.6,345.7 602.7,305.9 602.7,260 625.6,220.3 665.4,197.3 711.3,197.3 751.1,220.3 
		774,260 774,305.9 751.1,345.7 711.3,368.6 	"/>
	<polygon class="st2" points="625.6,391.6 625.6,345.7 665.4,368.6 	"/>
	<polygon class="st2" points="602.7,305.9 562.9,283 602.7,260 	"/>
	<polygon class="st2" points="602.7,477.3 562.9,454.3 602.7,431.4 	"/>
	<polygon class="st2" points="665.4,540 625.6,517 602.7,477.3 602.7,431.4 625.6,391.6 665.4,368.6 711.3,368.6 751.1,391.6 
		774,431.4 774,477.3 751.1,517 711.3,540 	"/>
	<polygon class="st2" points="813.8,454.3 774,431.4 751.1,391.6 751.1,345.7 774,305.9 813.8,283 859.7,283 899.5,305.9 
		922.4,345.7 922.4,391.6 899.5,431.4 859.7,454.3 	"/>
	<polygon class="st2" points="774,477.3 774,431.4 813.8,454.3 	"/>
	<polygon class="st2" points="751.1,391.6 711.3,368.6 751.1,345.7 	"/>
	<polygon class="st2" points="751.1,563 711.3,540 751.1,517 	"/>
	<polygon class="st2" points="813.8,625.7 774,602.7 751.1,563 751.1,517 774,477.3 813.8,454.3 859.7,454.3 899.5,477.3 922.4,517 
		922.4,563 899.5,602.7 859.7,625.7 	"/>
	<line class="st2" x1="602.7" y1="134.6" x2="562.9" y2="111.6"/>
	<path class="st2" d="M144.3,368.7h98.9 M243.2,368.7L193.7,283 M94.8,283l148.4,85.7 M243.2,368.7V197.3"/>
	<path class="st2" d="M243.2,368.6L94.8,454.3 M193.7,454.3l49.5-85.7 M144.3,540h98.9 M243.2,540l-49.5-85.7 M94.8,454.3L243.2,540
		 M243.2,540V368.6"/>
	<path class="st2" d="M243.2,540L94.8,625.7 M193.7,625.7l49.5-85.7 M144.3,711.4h98.9 M243.2,711.4l-49.5-85.7 M94.8,625.7
		l148.4,85.7 M243.2,711.4V540"/>
	<path class="st2" d="M243.2,711.3L94.8,797 M193.7,797l49.5-85.7 M243.2,882.7V711.3"/>
	<path class="st2" d="M391.6,111.6 M342.1,197.3 M391.6,111.6 M391.6,111.6V283 M342.1,197.3l49.5,85.7 M391.6,111.6 M391.6,111.6
		 M540,25.9 M490.5,111.6 M391.6,111.6 M540,25.9 M490.5,111.6 M391.6,111.6 M441.1,197.3 M441.1,197.3L391.6,283 M441.1,197.3H540
		 M540,197.3l-49.5-85.7 M391.6,111.6L540,197.3 M540,197.3V25.9"/>
	<path class="st2" d="M391.6,283h-98.9 M391.6,283l-49.5,85.7 M391.6,283l-148.4,85.7 M243.2,368.6l98.9,0 M243.2,368.6l49.5-85.7
		 M391.6,283v171.3 M342.1,368.6l49.5,85.7 M391.6,283l-148.4-85.7 M540,197.3L391.6,283 M391.6,283h98.9 M490.5,283l49.5-85.7
		 M441.1,368.7L391.6,283 M441.1,368.7l-49.5,85.7 M441.1,368.7H540 M540,368.7L490.5,283 M391.6,283L540,368.7 M540,368.7V197.3"/>
	<path class="st2" d="M391.6,454.3l-98.9,0 M391.6,454.3L342.1,540 M391.6,454.3L243.2,540 M243.2,540l98.9,0 M243.2,540l49.5-85.7
		 M391.6,454.3v171.3 M342.1,540l49.5,85.7 M292.7,454.3l-49.5-85.7 M391.6,454.3l-148.4-85.7 M540,368.6l-148.4,85.7 M391.6,454.3
		h98.9 M490.5,454.3l49.5-85.7 M441.1,540l-49.5-85.7 M441.1,540l-49.5,85.7 M441.1,540H540 M540,540l-49.5-85.7 M391.6,454.3
		L540,540 M540,540V368.6"/>
	<path class="st2" d="M391.6,625.7l-98.9,0 M391.6,625.7l-49.5,85.7 M391.6,625.7l-148.4,85.7 M243.2,711.3l98.9,0 M243.2,711.3
		l49.5-85.7 M391.6,625.7V797 M342.1,711.3l49.5,85.7 M292.7,625.7L243.2,540 M391.6,625.7L243.2,540 M540,540l-148.4,85.7
		 M391.6,625.7h98.9 M490.5,625.7L540,540 M441.1,711.4l-49.5-85.7 M441.1,711.4L391.6,797 M441.1,711.4H540 M540,711.4l-49.5-85.7
		 M391.6,625.7L540,711.4 M540,711.4V540"/>
	<path class="st2" d="M391.6,797l-98.9,0 M391.6,797l-49.5,85.7 M391.6,797l-148.4,85.7 M391.6,797v171.3 M391.6,968.4 M342.1,882.7
		 M292.7,797l-49.5-85.7 M391.6,797l-148.4-85.7 M540,711.3L391.6,797 M391.6,797h98.9 M490.5,797l49.5-85.7 M441.1,882.7L391.6,797
		 M391.6,968.4 M441.1,882.7 M441.1,882.7H540 M540,882.7L490.5,797 M391.6,797L540,882.7 M540,882.7V711.3"/>
	<path class="st2" d="M391.6,968.4 M391.6,968.4 M540,882.7l-148.4,85.7 M490.5,968.4 M391.6,968.4 M490.5,968.4l49.5-85.7
		 M490.5,968.4 M540,1054.1 M540,1054.1 M391.6,968.4 M540,1054.1V882.7"/>
	<path class="st2" d="M589.5,111.6 M688.4,111.6 M638.9,197.3 M688.4,111.6 M688.4,111.6L540,197.3 M540,197.3l98.9,0 M540,197.3
		l49.5-85.7 M688.4,111.6V283 M638.9,197.3l49.5,85.7 M540,25.9 M589.5,111.6 M540,25.9 M688.4,111.6 M688.4,111.6 M688.4,111.6
		 M688.4,111.6 M737.9,197.3 M737.9,197.3L688.4,283"/>
	<path class="st2" d="M688.4,283h-98.9 M688.4,283l-49.5,85.7 M688.4,283L540,368.6 M540,368.6l98.9,0 M540,368.6l49.5-85.7
		 M688.4,283v171.3 M638.9,368.6l49.5,85.7 M589.5,283L540,197.3 M688.4,283L540,197.3 M836.8,197.3L688.4,283 M688.4,283h98.9
		 M737.9,368.7L688.4,283 M737.9,368.7l-49.5,85.7 M737.9,368.7h98.9 M836.8,368.7L787.3,283 M688.4,283l148.4,85.7 M836.8,368.7
		l0-171.4"/>
	<path class="st2" d="M688.4,454.3l-98.9,0 M688.4,454.3L638.9,540 M688.4,454.3L540,540 M540,540l98.9,0 M540,540l49.5-85.7
		 M688.4,454.3v171.3 M638.9,540l49.5,85.7 M589.5,454.3L540,368.6 M688.4,454.3L540,368.6 M836.8,368.6l-148.4,85.7 M688.4,454.3
		h98.9 M787.3,454.3l49.5-85.7 M737.9,540l-49.5-85.7 M737.9,540l-49.5,85.7 M737.9,540h98.9 M836.8,540l-49.5-85.7 M688.4,454.3
		L836.8,540 M836.8,540l0-171.4"/>
	<path class="st2" d="M688.4,625.7l-98.9,0 M688.4,625.7l-49.5,85.7 M688.4,625.7L540,711.3 M540,711.3l98.9,0 M540,711.3l49.5-85.7
		 M688.4,625.7V797 M638.9,711.3l49.5,85.7 M589.5,625.7L540,540 M688.4,625.7L540,540 M836.8,540l-148.4,85.7 M688.4,625.7h98.9
		 M787.3,625.7l49.5-85.7 M737.9,711.4l-49.5-85.7 M737.9,711.4L688.4,797 M737.9,711.4h98.9 M836.8,711.4l-49.5-85.7 M688.4,625.7
		l148.4,85.7 M836.8,711.4l0-171.4"/>
	<path class="st2" d="M688.4,797l-98.9,0 M688.4,797l-49.5,85.7 M688.4,797L540,882.7 M540,882.7l98.9,0 M540,882.7l49.5-85.7
		 M688.4,797v171.3 M688.4,968.4 M638.9,882.7 M589.5,797L540,711.3 M688.4,797L540,711.3 M836.8,711.3L688.4,797 M688.4,797h98.9
		 M787.3,797l49.5-85.7 M737.9,882.7L688.4,797 M688.4,968.4 M737.9,882.7 M688.4,797l148.4,85.7 M836.8,882.7l0-171.4"/>
	<path class="st2" d="M589.5,968.4 M688.4,968.4 M540,1054 M688.4,968.4 M589.5,968.4 M540,1054 M589.5,968.4L540,882.7
		 M688.4,968.4L540,882.7 M688.4,968.4 M688.4,968.4"/>
	<path class="st2" d="M985.2,283l-148.4,85.7 M836.8,368.6l98.9,0 M836.8,368.6l49.5-85.7"/>
	<path class="st2" d="M985.2,454.3L836.8,540 M836.8,540l98.9,0 M836.8,540l49.5-85.7 M985.2,625.7 M985.2,454.3 M886.3,454.3
		l-49.5-85.7 M985.2,454.3l-148.4-85.7"/>
	<path class="st2" d="M886.3,625.7 M985.2,625.7 M985.2,625.7l-148.4,85.7 M836.8,711.3l98.9,0 M836.8,711.3l49.5-85.7 M886.3,625.7
		L836.8,540 M985.2,625.7L836.8,540"/>
	<path class="st2" d="M886.3,797l-49.5-85.7 M985.2,797l-148.4-85.7"/>
	<line class="st0" x1="699.3" y1="282.9" x2="787.3" y2="283"/>
	<line class="st0" x1="677.5" y1="282.9" x2="589.5" y2="283"/>
	<line class="st0" x1="693.8" y1="273.5" x2="737.9" y2="197.3"/>
	<line class="st0" x1="682.9" y1="273.4" x2="638.9" y2="197.3"/>
	<line class="st0" x1="683" y1="292.4" x2="638.9" y2="368.6"/>
	<line class="st0" x1="693.8" y1="292.4" x2="737.9" y2="368.6"/>
	<line class="st0" x1="254.1" y1="368.6" x2="342.1" y2="368.6"/>
	<line class="st0" x1="232.3" y1="368.6" x2="144.3" y2="368.6"/>
	<line class="st0" x1="248.6" y1="359.2" x2="292.7" y2="283"/>
	<line class="st0" x1="237.7" y1="359.1" x2="193.7" y2="283"/>
	<line class="st0" x1="237.8" y1="378" x2="193.7" y2="454.3"/>
	<line class="st0" x1="248.6" y1="378" x2="292.7" y2="454.3"/>
	<line class="st0" x1="550.9" y1="368.6" x2="638.9" y2="368.6"/>
	<line class="st0" x1="529.1" y1="368.6" x2="441.1" y2="368.7"/>
	<line class="st0" x1="545.4" y1="359.2" x2="589.5" y2="283"/>
	<line class="st0" x1="534.5" y1="359.1" x2="490.5" y2="283"/>
	<line class="st0" x1="534.6" y1="378" x2="490.5" y2="454.3"/>
	<line class="st0" x1="545.4" y1="378" x2="589.5" y2="454.3"/>
	<line class="st0" x1="847.7" y1="368.6" x2="935.7" y2="368.6"/>
	<line class="st0" x1="825.9" y1="368.6" x2="737.9" y2="368.6"/>
	<line class="st0" x1="842.2" y1="359.2" x2="886.3" y2="283"/>
	<line class="st0" x1="831.3" y1="359.1" x2="787.3" y2="283"/>
	<line class="st0" x1="831.4" y1="378" x2="787.3" y2="454.3"/>
	<line class="st0" x1="842.2" y1="378" x2="886.3" y2="454.3"/>
	<line class="st0" x1="402.5" y1="282.9" x2="490.5" y2="283"/>
	<line class="st0" x1="380.7" y1="282.9" x2="292.7" y2="283"/>
	<line class="st0" x1="397" y1="273.5" x2="441.1" y2="197.3"/>
	<line class="st0" x1="386.1" y1="273.4" x2="342.1" y2="197.3"/>
	<line class="st0" x1="386.2" y1="292.4" x2="342.1" y2="368.6"/>
	<line class="st0" x1="397" y1="292.4" x2="441.1" y2="368.6"/>
	<line class="st0" x1="402.5" y1="454.3" x2="490.5" y2="454.3"/>
	<line class="st0" x1="380.7" y1="454.3" x2="292.7" y2="454.3"/>
	<line class="st0" x1="397" y1="444.9" x2="441.1" y2="368.6"/>
	<line class="st0" x1="386.1" y1="444.7" x2="342.1" y2="368.6"/>
	<line class="st0" x1="386.2" y1="463.7" x2="342.1" y2="540"/>
	<line class="st0" x1="397" y1="463.7" x2="441.1" y2="540"/>
	<line class="st0" x1="699.3" y1="454.3" x2="787.3" y2="454.3"/>
	<line class="st0" x1="677.5" y1="454.3" x2="589.5" y2="454.3"/>
	<line class="st0" x1="693.8" y1="444.9" x2="737.9" y2="368.6"/>
	<line class="st0" x1="682.9" y1="444.7" x2="638.9" y2="368.6"/>
	<line class="st0" x1="683" y1="463.7" x2="638.9" y2="540"/>
	<line class="st0" x1="693.8" y1="463.7" x2="737.9" y2="540"/>
	<line class="st0" x1="254.1" y1="540" x2="342.1" y2="540"/>
	<line class="st0" x1="232.3" y1="540" x2="144.3" y2="540"/>
	<line class="st0" x1="248.6" y1="530.6" x2="292.7" y2="454.3"/>
	<line class="st0" x1="237.7" y1="530.4" x2="193.7" y2="454.3"/>
	<line class="st0" x1="237.8" y1="549.4" x2="193.7" y2="625.7"/>
	<line class="st0" x1="248.6" y1="549.4" x2="292.7" y2="625.7"/>
	<line class="st0" x1="550.9" y1="540" x2="638.9" y2="540"/>
	<line class="st0" x1="529.1" y1="540" x2="441.1" y2="540"/>
	<line class="st0" x1="545.4" y1="530.6" x2="589.5" y2="454.3"/>
	<line class="st0" x1="534.5" y1="530.4" x2="490.5" y2="454.3"/>
	<line class="st0" x1="534.6" y1="549.4" x2="490.5" y2="625.7"/>
	<line class="st0" x1="545.4" y1="549.4" x2="589.5" y2="625.7"/>
	<line class="st0" x1="847.7" y1="540" x2="935.7" y2="540"/>
	<line class="st0" x1="825.9" y1="540" x2="737.9" y2="540"/>
	<line class="st0" x1="842.2" y1="530.6" x2="886.3" y2="454.3"/>
	<line class="st0" x1="831.3" y1="530.4" x2="787.3" y2="454.3"/>
	<line class="st0" x1="831.4" y1="549.4" x2="787.3" y2="625.7"/>
	<line class="st0" x1="842.2" y1="549.4" x2="886.3" y2="625.7"/>
	<line class="st0" x1="402.5" y1="625.6" x2="490.5" y2="625.7"/>
	<line class="st0" x1="380.7" y1="625.6" x2="292.7" y2="625.7"/>
	<line class="st0" x1="397" y1="616.2" x2="441.1" y2="540"/>
	<line class="st0" x1="386.1" y1="616.1" x2="342.1" y2="540"/>
	<line class="st0" x1="386.2" y1="635" x2="342.1" y2="711.3"/>
	<line class="st0" x1="397" y1="635" x2="441.1" y2="711.3"/>
	<line class="st0" x1="699.3" y1="625.6" x2="787.3" y2="625.7"/>
	<line class="st0" x1="677.5" y1="625.6" x2="589.5" y2="625.7"/>
	<line class="st0" x1="693.8" y1="616.2" x2="737.9" y2="540"/>
	<line class="st0" x1="682.9" y1="616.1" x2="638.9" y2="540"/>
	<line class="st0" x1="683" y1="635" x2="638.9" y2="711.3"/>
	<line class="st0" x1="693.8" y1="635" x2="737.9" y2="711.3"/>
	<line class="st0" x1="254.1" y1="711.3" x2="342.1" y2="711.3"/>
	<line class="st0" x1="232.3" y1="711.3" x2="144.3" y2="711.3"/>
	<line class="st0" x1="248.6" y1="701.9" x2="292.7" y2="625.7"/>
	<line class="st0" x1="237.7" y1="701.8" x2="193.7" y2="625.7"/>
	<line class="st0" x1="237.8" y1="720.7" x2="193.7" y2="797"/>
	<line class="st0" x1="248.6" y1="720.7" x2="292.7" y2="797"/>
	<line class="st0" x1="550.9" y1="711.3" x2="638.9" y2="711.3"/>
	<line class="st0" x1="529.1" y1="711.3" x2="441.1" y2="711.3"/>
	<line class="st0" x1="545.4" y1="701.9" x2="589.5" y2="625.7"/>
	<line class="st0" x1="534.5" y1="701.8" x2="490.5" y2="625.7"/>
	<line class="st0" x1="534.6" y1="720.7" x2="490.5" y2="797"/>
	<line class="st0" x1="545.4" y1="720.7" x2="589.5" y2="797"/>
	<line class="st0" x1="847.7" y1="711.3" x2="935.7" y2="711.3"/>
	<line class="st0" x1="825.9" y1="711.3" x2="737.9" y2="711.3"/>
	<line class="st0" x1="842.2" y1="701.9" x2="886.3" y2="625.7"/>
	<line class="st0" x1="831.3" y1="701.8" x2="787.3" y2="625.7"/>
	<line class="st0" x1="831.4" y1="720.7" x2="787.3" y2="797"/>
	<line class="st0" x1="842.2" y1="720.7" x2="886.3" y2="797"/>
	<line class="st0" x1="402.5" y1="797" x2="490.5" y2="797"/>
	<line class="st0" x1="380.7" y1="797" x2="292.7" y2="797"/>
	<line class="st0" x1="397" y1="787.6" x2="441.1" y2="711.3"/>
	<line class="st0" x1="386.1" y1="787.5" x2="342.1" y2="711.3"/>
	<line class="st0" x1="386.2" y1="806.4" x2="342.1" y2="882.7"/>
	<line class="st0" x1="397" y1="806.4" x2="441.1" y2="882.7"/>
	<line class="st0" x1="699.3" y1="797" x2="787.3" y2="797"/>
	<line class="st0" x1="677.5" y1="797" x2="589.5" y2="797"/>
	<line class="st0" x1="693.8" y1="787.6" x2="737.9" y2="711.3"/>
	<line class="st0" x1="682.9" y1="787.5" x2="638.9" y2="711.3"/>
	<line class="st0" x1="683" y1="806.4" x2="638.9" y2="882.7"/>
	<line class="st0" x1="693.8" y1="806.4" x2="737.9" y2="882.7"/>
	<line class="st0" x1="550.9" y1="882.7" x2="638.9" y2="882.7"/>
	<line class="st0" x1="529.1" y1="882.7" x2="441.1" y2="882.7"/>
	<line class="st0" x1="545.4" y1="873.3" x2="589.5" y2="797"/>
	<line class="st0" x1="534.5" y1="873.1" x2="490.5" y2="797"/>
	<line class="st0" x1="534.6" y1="892.1" x2="490.5" y2="968.4"/>
	<line class="st0" x1="545.4" y1="892.1" x2="589.5" y2="968.4"/>
	<line class="st0" x1="550.9" y1="197.3" x2="638.9" y2="197.3"/>
	<line class="st0" x1="529.1" y1="197.3" x2="441.1" y2="197.3"/>
	<line class="st0" x1="545.4" y1="187.9" x2="589.5" y2="111.6"/>
	<line class="st0" x1="534.5" y1="187.7" x2="490.5" y2="111.6"/>
	<line class="st0" x1="534.6" y1="206.7" x2="490.5" y2="283"/>
	<line class="st0" x1="545.4" y1="206.7" x2="589.5" y2="283"/>
	<line class="st0" x1="550.9" y1="197.3" x2="638.9" y2="197.3"/>
	<line class="st0" x1="529.1" y1="197.3" x2="441.1" y2="197.3"/>
	<line class="st0" x1="545.4" y1="187.9" x2="589.5" y2="111.6"/>
	<line class="st0" x1="534.5" y1="187.7" x2="490.5" y2="111.6"/>
	<line class="st0" x1="534.6" y1="206.7" x2="490.5" y2="283"/>
	<line class="st0" x1="545.4" y1="206.7" x2="589.5" y2="283"/>
	<line class="st3" x1="540" y1="111.6" x2="540" y2="197.3"/>
	<line class="st3" x1="540" y1="283" x2="540" y2="197.3"/>
	<line class="st3" x1="454.3" y1="197.3" x2="540" y2="197.3"/>
	<line class="st3" x1="625.6" y1="197.3" x2="540" y2="197.3"/>
	<line class="st3" x1="465.8" y1="240.1" x2="540" y2="197.3"/>
	<line class="st3" x1="614.2" y1="154.5" x2="540" y2="197.3"/>
	<line class="st3" x1="614.2" y1="240.1" x2="540" y2="197.3"/>
	<line class="st3" x1="465.8" y1="154.5" x2="540" y2="197.3"/>
	<line class="st3" x1="582.8" y1="271.5" x2="540" y2="197.3"/>
	<line class="st3" x1="497.1" y1="123.1" x2="540" y2="197.3"/>
	<line class="st3" x1="497.1" y1="271.5" x2="540" y2="197.3"/>
	<line class="st3" x1="582.8" y1="123.1" x2="540" y2="197.3"/>
	<line class="st3" x1="540" y1="283" x2="540" y2="368.6"/>
	<line class="st3" x1="540" y1="454.3" x2="540" y2="368.6"/>
	<line class="st3" x1="454.3" y1="368.7" x2="540" y2="368.7"/>
	<line class="st3" x1="625.6" y1="368.7" x2="540" y2="368.7"/>
	<line class="st3" x1="465.8" y1="411.5" x2="540" y2="368.7"/>
	<line class="st3" x1="614.2" y1="325.8" x2="540" y2="368.7"/>
	<line class="st3" x1="614.2" y1="411.5" x2="540" y2="368.7"/>
	<line class="st3" x1="465.8" y1="325.8" x2="540" y2="368.7"/>
	<line class="st3" x1="582.8" y1="442.8" x2="540" y2="368.7"/>
	<line class="st3" x1="497.1" y1="294.5" x2="540" y2="368.7"/>
	<line class="st3" x1="497.1" y1="442.9" x2="540" y2="368.7"/>
	<line class="st3" x1="582.8" y1="294.5" x2="540" y2="368.7"/>
	<line class="st3" x1="391.6" y1="197.2" x2="391.6" y2="282.9"/>
	<line class="st3" x1="391.6" y1="368.6" x2="391.6" y2="282.9"/>
	<line class="st3" x1="305.9" y1="282.9" x2="391.6" y2="282.9"/>
	<line class="st3" x1="477.2" y1="282.9" x2="391.6" y2="282.9"/>
	<line class="st3" x1="317.4" y1="325.7" x2="391.6" y2="282.9"/>
	<line class="st3" x1="465.8" y1="240.1" x2="391.6" y2="282.9"/>
	<line class="st3" x1="465.8" y1="325.7" x2="391.6" y2="282.9"/>
	<line class="st3" x1="317.4" y1="240.1" x2="391.6" y2="282.9"/>
	<line class="st3" x1="434.4" y1="357.1" x2="391.6" y2="282.9"/>
	<line class="st3" x1="348.7" y1="208.7" x2="391.6" y2="282.9"/>
	<line class="st3" x1="348.7" y1="357.1" x2="391.6" y2="282.9"/>
	<line class="st3" x1="434.4" y1="208.7" x2="391.6" y2="282.9"/>
	<line class="st3" x1="688.4" y1="197.2" x2="688.4" y2="282.9"/>
	<line class="st3" x1="688.4" y1="368.6" x2="688.4" y2="282.9"/>
	<line class="st3" x1="602.7" y1="282.9" x2="688.4" y2="282.9"/>
	<line class="st3" x1="774.1" y1="282.9" x2="688.4" y2="282.9"/>
	<line class="st3" x1="614.2" y1="325.7" x2="688.4" y2="282.9"/>
	<line class="st3" x1="762.6" y1="240.1" x2="688.4" y2="282.9"/>
	<line class="st3" x1="762.6" y1="325.7" x2="688.4" y2="282.9"/>
	<line class="st3" x1="614.2" y1="240.1" x2="688.4" y2="282.9"/>
	<line class="st3" x1="731.2" y1="357.1" x2="688.4" y2="282.9"/>
	<line class="st3" x1="645.6" y1="208.7" x2="688.4" y2="282.9"/>
	<line class="st3" x1="645.6" y1="357.1" x2="688.4" y2="282.9"/>
	<line class="st3" x1="731.2" y1="208.7" x2="688.4" y2="282.9"/>
	<line class="st3" x1="243.2" y1="283" x2="243.2" y2="368.6"/>
	<line class="st3" x1="243.2" y1="454.3" x2="243.2" y2="368.6"/>
	<line class="st3" x1="157.5" y1="368.7" x2="243.2" y2="368.7"/>
	<line class="st3" x1="328.9" y1="368.7" x2="243.2" y2="368.7"/>
	<line class="st3" x1="169" y1="411.5" x2="243.2" y2="368.7"/>
	<line class="st3" x1="317.4" y1="325.8" x2="243.2" y2="368.7"/>
	<line class="st3" x1="317.4" y1="411.5" x2="243.2" y2="368.7"/>
	<line class="st3" x1="169" y1="325.8" x2="243.2" y2="368.7"/>
	<line class="st3" x1="286" y1="442.8" x2="243.2" y2="368.7"/>
	<line class="st3" x1="200.3" y1="294.5" x2="243.2" y2="368.7"/>
	<line class="st3" x1="200.3" y1="442.8" x2="243.2" y2="368.7"/>
	<line class="st3" x1="286" y1="294.5" x2="243.2" y2="368.7"/>
	<line class="st3" x1="243.2" y1="454.3" x2="243.2" y2="540"/>
	<line class="st3" x1="243.2" y1="625.7" x2="243.2" y2="540"/>
	<line class="st3" x1="157.5" y1="540" x2="243.2" y2="540"/>
	<line class="st3" x1="328.9" y1="540" x2="243.2" y2="540"/>
	<line class="st3" x1="169" y1="582.8" x2="243.2" y2="540"/>
	<line class="st3" x1="317.4" y1="497.2" x2="243.2" y2="540"/>
	<line class="st3" x1="317.4" y1="582.8" x2="243.2" y2="540"/>
	<line class="st3" x1="169" y1="497.2" x2="243.2" y2="540"/>
	<line class="st3" x1="286" y1="614.2" x2="243.2" y2="540"/>
	<line class="st3" x1="200.3" y1="465.8" x2="243.2" y2="540"/>
	<line class="st3" x1="200.3" y1="614.2" x2="243.2" y2="540"/>
	<line class="st3" x1="286" y1="465.8" x2="243.2" y2="540"/>
	<line class="st3" x1="391.6" y1="368.6" x2="391.6" y2="454.3"/>
	<line class="st3" x1="391.6" y1="539.9" x2="391.6" y2="454.3"/>
	<line class="st3" x1="305.9" y1="454.3" x2="391.6" y2="454.3"/>
	<line class="st3" x1="477.3" y1="454.3" x2="391.6" y2="454.3"/>
	<line class="st3" x1="317.4" y1="497.1" x2="391.6" y2="454.3"/>
	<line class="st3" x1="465.8" y1="411.4" x2="391.6" y2="454.3"/>
	<line class="st3" x1="465.8" y1="497.1" x2="391.6" y2="454.3"/>
	<line class="st3" x1="317.4" y1="411.4" x2="391.6" y2="454.3"/>
	<line class="st3" x1="434.5" y1="528.5" x2="391.6" y2="454.3"/>
	<line class="st3" x1="348.8" y1="380.1" x2="391.6" y2="454.3"/>
	<line class="st3" x1="348.8" y1="528.5" x2="391.6" y2="454.3"/>
	<line class="st3" x1="434.5" y1="380.1" x2="391.6" y2="454.3"/>
	<line class="st3" x1="540" y1="797" x2="540" y2="711.3"/>
	<line class="st3" x1="540" y1="625.6" x2="540" y2="711.3"/>
	<line class="st3" x1="625.7" y1="711.3" x2="540" y2="711.3"/>
	<line class="st3" x1="454.4" y1="711.3" x2="540" y2="711.3"/>
	<line class="st3" x1="614.2" y1="668.5" x2="540" y2="711.3"/>
	<line class="st3" x1="465.8" y1="754.1" x2="540" y2="711.3"/>
	<line class="st3" x1="465.8" y1="668.5" x2="540" y2="711.3"/>
	<line class="st3" x1="614.2" y1="754.1" x2="540" y2="711.3"/>
	<line class="st3" x1="497.2" y1="637.1" x2="540" y2="711.3"/>
	<line class="st3" x1="582.9" y1="785.5" x2="540" y2="711.3"/>
	<line class="st3" x1="582.9" y1="637.1" x2="540" y2="711.3"/>
	<line class="st3" x1="497.2" y1="785.5" x2="540" y2="711.3"/>
	<line class="st3" x1="540" y1="625.6" x2="540" y2="539.9"/>
	<line class="st3" x1="540" y1="454.3" x2="540" y2="539.9"/>
	<line class="st3" x1="625.7" y1="539.9" x2="540" y2="539.9"/>
	<line class="st3" x1="454.4" y1="539.9" x2="540" y2="539.9"/>
	<line class="st3" x1="614.2" y1="497.1" x2="540" y2="539.9"/>
	<line class="st3" x1="465.8" y1="582.8" x2="540" y2="539.9"/>
	<line class="st3" x1="465.8" y1="497.1" x2="540" y2="539.9"/>
	<line class="st3" x1="614.2" y1="582.8" x2="540" y2="539.9"/>
	<line class="st3" x1="497.2" y1="465.7" x2="540" y2="539.9"/>
	<line class="st3" x1="582.9" y1="614.1" x2="540" y2="539.9"/>
	<line class="st3" x1="582.9" y1="465.7" x2="540" y2="539.9"/>
	<line class="st3" x1="497.2" y1="614.1" x2="540" y2="539.9"/>
	<line class="st3" x1="688.4" y1="711.4" x2="688.4" y2="625.7"/>
	<line class="st3" x1="688.4" y1="540" x2="688.4" y2="625.7"/>
	<line class="st3" x1="774.1" y1="625.7" x2="688.4" y2="625.7"/>
	<line class="st3" x1="602.8" y1="625.7" x2="688.4" y2="625.7"/>
	<line class="st3" x1="762.6" y1="582.8" x2="688.4" y2="625.7"/>
	<line class="st3" x1="614.2" y1="668.5" x2="688.4" y2="625.7"/>
	<line class="st3" x1="614.2" y1="582.8" x2="688.4" y2="625.7"/>
	<line class="st3" x1="762.6" y1="668.5" x2="688.4" y2="625.7"/>
	<line class="st3" x1="645.6" y1="551.5" x2="688.4" y2="625.7"/>
	<line class="st3" x1="731.3" y1="699.9" x2="688.4" y2="625.7"/>
	<line class="st3" x1="731.3" y1="551.5" x2="688.4" y2="625.7"/>
	<line class="st3" x1="645.6" y1="699.9" x2="688.4" y2="625.7"/>
	<line class="st3" x1="391.6" y1="711.4" x2="391.6" y2="625.7"/>
	<line class="st3" x1="391.6" y1="540" x2="391.6" y2="625.7"/>
	<line class="st3" x1="477.3" y1="625.7" x2="391.6" y2="625.7"/>
	<line class="st3" x1="305.9" y1="625.7" x2="391.6" y2="625.7"/>
	<line class="st3" x1="465.8" y1="582.8" x2="391.6" y2="625.7"/>
	<line class="st3" x1="317.4" y1="668.5" x2="391.6" y2="625.7"/>
	<line class="st3" x1="317.4" y1="582.8" x2="391.6" y2="625.7"/>
	<line class="st3" x1="465.8" y1="668.5" x2="391.6" y2="625.7"/>
	<line class="st3" x1="348.8" y1="551.5" x2="391.6" y2="625.7"/>
	<line class="st3" x1="434.4" y1="699.9" x2="391.6" y2="625.7"/>
	<line class="st3" x1="434.4" y1="551.5" x2="391.6" y2="625.7"/>
	<line class="st3" x1="348.8" y1="699.9" x2="391.6" y2="625.7"/>
	<line class="st3" x1="243.2" y1="625.8" x2="243.2" y2="711.5"/>
	<line class="st3" x1="243.2" y1="797.1" x2="243.2" y2="711.5"/>
	<line class="st3" x1="157.5" y1="711.5" x2="243.2" y2="711.5"/>
	<line class="st3" x1="328.9" y1="711.5" x2="243.2" y2="711.5"/>
	<line class="st3" x1="169" y1="754.3" x2="243.2" y2="711.5"/>
	<line class="st3" x1="317.4" y1="668.6" x2="243.2" y2="711.5"/>
	<line class="st3" x1="317.4" y1="754.3" x2="243.2" y2="711.5"/>
	<line class="st3" x1="169" y1="668.6" x2="243.2" y2="711.5"/>
	<line class="st3" x1="286" y1="785.7" x2="243.2" y2="711.5"/>
	<line class="st3" x1="200.3" y1="637.3" x2="243.2" y2="711.5"/>
	<line class="st3" x1="200.3" y1="785.7" x2="243.2" y2="711.5"/>
	<line class="st3" x1="286" y1="637.3" x2="243.2" y2="711.5"/>
	<line class="st3" x1="540" y1="968.4" x2="540" y2="882.8"/>
	<line class="st3" x1="540" y1="797.1" x2="540" y2="882.8"/>
	<line class="st3" x1="625.7" y1="882.8" x2="540" y2="882.8"/>
	<line class="st3" x1="454.4" y1="882.8" x2="540" y2="882.8"/>
	<line class="st3" x1="614.2" y1="839.9" x2="540" y2="882.8"/>
	<line class="st3" x1="465.8" y1="925.6" x2="540" y2="882.8"/>
	<line class="st3" x1="465.8" y1="839.9" x2="540" y2="882.8"/>
	<line class="st3" x1="614.2" y1="925.6" x2="540" y2="882.8"/>
	<line class="st3" x1="497.2" y1="808.6" x2="540" y2="882.8"/>
	<line class="st3" x1="582.9" y1="957" x2="540" y2="882.8"/>
	<line class="st3" x1="582.9" y1="808.6" x2="540" y2="882.8"/>
	<line class="st3" x1="497.2" y1="957" x2="540" y2="882.8"/>
	<line class="st3" x1="391.6" y1="882.8" x2="391.6" y2="797.1"/>
	<line class="st3" x1="391.6" y1="711.5" x2="391.6" y2="797.1"/>
	<line class="st3" x1="477.3" y1="797.1" x2="391.6" y2="797.1"/>
	<line class="st3" x1="305.9" y1="797.1" x2="391.6" y2="797.1"/>
	<line class="st3" x1="465.8" y1="754.3" x2="391.6" y2="797.1"/>
	<line class="st3" x1="317.4" y1="840" x2="391.6" y2="797.1"/>
	<line class="st3" x1="317.4" y1="754.3" x2="391.6" y2="797.1"/>
	<line class="st3" x1="465.8" y1="840" x2="391.6" y2="797.1"/>
	<line class="st3" x1="348.8" y1="722.9" x2="391.6" y2="797.1"/>
	<line class="st3" x1="434.4" y1="871.3" x2="391.6" y2="797.1"/>
	<line class="st3" x1="434.4" y1="722.9" x2="391.6" y2="797.1"/>
	<line class="st3" x1="348.8" y1="871.3" x2="391.6" y2="797.1"/>
	<line class="st3" x1="836.8" y1="625.6" x2="836.8" y2="539.9"/>
	<line class="st3" x1="836.8" y1="454.3" x2="836.8" y2="539.9"/>
	<line class="st3" x1="922.5" y1="539.9" x2="836.8" y2="539.9"/>
	<line class="st3" x1="751.1" y1="539.9" x2="836.8" y2="539.9"/>
	<line class="st3" x1="911" y1="497.1" x2="836.8" y2="539.9"/>
	<line class="st3" x1="762.6" y1="582.8" x2="836.8" y2="539.9"/>
	<line class="st3" x1="762.6" y1="497.1" x2="836.8" y2="539.9"/>
	<line class="st3" x1="911" y1="582.8" x2="836.8" y2="539.9"/>
	<line class="st3" x1="794" y1="465.7" x2="836.8" y2="539.9"/>
	<line class="st3" x1="879.6" y1="614.1" x2="836.8" y2="539.9"/>
	<line class="st3" x1="879.6" y1="465.7" x2="836.8" y2="539.9"/>
	<line class="st3" x1="794" y1="614.1" x2="836.8" y2="539.9"/>
	<line class="st3" x1="688.4" y1="882.9" x2="688.4" y2="797.2"/>
	<line class="st3" x1="688.4" y1="711.5" x2="688.4" y2="797.2"/>
	<line class="st3" x1="774.1" y1="797.2" x2="688.4" y2="797.2"/>
	<line class="st3" x1="602.8" y1="797.2" x2="688.4" y2="797.2"/>
	<line class="st3" x1="762.6" y1="754.3" x2="688.4" y2="797.2"/>
	<line class="st3" x1="614.2" y1="840" x2="688.4" y2="797.2"/>
	<line class="st3" x1="614.2" y1="754.3" x2="688.4" y2="797.2"/>
	<line class="st3" x1="762.6" y1="840" x2="688.4" y2="797.2"/>
	<line class="st3" x1="645.6" y1="723" x2="688.4" y2="797.2"/>
	<line class="st3" x1="731.3" y1="871.4" x2="688.4" y2="797.2"/>
	<line class="st3" x1="731.3" y1="723" x2="688.4" y2="797.2"/>
	<line class="st3" x1="645.6" y1="871.4" x2="688.4" y2="797.2"/>
	<line class="st3" x1="836.8" y1="797.1" x2="836.8" y2="711.4"/>
	<line class="st3" x1="836.8" y1="625.8" x2="836.8" y2="711.4"/>
	<line class="st3" x1="922.5" y1="711.4" x2="836.8" y2="711.4"/>
	<line class="st3" x1="751.1" y1="711.4" x2="836.8" y2="711.4"/>
	<line class="st3" x1="911" y1="668.6" x2="836.8" y2="711.4"/>
	<line class="st3" x1="762.6" y1="754.3" x2="836.8" y2="711.4"/>
	<line class="st3" x1="762.6" y1="668.6" x2="836.8" y2="711.4"/>
	<line class="st3" x1="911" y1="754.3" x2="836.8" y2="711.4"/>
	<line class="st3" x1="794" y1="637.2" x2="836.8" y2="711.4"/>
	<line class="st3" x1="879.6" y1="785.6" x2="836.8" y2="711.4"/>
	<line class="st3" x1="879.6" y1="637.2" x2="836.8" y2="711.4"/>
	<line class="st3" x1="794" y1="785.6" x2="836.8" y2="711.4"/>
	<line class="st3" x1="836.8" y1="454.3" x2="836.8" y2="368.6"/>
	<line class="st3" x1="836.8" y1="282.9" x2="836.8" y2="368.6"/>
	<line class="st3" x1="922.5" y1="368.6" x2="836.8" y2="368.6"/>
	<line class="st3" x1="751.1" y1="368.6" x2="836.8" y2="368.6"/>
	<line class="st3" x1="911" y1="325.8" x2="836.8" y2="368.6"/>
	<line class="st3" x1="762.6" y1="411.4" x2="836.8" y2="368.6"/>
	<line class="st3" x1="762.6" y1="325.8" x2="836.8" y2="368.6"/>
	<line class="st3" x1="911" y1="411.4" x2="836.8" y2="368.6"/>
	<line class="st3" x1="794" y1="294.4" x2="836.8" y2="368.6"/>
	<line class="st3" x1="879.6" y1="442.8" x2="836.8" y2="368.6"/>
	<line class="st3" x1="879.6" y1="294.4" x2="836.8" y2="368.6"/>
	<line class="st3" x1="794" y1="442.8" x2="836.8" y2="368.6"/>
	<line class="st3" x1="688.4" y1="540" x2="688.4" y2="454.3"/>
	<line class="st3" x1="688.4" y1="368.7" x2="688.4" y2="454.3"/>
	<line class="st3" x1="774" y1="454.3" x2="688.4" y2="454.3"/>
	<line class="st3" x1="602.7" y1="454.3" x2="688.4" y2="454.3"/>
	<line class="st3" x1="762.6" y1="411.5" x2="688.4" y2="454.3"/>
	<line class="st3" x1="614.2" y1="497.2" x2="688.4" y2="454.3"/>
	<line class="st3" x1="614.2" y1="411.5" x2="688.4" y2="454.3"/>
	<line class="st3" x1="762.6" y1="497.2" x2="688.4" y2="454.3"/>
	<line class="st3" x1="645.5" y1="380.1" x2="688.4" y2="454.3"/>
	<line class="st3" x1="731.2" y1="528.5" x2="688.4" y2="454.3"/>
	<line class="st3" x1="731.2" y1="380.1" x2="688.4" y2="454.3"/>
	<line class="st3" x1="645.5" y1="528.5" x2="688.4" y2="454.3"/>
	<polygon class="st3" points="517,968.4 477.2,945.4 454.3,905.7 454.3,859.7 477.2,820 517,797 562.9,797 602.7,820 625.6,859.7 
		625.6,905.7 602.7,945.4 562.9,968.4 	"/>
	<polygon class="st3" points="665.4,882.7 625.6,859.7 602.7,820 602.7,774.1 625.6,734.3 665.4,711.3 711.3,711.3 751.1,734.3 
		774,774.1 774,820 751.1,859.7 711.3,882.7 	"/>
	<polygon class="st3" points="368.6,882.7 328.8,859.7 305.9,820 305.9,774.1 328.8,734.3 368.6,711.3 414.5,711.3 454.3,734.3 
		477.2,774.1 477.2,820 454.3,859.7 414.5,882.7 	"/>
	<polygon class="st3" points="813.8,797 774,774.1 751.1,734.3 751.1,688.4 774,648.6 813.8,625.7 859.7,625.7 899.5,648.6 
		922.4,688.4 922.4,734.3 899.5,774.1 859.7,797 	"/>
	<polygon class="st3" points="517,797 477.2,774.1 454.3,734.3 454.3,688.4 477.2,648.6 517,625.7 562.9,625.7 602.7,648.6 
		625.6,688.4 625.6,734.3 602.7,774.1 562.9,797 	"/>
	<polygon class="st3" points="220.2,797 180.4,774.1 157.5,734.3 157.5,688.4 180.4,648.6 220.2,625.7 266.1,625.7 305.9,648.6 
		328.8,688.4 328.8,734.3 305.9,774.1 266.1,797 	"/>
	<polygon class="st3" points="665.4,711.3 625.6,688.4 602.7,648.6 602.7,602.7 625.6,563 665.4,540 711.3,540 751.1,563 774,602.7 
		774,648.6 751.1,688.4 711.3,711.3 	"/>
	<polygon class="st3" points="368.6,711.3 328.8,688.4 305.9,648.6 305.9,602.7 328.8,563 368.6,540 414.5,540 454.3,563 
		477.2,602.7 477.2,648.6 454.3,688.4 414.5,711.3 	"/>
	<polygon class="st3" points="813.8,625.7 774,602.7 751.1,563 751.1,517 774,477.3 813.8,454.3 859.7,454.3 899.5,477.3 922.4,517 
		922.4,563 899.5,602.7 859.7,625.7 	"/>
	<polygon class="st3" points="517,625.7 477.2,602.7 454.3,563 454.3,517 477.2,477.3 517,454.3 562.9,454.3 602.7,477.3 625.6,517 
		625.6,563 602.7,602.7 562.9,625.7 	"/>
	<polygon class="st3" points="220.2,625.7 180.4,602.7 157.5,563 157.5,517 180.4,477.3 220.2,454.3 266.1,454.3 305.9,477.3 
		328.9,517 328.9,563 305.9,602.7 266.1,625.7 	"/>
	<polygon class="st3" points="665.4,540 625.6,517 602.7,477.3 602.7,431.4 625.6,391.6 665.4,368.6 711.3,368.6 751.1,391.6 
		774,431.4 774,477.3 751.1,517 711.3,540 	"/>
	<polygon class="st3" points="368.6,540 328.8,517 305.9,477.3 305.9,431.4 328.8,391.6 368.6,368.6 414.5,368.6 454.3,391.6 
		477.2,431.4 477.2,477.3 454.3,517 414.5,540 	"/>
	<polygon class="st3" points="813.8,454.3 774,431.4 751.1,391.6 751.1,345.7 774,305.9 813.8,283 859.7,283 899.5,305.9 
		922.4,345.7 922.4,391.6 899.5,431.4 859.7,454.3 	"/>
	<polygon class="st3" points="517,454.3 477.2,431.4 454.3,391.6 454.3,345.7 477.2,305.9 517,283 562.9,283 602.7,305.9 
		625.6,345.7 625.6,391.6 602.7,431.4 562.9,454.3 	"/>
	<polygon class="st3" points="220.2,454.3 180.4,431.4 157.5,391.6 157.5,345.7 180.4,305.9 220.2,283 266.1,283 305.9,305.9 
		328.9,345.7 328.9,391.6 305.9,431.4 266.1,454.3 	"/>
	<polygon class="st3" points="665.4,368.6 625.6,345.7 602.7,305.9 602.7,260 625.6,220.3 665.4,197.3 711.3,197.3 751.1,220.3 
		774,260 774,305.9 751.1,345.7 711.3,368.6 	"/>
	<polygon class="st3" points="368.6,368.6 328.8,345.7 305.9,305.9 305.9,260 328.8,220.3 368.6,197.3 414.5,197.3 454.3,220.3 
		477.2,260 477.2,305.9 454.3,345.7 414.5,368.6 	"/>
	<polygon class="st3" points="517,283 477.2,260 454.3,220.3 454.3,174.3 477.2,134.6 517,111.6 562.9,111.6 602.7,134.6 
		625.6,174.3 625.6,220.3 602.7,260 562.9,283 	"/>
	<line class="st4" x1="540" y1="111.6" x2="540" y2="197.3"/>
	<g>
		<path class="st3" d="M625.6,197.3l13.3,0 M638.9,197.3l6.6,11.5"/>
		<polygon class="st3" points="625.6,220.3 625.6,174.3 665.4,197.3 		"/>
		<line class="st3" x1="638.9" y1="197.3" x2="645.5" y2="185.8"/>
	</g>
	<g>
		<path class="st3" d="M454.3,197.3l-13.3,0 M441,197.3l-6.6,11.5"/>
		<polygon class="st3" points="454.3,220.3 454.3,174.3 414.5,197.3 		"/>
		<line class="st3" x1="441" y1="197.3" x2="434.4" y2="185.8"/>
	</g>
	<g>
		<path class="st3" d="M305.9,282.9l-13.3,0 M292.6,282.9l-6.6,11.5"/>
		<polygon class="st3" points="305.9,305.9 305.9,260 266.2,282.9 		"/>
		<line class="st3" x1="292.7" y1="282.9" x2="286" y2="271.4"/>
	</g>
	<g>
		<path class="st3" d="M899.5,454.3l-13.3,0 M886.3,454.3l-6.6,11.5"/>
		<polygon class="st3" points="899.5,477.3 899.5,431.4 859.8,454.3 		"/>
		<line class="st3" x1="886.3" y1="454.3" x2="879.7" y2="442.9"/>
	</g>
	<g>
		<path class="st3" d="M899.5,625.7l-13.3,0 M886.2,625.7l-6.6,11.5"/>
		<polygon class="st3" points="899.5,648.6 899.5,602.7 859.8,625.7 		"/>
		<line class="st3" x1="886.3" y1="625.7" x2="879.6" y2="614.2"/>
	</g>
	<g>
		<path class="st3" d="M454.3,882.7l-13.3,0 M441.1,882.7l-6.6,11.5"/>
		<polygon class="st3" points="454.3,905.7 454.3,859.7 414.6,882.7 		"/>
		<line class="st3" x1="441.1" y1="882.7" x2="434.4" y2="871.2"/>
	</g>
	<g>
		<path class="st3" d="M305.9,797l-13.3,0 M292.7,797l-6.6,11.5"/>
		<polygon class="st3" points="305.9,820 305.9,774.1 266.2,797 		"/>
		<line class="st3" x1="292.7" y1="797" x2="286" y2="785.6"/>
	</g>
	<g>
		<path class="st3" d="M774,283l13.3,0 M787.3,283l6.6,11.5"/>
		<polygon class="st3" points="774,305.9 774,260 813.8,283 		"/>
		<line class="st3" x1="787.3" y1="283" x2="793.9" y2="271.5"/>
	</g>
	<g>
		<path class="st3" d="M180.5,454.3l13.3,0 M193.8,454.3l6.6,11.5"/>
		<polygon class="st3" points="180.5,477.3 180.5,431.4 220.2,454.3 		"/>
		<line class="st3" x1="193.7" y1="454.3" x2="200.4" y2="442.9"/>
	</g>
	<g>
		<path class="st3" d="M180.5,625.7l13.3,0 M193.8,625.7l6.6,11.5"/>
		<polygon class="st3" points="180.5,648.6 180.5,602.7 220.2,625.7 		"/>
		<line class="st3" x1="193.7" y1="625.7" x2="200.4" y2="614.2"/>
	</g>
	<g>
		<path class="st3" d="M774.1,797l13.3,0 M787.3,797l6.6,11.5"/>
		<polygon class="st3" points="774.1,820 774.1,774.1 813.8,797 		"/>
		<line class="st3" x1="787.3" y1="797" x2="794" y2="785.6"/>
	</g>
	<g>
		<path class="st3" d="M625.7,882.7l13.3,0 M639,882.7l6.6,11.5"/>
		<polygon class="st3" points="625.7,905.6 625.7,859.7 665.4,882.7 		"/>
		<line class="st3" x1="638.9" y1="882.7" x2="645.6" y2="871.2"/>
	</g>
	<rect x="501.2" y="844.8" class="st5" width="77.4" height="75.7"/>
	<text transform="matrix(1 0 0 1 509.2603 912.1119)" class="st6 st7 st8">19</text>
	<rect x="649.6" y="759.2" class="st5" width="77.4" height="75.7"/>
	<text transform="matrix(1 0 0 1 657.29 826.4379)" class="st6 st7 st8">18</text>
	<rect x="352.9" y="759.2" class="st5" width="77.4" height="75.7"/>
	<text transform="matrix(1 0 0 1 362.3328 826.4379)" class="st6 st7 st8">17</text>
	<rect x="798.1" y="673.5" class="st5" width="77.4" height="75.7"/>
	<text transform="matrix(1 0 0 1 806.0923 740.7507)" class="st6 st7 st8">16</text>
	<rect x="501.2" y="673.5" class="st5" width="77.4" height="75.7"/>
	<text transform="matrix(1 0 0 1 509.6499 740.7507)" class="st6 st7 st8">15</text>
	<rect x="204.5" y="673.5" class="st5" width="77.4" height="75.7"/>
	<text transform="matrix(1 0 0 1 211.9382 740.7507)" class="st6 st7 st8">14</text>
	<rect x="649.7" y="587.9" class="st5" width="77.4" height="75.7"/>
	<text transform="matrix(1 0 0 1 657.834 655.1924)" class="st6 st7 st8">13</text>
	<rect x="352.9" y="587.8" class="st5" width="77.4" height="75.7"/>
	<text transform="matrix(1 0 0 1 361.4509 655.0787)" class="st6 st7 st8">12</text>
	<rect x="798.1" y="502" class="st5" width="77.4" height="75.7"/>
	<text transform="matrix(1 0 0 1 812.374 569.3188)" class="st6 st7 st8">11</text>
	<rect x="501.2" y="502.1" class="st5" width="77.4" height="75.7"/>
	<text transform="matrix(1 0 0 1 507.6196 569.4052)" class="st6 st7 st8">10</text>
	<rect x="204.5" y="502" class="st5" width="77.4" height="75.7"/>
	<text transform="matrix(1 0 0 1 223.7078 569.3188)" class="st6 st7 st8">9</text>
	<rect x="649.7" y="416.5" class="st5" width="77.4" height="75.7"/>
	<text transform="matrix(1 0 0 1 668.4937 483.7367)" class="st6 st7 st8">8</text>
	<rect x="352.9" y="416.5" class="st5" width="77.4" height="75.7"/>
	<text transform="matrix(1 0 0 1 373.5012 483.7367)" class="st6 st7 st8">7</text>
	<rect x="798.1" y="330.8" class="st5" width="77.4" height="75.7"/>
	<text transform="matrix(1 0 0 1 817.2363 398.0496)" class="st6 st7 st8">6</text>
	<rect x="501.3" y="330.8" class="st5" width="77.4" height="75.7"/>
	<text transform="matrix(1 0 0 1 520.853 398.0496)" class="st6 st7 st8">5</text>
	<rect x="204.5" y="330.8" class="st5" width="77.4" height="75.7"/>
	<text transform="matrix(1 0 0 1 223.082 398.0496)" class="st6 st7 st8">4</text>
	<rect x="649.7" y="245.1" class="st5" width="77.4" height="75.7"/>
	<text transform="matrix(1 0 0 1 669.0269 312.381)" class="st6 st7 st8">3</text>
	<rect x="352.9" y="245.1" class="st5" width="77.4" height="75.7"/>
	<text transform="matrix(1 0 0 1 372.6194 312.381)" class="st6 st7 st8">2</text>
	<rect x="501.3" y="159.4" class="st5" width="77.4" height="75.7"/>
	<text transform="matrix(1 0 0 1 526.7183 226.7019)" class="st6 st7 st8">1</text>
	<g>
		<line class="st9" x1="94.8" y1="455.3" x2="539.9" y2="712.3"/>
		<line class="st9" x1="94.9" y1="626.6" x2="540" y2="883.6"/>
		<line class="st9" x1="391.6" y1="969.3" x2="391.6" y2="455.3"/>
		<line class="st9" x1="243.3" y1="883.6" x2="243.3" y2="369.6"/>
	</g>
	<g>
		<line class="st9" x1="985.2" y1="455.3" x2="540.1" y2="712.3"/>
		<line class="st9" x1="985.1" y1="626.6" x2="540" y2="883.6"/>
		<line class="st9" x1="688.4" y1="969.3" x2="688.4" y2="455.3"/>
		<line class="st9" x1="836.8" y1="883.6" x2="836.8" y2="369.6"/>
	</g>
	<line class="st9" x1="243.2" y1="197.2" x2="688.4" y2="454.2"/>
	<line class="st9" x1="391.6" y1="111.7" x2="836.8" y2="368.7"/>
	<line class="st9" x1="836.8" y1="197.2" x2="391.6" y2="454.2"/>
	<line class="st9" x1="688.4" y1="111.7" x2="243.2" y2="368.7"/>
	<g>
		<polygon class="st10" points="829,535.4 696.2,612.2 696.2,458.8 829,382.2 		"/>
		<polygon class="st10" points="977.4,449.7 844.6,526.5 844.6,373.2 977.4,296.5 		"/>
		<polygon class="st10" points="680.6,621.1 547.8,697.8 547.8,544.5 680.5,467.8 		"/>
		<polygon class="st10" points="829,707.2 696.2,784 696.2,630.6 829,554 		"/>
		<polygon class="st10" points="977.4,621.6 844.6,698.3 844.6,545 977.4,468.3 		"/>
		<polygon class="st10" points="680.6,792.9 547.8,869.6 547.8,716.3 680.5,639.7 		"/>
		<polygon class="st10" points="829,878.1 696.2,954.8 696.2,801.5 829,724.8 		"/>
		<polygon class="st10" points="977.4,792.4 844.6,869.2 844.6,715.8 977.4,639.2 		"/>
		<polygon class="st10" points="680.6,963.8 547.8,1040.5 547.8,887.2 680.5,810.5 		"/>
	</g>
	<g>
		<polygon class="st10" points="250.8,535.4 383.6,612.1 383.6,458.8 250.9,382.2 		"/>
		<polygon class="st10" points="102.4,449.7 235.2,526.5 235.2,373.1 102.5,296.5 		"/>
		<polygon class="st10" points="399.3,621.1 532.1,697.8 532.1,544.5 399.3,467.8 		"/>
		<polygon class="st10" points="250.8,707.2 383.6,784 383.6,630.6 250.9,554 		"/>
		<polygon class="st10" points="102.4,621.6 235.2,698.3 235.2,545 102.5,468.3 		"/>
		<polygon class="st10" points="399.3,792.9 532.1,869.6 532.1,716.3 399.3,639.7 		"/>
		<polygon class="st10" points="250.8,878.1 383.6,954.8 383.6,801.5 250.9,724.8 		"/>
		<polygon class="st10" points="102.4,792.4 235.2,869.2 235.2,715.8 102.5,639.2 		"/>
		<polygon class="st10" points="399.3,963.8 532.1,1040.5 532.1,887.2 399.3,810.5 		"/>
	</g>
	<g>
		<polygon class="st10" points="392,274 524.8,197.3 392,120.7 259.3,197.3 		"/>
		<polygon class="st10" points="243.6,359.7 376.4,283 243.6,206.4 110.9,283 		"/>
		<polygon class="st10" points="540.4,188.3 673.2,111.6 540.5,34.9 407.7,111.6 		"/>
		<polygon class="st10" points="540.8,359.9 673.6,283.2 540.8,206.6 408.1,283.3 		"/>
		<polygon class="st10" points="392.4,445.6 525.2,368.9 392.4,292.3 259.7,368.9 		"/>
		<polygon class="st10" points="689.2,274.2 822,197.5 689.3,120.9 556.5,197.5 		"/>
		<polygon class="st10" points="688.7,445.3 821.6,368.7 688.8,292 556,368.7 		"/>
		<polygon class="st10" points="540.3,531 673.2,454.4 540.4,377.7 407.6,454.4 		"/>
		<polygon class="st10" points="837.2,359.6 970,282.9 837.2,206.3 704.4,283 		"/>
	</g>
	<g class="st11">
		<path class="st12" d="M551.2,141.9h-22.3l-3.5,19.9h-21.9l22.3-100.5H555l22.3,100.5h-22.6L551.2,141.9z M547.9,123.5l-7.3-41.5
			h-1.2l-7.2,41.5H547.9z"/>
	</g>
	<g class="st11">
		<path class="st12" d="M656.4,219.2v-43.8c0-18.1,13-30.1,32.5-30.1c19.6,0,32.5,12,32.5,30.1v8.5h-20.5v-8.1c0-7-4.8-11.7-12-11.7
			c-7,0-11.8,4.6-11.8,11.7v42.9c0,7,4.8,11.7,11.8,11.7c7.2,0,12-4.6,12-11.7v-8.1h20.5v8.5c0,18.1-12.9,30.1-32.5,30.1
			C669.4,249.3,656.4,237.3,656.4,219.2z"/>
	</g>
	<g class="st11">
		<path class="st12" d="M831.5,251.6v24.4h25.3V295h-25.3v38.2h-20.5V232.7h51.7v18.9H831.5z"/>
	</g>
	<g class="st11">
		<path class="st12" d="M423.3,221.3c0,15.4-10.3,26.2-26.1,26.2H360V147.1h34.8c15.7,0,26.1,10.5,26.1,26.1
			c0,12.3-5.7,20.8-13.6,22.6v1.2C417,199.1,423.3,208.2,423.3,221.3z M380.5,164.9v23.7h8.4c6.9,0,11.4-4.8,11.4-11.7
			c0-7-4.5-12-11.4-12H380.5z M402.7,217.2c0-7.3-4.5-12.3-11.4-12.3h-10.8v24.7h10.8C398.2,229.7,402.7,224.4,402.7,217.2z"/>
	</g>
	<g class="st11">
		<path class="st12" d="M275,263.5v39c0,18.6-12.9,30.7-32.4,30.7h-31.3V232.7h31.3C262.1,232.7,275,244.9,275,263.5z M254.5,264.1
			c0-7.5-4.6-12.4-12.4-12.4h-10.2v62.7H242c7.8,0,12.4-4.9,12.4-12.4V264.1z"/>
	</g>
	<g class="st11">
		<path class="st12" d="M403.6,350.8v-3.6c0-7-4.6-11.7-12-11.7c-7,0-11.8,4.6-11.8,11.7V391c0,7,4.6,11.8,11.8,11.8s12-4.6,12-11.8
			v-9.7h-10.8v-17.4h31.3v26.7c0,18.3-12.9,30.1-32.5,30.1c-19.5,0-32.5-12-32.5-30.1v-43.8c0-18.1,13-30.1,32.5-30.1
			c19.6,0,32.5,11.8,32.5,30.1v4H403.6z"/>
	</g>
	<g class="st11">
		<path class="st12" d="M530.2,403.6h20.5v100.5h-20.5V403.6z"/>
	</g>
	<g class="st11">
		<path class="st12" d="M140.2,436.3v-11.4h20.5v10.9c0,4.8,3.3,7.9,8.2,7.9c4.9,0,8.2-3.1,8.2-7.9v-75.4h20.5v75.9
			c0,16-11.5,26.4-28.8,26.4C151.8,462.7,140.2,452.2,140.2,436.3z"/>
	</g>
	<g class="st11">
		<path class="st12" d="M200.7,567.3c0,21.9-12.3,34.6-33.7,34.6h-9v31.2h-20.5V532.6h29.5C188.4,532.6,200.7,545.2,200.7,567.3z
			 M180.1,567.3c0-10-5.4-15.7-14.8-15.7h-7.3V583h7.3C174.7,583,180.1,577.3,180.1,567.3z"/>
	</g>
	<g class="st11">
		<path class="st12" d="M133.3,703.9h22.6l12.8,77.5h1.2l12.7-77.5h22l-22.5,100.5h-26.5L133.3,703.9z"/>
	</g>
	<g class="st11">
		<path class="st12" d="M264.9,789.6h22.6l8.2,72.4h1.3l10.8-72.4h19.6l10.9,72.4h1.4l8.1-72.4h22l-17.8,100.5h-24.7l-9.3-65.1h-1.4
			l-9.4,65.1h-24.7L264.9,789.6z"/>
	</g>
	<g class="st11">
		<path class="st12" d="M452.8,926.3l-23.7-51h25l11.5,32.1h1.4l11.4-32.1h22.9l-22.5,49.3l23.7,51.1h-25.2L466,943.5h-1.4
			l-11.4,32.2h-23.1L452.8,926.3z"/>
	</g>
	<g class="st11">
		<path class="st12" d="M604.1,936L578,875.3h23.8l12.3,38.2h1.2l12.1-38.2h22.9L624.6,936v39.7h-20.5V936z"/>
	</g>
	<g class="st11">
		<path class="st12" d="M734,874.7l31-64.9v-1.2h-30.4v-18.9h57v15.5L760.7,870v1.2h31.5v18.9H734V874.7z"/>
	</g>
	<g class="st11">
		<path class="st12" d="M339.5,708.2l7.4,17.8h-19l-4.8-11.2c-1.8,0.1-3.8,0.3-5.7,0.3c-19.9,0-33.1-12.3-33.1-30.9v-42.3
			c0-18.6,13.2-30.9,33.1-30.9c20.1,0,33.1,12.3,33.1,30.9v42.3C350.4,694.4,346.4,702.8,339.5,708.2z M329.9,684.8v-1v-41.4
			c0-7.5-4.9-12.4-12.6-12.4c-7.5,0-12.4,4.9-12.4,12.4v41.4c0,7.5,4.9,12.4,12.4,12.4h1.5l-5.5-13.5H329L329.9,684.8z"/>
	</g>
	<g class="st11">
		<path class="st12" d="M462.1,769.6h-9v34.8h-20.5V703.9h32.1c20.5,0,32.4,12,32.4,32.8c0,14.1-5.4,24.1-15.3,29.2l17.2,38.4h-24
			L462.1,769.6z M453.1,751.3h9.3c9,0,14.1-5.2,14.1-14.2c0-9-5.1-14.2-14.1-14.2h-9.3V751.3z"/>
	</g>
	<g class="st11">
		<path class="st12" d="M582.9,776.8v-3.8h20.4v4c0,6.1,4.3,10.2,10.9,10.2c6.5,0,10.6-4,10.6-10.2c0-18.3-41.5-10.6-41.5-45.7
			c0-18.6,12.1-29.2,30.3-29.2c18.4,0,30.3,11.1,30.3,27.4v3.8h-20.1v-3.4c0-5.4-3.9-8.8-10-8.8c-5.8,0-9.7,3.3-9.7,9
			c0,18,41.4,9.5,41.4,45.7c0,19.3-12.3,30.4-30.9,30.4C595.5,806.2,582.9,794.7,582.9,776.8z"/>
	</g>
	<g class="st11">
		<path class="st12" d="M793.1,637.2h-20.2v81.6h-20.7v-81.6H732v-18.9h61.2V637.2z"/>
	</g>
	<g class="st11">
		<path class="st12" d="M878.9,604.5v-72.9h20.5V604c0,6.6,4.5,10.9,11.4,10.9c6.8,0,11.2-4.3,11.2-10.9v-72.4h20.7v72.9
			c0,17.7-12.7,29.4-31.9,29.4S878.9,622.2,878.9,604.5z"/>
	</g>
	<g class="st11">
		<path class="st12" d="M311,509l-6.3,6.7v31.6h-20.5V446.9h20.5v42h1.2l20.5-42H350l-25.2,43.9l25.6,56.5h-24.3L311,509z"/>
	</g>
	<g class="st11">
		<path class="st12" d="M490.8,614.2v18.9h-50.5V532.6h20.5v81.6H490.8z"/>
	</g>
	<g class="st11">
		<path class="st12" d="M572.6,532.6h28.5l12.9,52h1.3l12.8-52h27.7v100.5h-20.5v-61l0.9-7h-1.5l-12.9,48h-15.1l-12.9-48h-1.5l0.9,7
			v61h-20.5V532.6z"/>
	</g>
	<g class="st11">
		<path class="st12" d="M729.7,446.9h23.8l20.7,61.6h1.5l-0.9-7v-54.6h20.5v100.5h-24l-20.5-61.6h-1.5l0.9,7v54.6h-20.5V446.9z"/>
	</g>
	<g class="st11">
		<path class="st12" d="M877.8,432.6v-42.3c0-18.6,13.2-30.9,33.1-30.9c20.1,0,33.1,12.3,33.1,30.9v42.3c0,18.6-13,30.9-33.1,30.9
			C891,463.5,877.8,451.2,877.8,432.6z M923.5,432.2v-41.4c0-7.5-4.9-12.4-12.6-12.4c-7.5,0-12.5,4.9-12.5,12.4v41.4
			c0,7.5,5,12.4,12.5,12.4C918.6,444.6,923.5,439.7,923.5,432.2z"/>
	</g>
	<g class="st11">
		<g>
			<path class="st12" d="M534.5,251.6v21.6h27.6v18.6h-27.6v22.5h32.4v18.9H514V232.7h52.9v18.9H534.5z"/>
		</g>
	</g>
	<g class="st11">
		<path class="st12" d="M719.3,318.4v100.5h-20.5v-41.2h-20.7v41.2h-20.5V318.4h20.5v40.3h20.7v-40.3H719.3z"/>
	</g>
	<g class="st11">
		<path class="st12" d="M947.3,798v6.4h-15.7l-5.2-7.2c-5.1,5.8-12,9-20.8,9c-18,0-31.2-12.7-31.2-30.4c0-11.7,5.4-21.9,15.1-27.7
			v-1.2c-4-6.9-7-14.5-7-22c0-12.3,9-22.6,23.4-22.6c13.9,0,23.4,9.8,23.4,23.1c0,10.3-5.9,20.1-16,27l14.5,19.3
			c0.1-0.9,0.1-2.1,0.1-3.1v-11.8h15.8v11.7c0,6.9-1.7,13.3-5,18L947.3,798z M919.2,787.6l-19.8-26.5c-3.3,3.7-5.2,8.7-5.2,13.8
			c0,9,5.7,15.9,14.7,15.9C912.7,790.8,916.3,789.7,919.2,787.6z M898.9,724.9c0,5.1,1.8,9.4,4.6,14.1c5.2-4.3,8.5-9.6,8.5-14.7
			c0-4.5-2.4-7.5-6.3-7.5C901.5,716.8,898.9,720.1,898.9,724.9z"/>
	</g>
</g>
<g id="baseline_x5F_white">
</g>
<g id="_x31_9p">
</g>
<g id="_x31_8p">
</g>
<g id="_x31_7p">
</g>
<g id="_x31_6p">
</g>
<g id="_x31_5p">
</g>
<g id="_x31_4p">
</g>
<g id="_x31_3p">
</g>
<g id="_x31_2p">
</g>
<g id="_x31_1p">
</g>
<g id="_x31_0p">
</g>
<g id="_x39_p">
</g>
<g id="_x38_p">
</g>
<g id="_x37_p">
</g>
<g id="_x36_p">
</g>
<g id="_x35_p">
</g>
<g id="_x34_p">
</g>
<g id="_x33_p">
</g>
<g id="_x32_p">
</g>
<g id="_x31_p">
</g>
<g id="blue_x5F_grid">
</g>
<g id="white_x5F_grid">
</g>
<g id="red_x5F_grid">
</g>
<g id="line12" class="st13">
</g>
<g id="line11" class="st13">
</g>
<g id="line10" class="st13">
</g>
<g id="line9" class="st13">
</g>
<g id="line8" class="st13">
</g>
<g id="line7" class="st13">
</g>
<g id="line6" class="st13">
</g>
<g id="line5" class="st13">
</g>
<g id="line4" class="st13">
</g>
<g id="line3" class="st13">
</g>
<g id="line2" class="st13">
</g>
<g id="line1">
</g>
<g id="Layer_116">
</g>
<g id="position_x5F_hollow" class="st13">
</g>
<g id="position" class="st13">
</g>
<g id="_x31_9_00000125578705150275448210000014280571466292691881_">
</g>
<g id="_x31_8_00000051380563457866553840000001443995986344355764_">
</g>
<g id="_x31_7_00000180359976559971938910000008609767728048157825_">
</g>
<g id="_x31_6_00000107560525178246190980000003699024234805986745_">
</g>
<g id="_x31_5_00000147934260798541279380000014363113606613805447_">
</g>
<g id="_x31_4_00000128480907574617092430000005498627773357901485_">
</g>
<g id="_x31_3_00000164490095431372694150000000954447594911694255_">
</g>
<g id="_x31_2_00000081607575333304792670000004077045042403600802_">
</g>
<g id="_x31_1_00000147912291446138753140000003991895211837706669_">
</g>
<g id="_x31_0_00000179629113648069694140000010150379849568973727_">
</g>
<g id="_x39__00000120539583249215047360000013920127170073649029_">
</g>
<g id="_x38__00000183971319746579366780000003830963816422325123_">
</g>
<g id="_x37__00000036253204409838953110000006938170442784102532_">
</g>
<g id="_x36__00000078746516308981815910000000777481455395003314_">
</g>
<g id="_x35__00000013874954009998318860000005089962757873403828_">
</g>
<g id="_x34__00000032611347709969564890000002224044325962688659_">
</g>
<g id="_x33__00000130638534460712960720000013923390470698840725_">
</g>
<g id="_x32__00000134932836266048200940000005773270067010957451_">
</g>
<g id="_x31_">
</g>
<g id="full_x5F_warning" class="st13">
</g>
<g id="red_x5F_box" class="st13">
	<g id="_x31_9w" class="st15">
	</g>
	<g id="_x31_8w" class="st15">
	</g>
	<g id="_x31_7w" class="st15">
	</g>
	<g id="_x31_6w" class="st15">
	</g>
	<g id="_x31_5w" class="st15">
	</g>
	<g id="_x31_4w" class="st15">
	</g>
	<g id="_x31_3w" class="st15">
	</g>
	<g id="_x31_2w" class="st15">
	</g>
	<g id="_x31_1w" class="st15">
	</g>
	<g id="_x31_0w" class="st15">
	</g>
	<g id="_x39_w" class="st15">
	</g>
	<g id="_x38_w" class="st15">
	</g>
	<g id="_x37_w" class="st15">
	</g>
	<g id="_x36_w" class="st15">
	</g>
	<g id="_x35_w" class="st15">
	</g>
	<g id="_x34_w" class="st15">
	</g>
	<g id="_x33_w" class="st15">
	</g>
	<g id="_x32_w" class="st15">
	</g>
	<g id="_x31_w" class="st15">
	</g>
</g>
<g id="green_x5F_box" class="st13">
	<g id="F" class="st15">
		<g id="Layer_83">
			<g id="Layer_72">
			</g>
		</g>
	</g>
	<g id="E" class="st15">
		<g id="Layer_82">
			<g id="Layer_81">
			</g>
		</g>
	</g>
	<g id="D" class="st15">
		<g id="Layer_91">
			<g id="Layer_80">
			</g>
		</g>
		<g id="Layer_85">
			<g id="Layer_74">
			</g>
		</g>
	</g>
	<g id="C" class="st15">
		<g id="Layer_90">
			<g id="Layer_79">
			</g>
		</g>
		<g id="Layer_86">
			<g id="Layer_75">
			</g>
		</g>
	</g>
	<g id="B" class="st15">
		<g id="Layer_89">
			<g id="Layer_78">
			</g>
		</g>
		<g id="Layer_87">
			<g id="Layer_76">
			</g>
		</g>
	</g>
	<g id="A" class="st15">
		<g id="Layer_88">
			<g id="Layer_77">
			</g>
		</g>
		<g id="Layer_84">
			<g id="Layer_73">
			</g>
		</g>
	</g>
	<g id="F1" class="st15">
	</g>
	<g id="E1" class="st15">
	</g>
	<g id="D1" class="st15">
	</g>
	<g id="C1" class="st15">
	</g>
	<g id="B1" class="st15">
	</g>
	<g id="A1" class="st15">
	</g>
</g>
<g id="bluebox">
	<g id="bottom" class="st13">
	</g>
	<g id="leftt" class="st13">
	</g>
	<g id="right" class="st13">
	</g>
	<g id="top" class="st13">
	</g>
	<g id="left_x5F_grid">
	</g>
	<g id="right_x5F_grid">
	</g>
	<g id="top_x5F_grid">
	</g>
</g>
<g id="Layer_111">
</g>
<g id="Layer_110">
</g>
</svg>
